<svg width="356" height="356" viewBox="0 0 356 356" fill="none" xmlns="http://www.w3.org/2000/svg">
<path d="M280.536 234.086H58.8205C54.6106 234.086 51 230.141 51 224.913V53.1731C51 47.9452 54.6106 44 58.8205 44H280.536C284.746 44 288.357 47.9452 288.357 53.1731V224.913C288.357 230.141 284.746 234.086 280.536 234.086Z" stroke="black" stroke-width="2"/>
<path d="M58.62 273L57.82 270.14H52.68L51.86 273H48.16L52.4 259H58.2L62.44 273H58.62ZM57 267.3L55.24 261.1L53.48 267.3H57ZM63.6894 273V262.52H67.2894V266.18H70.6894V262.52H74.2894V273H70.6894V269.14H67.2894V273H63.6894ZM76.0833 270.02C76.0833 268.02 77.6366 266.873 80.7433 266.58L83.1033 266.36V266.32C83.1033 265.32 82.5899 264.813 81.5633 264.8C80.5766 264.8 80.0433 265.167 79.9633 265.9H76.6833C76.6966 265.233 76.8433 264.653 77.1233 264.16C77.4033 263.667 77.7766 263.293 78.2433 263.04C78.7233 262.773 79.2366 262.58 79.7833 262.46C80.3299 262.34 80.9233 262.28 81.5633 262.28C83.1899 262.28 84.4499 262.673 85.3433 263.46C86.2499 264.247 86.7033 265.453 86.7033 267.08V273H83.3433V271.36C82.5166 272.613 81.2966 273.24 79.6833 273.24C78.5366 273.24 77.6499 272.947 77.0233 272.36C76.3966 271.76 76.0833 270.98 76.0833 270.02ZM79.6433 269.82C79.6433 270.46 80.0499 270.78 80.8633 270.78C81.4899 270.78 82.0166 270.58 82.4433 270.18C82.8833 269.767 83.1033 269.3 83.1033 268.78V268.48L81.2233 268.66C80.1699 268.753 79.6433 269.14 79.6433 269.82ZM90.127 262.52H99.307V273H95.707V265.48H93.267C93.0804 267.96 92.927 269.5 92.807 270.1C92.527 271.54 91.9604 272.46 91.107 272.86C90.667 273.06 90.1404 273.16 89.527 273.16C89.0337 273.16 88.5737 273.12 88.147 273.04V270.12C88.2937 270.147 88.4537 270.16 88.627 270.16C88.8137 270.16 88.9804 270.087 89.127 269.94C89.2737 269.793 89.3937 269.567 89.487 269.26C89.5804 268.953 89.6537 268.633 89.707 268.3C89.7737 267.967 89.827 267.547 89.867 267.04C89.907 266.52 89.9404 266.053 89.967 265.64C89.9937 265.213 90.0204 264.693 90.047 264.08C90.0737 263.453 90.1004 262.933 90.127 262.52ZM107.443 262.52H112.743V273H109.303V265.56L106.763 273H101.463V262.52H104.903V269.96L107.443 262.52ZM114.18 265.48V262.52H124.7V265.48H121.24V273H117.64V265.48H114.18ZM132.111 262.52H137.411V273H133.971V265.56L131.431 273H126.131V262.52H129.571V269.96L132.111 262.52ZM150.548 273H146.148L143.548 269.14H143.168V273H139.568V262.52H143.168V266.34H143.588L146.028 262.52H150.228L146.168 267.42L150.548 273ZM150.947 270.02C150.947 268.02 152.5 266.873 155.607 266.58L157.967 266.36V266.32C157.967 265.32 157.453 264.813 156.427 264.8C155.44 264.8 154.907 265.167 154.827 265.9H151.547C151.56 265.233 151.707 264.653 151.987 264.16C152.267 263.667 152.64 263.293 153.107 263.04C153.587 262.773 154.1 262.58 154.647 262.46C155.193 262.34 155.787 262.28 156.427 262.28C158.053 262.28 159.313 262.673 160.207 263.46C161.113 264.247 161.567 265.453 161.567 267.08V273H158.207V271.36C157.38 272.613 156.16 273.24 154.547 273.24C153.4 273.24 152.513 272.947 151.887 272.36C151.26 271.76 150.947 270.98 150.947 270.02ZM154.507 269.82C154.507 270.46 154.913 270.78 155.727 270.78C156.353 270.78 156.88 270.58 157.307 270.18C157.747 269.767 157.967 269.3 157.967 268.78V268.48L156.087 268.66C155.033 268.753 154.507 269.14 154.507 269.82ZM176.181 265.78C179.354 265.98 180.941 267.12 180.941 269.2C180.941 270.053 180.668 270.773 180.121 271.36C179.588 271.947 178.908 272.367 178.081 272.62C177.268 272.873 176.348 273 175.321 273H168.561V259H175.121C176.134 259 177.021 259.107 177.781 259.32C178.541 259.52 179.174 259.893 179.681 260.44C180.201 260.987 180.461 261.693 180.461 262.56C180.461 263.573 180.114 264.34 179.421 264.86C178.728 265.38 177.648 265.687 176.181 265.78ZM172.321 261.9V264.5H174.681C176.028 264.5 176.701 264.067 176.701 263.2C176.701 262.333 176.048 261.9 174.741 261.9H172.321ZM174.981 270.1C176.448 270.1 177.181 269.627 177.181 268.68C177.181 267.733 176.501 267.26 175.141 267.26H172.321V270.1H174.981ZM186.855 270.04H192.935V273H181.735V270.28L185.975 266.78C186.682 266.193 187.188 265.76 187.495 265.48C187.815 265.2 188.128 264.84 188.435 264.4C188.742 263.96 188.895 263.54 188.895 263.14C188.895 262.727 188.768 262.387 188.515 262.12C188.262 261.853 187.915 261.72 187.475 261.72C186.408 261.72 185.802 262.533 185.655 264.16L182.115 263.9C182.248 262.167 182.802 260.88 183.775 260.04C184.762 259.187 185.995 258.76 187.475 258.76C188.902 258.76 190.102 259.133 191.075 259.88C192.048 260.627 192.535 261.713 192.535 263.14C192.535 263.953 192.315 264.713 191.875 265.42C191.448 266.113 190.655 266.933 189.495 267.88L186.855 270.04ZM202.431 265.78C205.604 265.98 207.191 267.12 207.191 269.2C207.191 270.053 206.918 270.773 206.371 271.36C205.838 271.947 205.158 272.367 204.331 272.62C203.518 272.873 202.598 273 201.571 273H194.811V259H201.371C202.384 259 203.271 259.107 204.031 259.32C204.791 259.52 205.424 259.893 205.931 260.44C206.451 260.987 206.711 261.693 206.711 262.56C206.711 263.573 206.364 264.34 205.671 264.86C204.978 265.38 203.898 265.687 202.431 265.78ZM198.571 261.9V264.5H200.931C202.278 264.5 202.951 264.067 202.951 263.2C202.951 262.333 202.298 261.9 200.991 261.9H198.571ZM201.231 270.1C202.698 270.1 203.431 269.627 203.431 268.68C203.431 267.733 202.751 267.26 201.391 267.26H198.571V270.1H201.231ZM55.06 291.52H60.36V302H56.92V294.56L54.38 302H49.08V291.52H52.52V298.96L55.06 291.52ZM67.0683 302V291.52H77.5483V302H73.9483V294.48H70.6683V302H67.0683ZM80.865 300.76C79.825 299.773 79.305 298.44 79.305 296.76C79.305 295.08 79.825 293.747 80.865 292.76C81.9183 291.773 83.3317 291.28 85.105 291.28C86.8783 291.28 88.285 291.773 89.325 292.76C90.3783 293.747 90.905 295.08 90.905 296.76C90.905 298.44 90.3783 299.773 89.325 300.76C88.285 301.747 86.8783 302.24 85.105 302.24C83.3317 302.24 81.9183 301.747 80.865 300.76ZM83.465 294.84C83.065 295.333 82.865 295.973 82.865 296.76C82.865 297.547 83.065 298.193 83.465 298.7C83.865 299.193 84.4117 299.44 85.105 299.44C85.7983 299.44 86.345 299.193 86.745 298.7C87.145 298.193 87.345 297.547 87.345 296.76C87.345 295.973 87.145 295.333 86.745 294.84C86.345 294.333 85.7983 294.08 85.105 294.08C84.4117 294.08 83.865 294.333 83.465 294.84ZM102.815 299.04H104.255V304.74H100.855V302H95.1547V304.74H91.7547V299.04H92.6547C92.8414 298.6 92.9947 297.993 93.1147 297.22C93.2347 296.433 93.3147 295.727 93.3547 295.1C93.408 294.473 93.488 293.28 93.5947 291.52H102.815V299.04ZM99.2147 299.04V294.48H96.6547C96.6414 294.667 96.6147 294.953 96.5747 295.34C96.548 295.727 96.528 295.993 96.5147 296.14C96.5014 296.273 96.4814 296.487 96.4547 296.78C96.428 297.06 96.4014 297.273 96.3747 297.42C96.3614 297.553 96.3347 297.727 96.2947 297.94C96.2547 298.153 96.208 298.347 96.1547 298.52C96.1147 298.68 96.068 298.853 96.0147 299.04H99.2147ZM115.803 299.04H117.243V304.74H113.843V302H108.143V304.74H104.743V299.04H105.643C105.83 298.6 105.983 297.993 106.103 297.22C106.223 296.433 106.303 295.727 106.343 295.1C106.396 294.473 106.476 293.28 106.583 291.52H115.803V299.04ZM112.203 299.04V294.48H109.643C109.63 294.667 109.603 294.953 109.563 295.34C109.536 295.727 109.516 295.993 109.503 296.14C109.49 296.273 109.47 296.487 109.443 296.78C109.416 297.06 109.39 297.273 109.363 297.42C109.35 297.553 109.323 297.727 109.283 297.94C109.243 298.153 109.196 298.347 109.143 298.52C109.103 298.68 109.056 298.853 109.003 299.04H112.203ZM118.133 296.76C118.133 294.933 118.653 293.567 119.693 292.66C120.746 291.74 122.173 291.28 123.973 291.28C125.826 291.28 127.206 291.773 128.113 292.76C129.033 293.747 129.493 295.313 129.493 297.46V297.82H121.753C121.98 299.087 122.766 299.72 124.113 299.72C124.926 299.72 125.526 299.42 125.913 298.82L129.373 299.02C129.08 300.047 128.48 300.84 127.573 301.4C126.68 301.96 125.526 302.24 124.113 302.24C122.273 302.24 120.813 301.793 119.733 300.9C118.666 299.993 118.133 298.613 118.133 296.76ZM121.753 295.58H125.953C125.806 294.393 125.146 293.8 123.973 293.8C122.76 293.8 122.02 294.393 121.753 295.58ZM131.209 306V291.52H134.569V293.14C135.329 291.9 136.462 291.28 137.969 291.28C139.302 291.28 140.402 291.773 141.269 292.76C142.136 293.733 142.569 295.067 142.569 296.76C142.569 298.44 142.136 299.773 141.269 300.76C140.416 301.747 139.329 302.24 138.009 302.24C136.649 302.24 135.582 301.72 134.809 300.68V306H131.209ZM135.229 294.82C134.842 295.313 134.649 295.96 134.649 296.76C134.649 297.56 134.842 298.207 135.229 298.7C135.629 299.193 136.162 299.44 136.829 299.44C137.496 299.44 138.022 299.193 138.409 298.7C138.809 298.207 139.009 297.56 139.009 296.76C139.009 295.96 138.809 295.313 138.409 294.82C138.022 294.327 137.496 294.08 136.829 294.08C136.162 294.08 135.629 294.327 135.229 294.82ZM160.175 302H155.855L153.375 298.14H153.075V302H149.595V298.14H149.295L146.815 302H142.495L146.715 296.44L142.715 291.52H146.835L149.235 295.34H149.595V291.52H153.075V295.34H153.435L155.835 291.52H159.955L155.955 296.44L160.175 302ZM172.365 302H167.965L165.365 298.14H164.985V302H161.385V291.52H164.985V295.34H165.405L167.845 291.52H172.045L167.985 296.42L172.365 302ZM179.552 291.52H184.852V302H181.412V294.56L178.872 302H173.572V291.52H177.012V298.96L179.552 291.52Z" fill="black"/>
<path d="M291.655 197.095C291.564 197.095 291.564 197.004 291.564 197.004L290.56 187.6C290.194 187.508 289.008 187.234 288.643 186.96C288.004 186.504 288.825 171.804 288.825 171.621C288.825 171.53 288.917 171.53 289.008 171.53C289.099 171.53 289.099 171.621 289.099 171.712C288.825 175.821 288.552 186.23 288.825 186.778C289.099 186.96 290.286 187.234 290.742 187.326C290.833 187.326 290.833 187.417 290.833 187.417L291.746 196.913C291.746 197.004 291.746 197.095 291.655 197.095Z" fill="#BFBFBF"/>
<path d="M306.805 184.86C300.781 184.404 297.404 180.113 296.765 172.169C296.765 172.078 296.857 172.078 296.857 171.986C296.948 171.986 296.948 172.078 297.039 172.078C297.678 179.93 300.964 184.13 306.805 184.587C306.896 184.587 306.896 184.678 306.896 184.769C306.896 184.769 306.896 184.86 306.805 184.86Z" fill="#BFBFBF"/>
<path d="M233.561 191.585H110.493C103.582 191.585 98 185.97 98 179.019V114.319C98 107.367 103.582 101.753 110.493 101.753H233.561C240.471 101.753 246.053 107.367 246.053 114.319V179.019C246.053 185.97 240.471 191.585 233.561 191.585Z" fill="white"/>
<path d="M241.18 101.753H102.873C100.215 101.753 98 103.981 98 106.654V115.299H246.053V106.654C246.053 103.981 243.838 101.753 241.18 101.753Z" fill="#2A73FF"/>
<path d="M104.734 110.665C105.811 110.665 106.684 109.787 106.684 108.704C106.684 107.621 105.811 106.744 104.734 106.744C103.658 106.744 102.785 107.621 102.785 108.704C102.785 109.787 103.658 110.665 104.734 110.665Z" fill="white"/>
<path d="M111.201 110.665C112.278 110.665 113.15 109.787 113.15 108.704C113.15 107.621 112.278 106.744 111.201 106.744C110.125 106.744 109.252 107.621 109.252 108.704C109.252 109.787 110.125 110.665 111.201 110.665Z" fill="white"/>
<path d="M119.619 108.704C119.619 109.773 118.733 110.665 117.67 110.665C116.607 110.665 115.721 109.773 115.721 108.704C115.721 107.635 116.607 106.743 117.67 106.743C118.733 106.654 119.619 107.546 119.619 108.704Z" fill="white"/>
<path d="M237.192 177.593H111.023V120.824H113.327V175.276H237.192V177.593Z" fill="#BFBFD9"/>
<path d="M109.697 122.518H103.406V125.369H109.697V122.518Z" fill="#BFBFD9"/>
<path d="M109.697 147.292H103.406V150.144H109.697V147.292Z" fill="#BFBFD9"/>
<path d="M109.697 172.067H103.406V174.919H109.697V172.067Z" fill="#BFBFD9"/>
<path d="M122.367 179.108H119.531V185.435H122.367V179.108Z" fill="#BFBFD9"/>
<path d="M158.074 179.108H155.238V185.435H158.074V179.108Z" fill="#BFBFD9"/>
<path d="M193.866 179.108H191.031V185.435H193.866V179.108Z" fill="#BFBFD9"/>
<path d="M229.042 179.108H226.207V185.435H229.042V179.108Z" fill="#BFBFD9"/>
<path d="M116.959 158.343C116.693 158.343 116.427 158.254 116.25 157.987C115.984 157.63 116.073 157.006 116.427 156.739L153.109 130.271C153.374 130.093 153.817 130.093 154.083 130.271L189.435 153.353L234.533 124.122C234.976 123.854 235.508 123.943 235.774 124.389C236.04 124.835 235.951 125.369 235.508 125.637L189.967 155.135C189.701 155.313 189.258 155.313 188.992 155.135L153.64 132.053L117.491 158.165C117.313 158.254 117.136 158.343 116.959 158.343Z" fill="#2A73FF"/>
<path d="M117.138 159.591C118.46 159.591 119.531 158.513 119.531 157.185C119.531 155.856 118.46 154.778 117.138 154.778C115.817 154.778 114.746 155.856 114.746 157.185C114.746 158.513 115.817 159.591 117.138 159.591Z" fill="#FF5D5D"/>
<path d="M153.818 133.479C155.139 133.479 156.21 132.402 156.21 131.073C156.21 129.744 155.139 128.667 153.818 128.667C152.497 128.667 151.426 129.744 151.426 131.073C151.426 132.402 152.497 133.479 153.818 133.479Z" fill="#FF5D5D"/>
<path d="M192.273 154.065C192.273 155.402 191.21 156.472 189.881 156.472C188.551 156.472 187.488 155.402 187.488 154.065C187.488 152.729 188.551 151.659 189.881 151.659C191.21 151.659 192.273 152.729 192.273 154.065Z" fill="#FF5D5D"/>
<path d="M237.636 124.746C237.636 126.082 236.573 127.152 235.244 127.152C233.915 127.152 232.852 126.082 232.852 124.746C232.852 123.409 233.915 122.339 235.244 122.339C236.573 122.339 237.636 123.409 237.636 124.746Z" fill="#FF5D5D"/>
<path d="M262.839 149.939C254.011 150.032 247.692 146.488 247.692 145.556C247.692 144.717 247.134 138.842 246.762 138.282C246.391 137.629 243.51 137.536 243.138 137.35C242.766 137.07 242.302 136.044 242.302 136.044C241.558 136.23 240.536 137.163 241.094 138.282C241.651 139.401 243.231 140.147 243.231 140.147L243.51 148.447C243.138 152.457 255.962 162.155 262.281 162.715C267.3 161.13 262.839 149.939 262.839 149.939Z" fill="#EFEFEF"/>
<path d="M266.836 150.219C266.185 147.981 263.212 146.955 261.26 150.312C259.309 153.762 258.287 161.316 260.517 163.368C262.561 165.326 264.792 163.274 265.256 162.342C265.721 161.409 266.836 150.219 266.836 150.219Z" fill="#3A85F6"/>
<path d="M290.718 138.096C283.376 141.639 276.5 150.592 264.605 150.219C260.33 155.721 261.91 161.223 263.861 163.275C270.181 166.259 284.12 163.648 290.439 159.265C295.55 155.628 297.594 147.981 290.718 138.096Z" fill="#B3D4F2"/>
<path d="M324.264 296.349L322.963 304.089C324.542 308.286 323.892 313.695 323.892 313.695L292.482 313.788C295.828 307.447 310.603 306.887 312.09 303.81C313.67 300.732 314.32 291.687 314.32 291.687L324.264 296.349Z" fill="white"/>
<path d="M317.201 304.556C317.201 303.437 316.457 299.52 313.577 298.308C313.205 300.452 312.74 302.691 312.183 303.903C310.603 306.98 295.92 307.447 292.575 313.881L323.985 313.788C323.985 313.788 324.635 308.472 323.055 304.183C322.962 304.089 317.387 306.514 317.201 304.556Z" fill="#2B1710"/>
<path d="M293.412 312.576C293.04 312.949 292.761 313.322 292.575 313.788L323.985 313.695C323.985 313.695 324.078 313.228 324.078 312.482L293.412 312.576Z" fill="#693E2F"/>
<path d="M314.505 305.302C314.412 305.302 314.412 305.209 314.319 305.209C314.319 305.209 313.855 303.903 312.926 303.53C312.554 303.343 312.182 303.343 311.717 303.53C311.625 303.53 311.532 303.53 311.439 303.437C311.346 303.343 311.439 303.25 311.532 303.157C312.089 302.97 312.554 302.97 313.018 303.157C314.041 303.623 314.598 305.022 314.598 305.022C314.691 305.209 314.598 305.302 314.505 305.302Z" fill="#693E2F"/>
<path d="M311.534 307.446C311.441 307.446 311.441 307.353 311.348 307.353C311.348 307.353 310.883 306.048 309.954 305.675C309.582 305.488 309.21 305.488 308.746 305.675C308.653 305.675 308.56 305.675 308.467 305.581C308.374 305.488 308.467 305.395 308.56 305.302C309.117 305.115 309.582 305.115 310.047 305.302C311.069 305.768 311.626 307.167 311.626 307.167C311.719 307.26 311.719 307.353 311.534 307.446Z" fill="#693E2F"/>
<path d="M306.701 308.845C306.608 308.845 306.608 308.752 306.515 308.752C306.515 308.752 306.05 307.446 305.121 307.073C304.749 306.887 304.377 306.887 303.913 307.073C303.82 307.073 303.727 307.073 303.634 306.98C303.634 306.887 303.634 306.794 303.727 306.7C304.284 306.514 304.749 306.514 305.214 306.7C306.236 307.167 306.794 308.566 306.794 308.566C306.886 308.659 306.794 308.752 306.701 308.845Z" fill="#693E2F"/>
<path d="M286.629 296.349L285.328 304.089C286.908 308.286 286.257 313.695 286.257 313.695H254.848C258.193 307.353 272.968 306.794 274.455 303.81C276.035 300.732 276.686 291.687 276.686 291.687L286.629 296.349Z" fill="white"/>
<path d="M279.566 304.462C279.659 303.343 278.823 299.427 275.942 298.214C275.571 300.359 275.106 302.504 274.455 303.81C272.876 306.887 258.193 307.353 254.848 313.695H286.257C286.257 313.695 287.001 308.379 285.328 304.089C285.328 304.089 279.659 306.514 279.566 304.462Z" fill="#2B1710"/>
<path d="M255.683 312.482C255.312 312.855 255.033 313.228 254.847 313.695H286.257C286.257 313.695 286.35 313.228 286.35 312.482H255.683Z" fill="#693E2F"/>
<path d="M276.778 305.302C276.685 305.302 276.685 305.209 276.593 305.209C276.593 305.209 276.128 303.903 275.199 303.53C274.827 303.343 274.455 303.343 273.991 303.53C273.898 303.53 273.805 303.53 273.712 303.437C273.712 303.343 273.712 303.25 273.805 303.157C274.362 302.97 274.827 302.97 275.292 303.157C276.314 303.623 276.871 305.022 276.871 305.022C277.057 305.209 276.964 305.302 276.778 305.302C276.871 305.302 276.871 305.302 276.778 305.302Z" fill="#693E2F"/>
<path d="M273.898 307.446C273.805 307.446 273.805 307.353 273.712 307.353C273.712 307.353 273.247 306.048 272.318 305.675C271.946 305.488 271.575 305.488 271.11 305.675C271.017 305.675 270.924 305.675 270.831 305.581C270.831 305.488 270.831 305.395 270.924 305.302C271.482 305.115 271.946 305.115 272.411 305.302C273.433 305.768 273.991 307.167 273.991 307.167C274.084 307.26 273.991 307.353 273.898 307.446C273.898 307.446 273.898 307.353 273.898 307.446Z" fill="#693E2F"/>
<path d="M268.973 308.752C268.88 308.752 268.88 308.659 268.787 308.659C268.787 308.659 268.322 307.353 267.393 306.98C267.021 306.794 266.65 306.794 266.185 306.98C266.092 306.98 265.999 306.98 265.906 306.887C265.906 306.794 265.906 306.7 265.999 306.607C266.557 306.421 267.021 306.421 267.486 306.607C268.508 307.073 269.066 308.472 269.066 308.472C269.159 308.659 269.159 308.752 268.973 308.752C268.973 308.752 269.066 308.752 268.973 308.752Z" fill="#693E2F"/>
<path d="M272.503 302.97H288.301L301.032 246.271L308.002 302.97H323.985C324.45 279.75 332.628 209.342 324.543 187.8H282.447C277.614 236.106 272.503 302.97 272.503 302.97Z" fill="#00468F"/>
<path d="M313.205 136.23L300.381 135.857C295.456 136.044 290.345 138.282 290.345 138.282C288.858 141.173 284.955 162.342 282.446 187.521H324.543C326.587 161.316 321.755 139.681 321.755 139.681C317.945 136.79 313.205 136.23 313.205 136.23Z" fill="white"/>
<path d="M300.939 243.94C300.846 243.94 300.753 243.847 300.753 243.753L298.616 206.172L295.456 205.332C295.363 205.332 295.271 205.239 295.363 205.146L296.107 195.261C296.107 195.167 296.2 195.074 296.293 195.074C296.386 195.074 296.479 195.167 296.479 195.261L295.828 205.052L298.895 205.892C298.988 205.892 298.988 205.985 298.988 206.078L301.125 243.753C301.125 243.847 301.125 243.94 300.939 243.94Z" fill="#E0C9C0"/>
<path d="M287.465 300.172H273.525C273.432 300.172 273.339 300.079 273.339 299.986C273.339 299.893 273.432 299.799 273.525 299.799H287.465C287.557 299.799 287.65 299.893 287.65 299.986C287.65 300.172 287.557 300.172 287.465 300.172Z" fill="#E0C9C0"/>
<path d="M322.406 300.452H308.838C308.746 300.452 308.653 300.359 308.653 300.266C308.653 300.172 308.746 300.079 308.838 300.079H322.406C322.499 300.079 322.592 300.172 322.592 300.266C322.592 300.452 322.499 300.452 322.406 300.452Z" fill="#E0C9C0"/>
<path d="M321.662 202.162C319.803 201.975 313.856 200.576 313.484 190.412C313.484 190.318 313.577 190.225 313.67 190.225C313.763 190.225 313.856 190.318 313.856 190.412C314.135 197.126 317.015 201.416 321.662 201.882C321.755 201.882 321.848 201.975 321.848 202.068C321.848 202.162 321.755 202.162 321.662 202.162Z" fill="#E0C9C0"/>
<path d="M322.034 298.401C321.941 298.401 321.848 298.308 321.848 298.214C321.848 297.282 324.543 206.825 321.755 191.811C321.755 191.717 321.755 191.624 321.941 191.624C322.034 191.624 322.127 191.624 322.127 191.811C324.915 206.825 322.22 297.375 322.22 298.308C322.22 298.308 322.127 298.401 322.034 298.401Z" fill="#E0C9C0"/>
<path d="M301.31 139.028C301.31 139.028 297.686 141.453 297.593 141.546C297.129 143.505 297.779 147.048 297.872 147.048C300.102 146.768 301.218 147.515 301.218 147.515C303.169 146.302 303.727 142.945 303.727 142.945L301.31 139.028Z" fill="#3477DB"/>
<path d="M325.265 189.097H281.867V186.299H325.265V189.097Z" fill="#2B1710"/>
<path d="M333.929 173.998C332.906 179.314 324.729 186.961 323.892 186.961C323.056 186.961 320.919 184.443 319.153 184.909C317.387 185.376 313.484 188.733 314.507 189.572C315.529 190.411 317.573 187.52 318.874 187.707C315.436 190.505 314.507 192.836 315.343 193.302C316.086 193.768 316.644 193.582 316.644 193.582C317.945 194.235 320.454 192.743 321.848 192.463C323.335 192.183 326.216 193.582 328.632 193.209C331.048 192.743 331.791 190.225 332.163 189.945C332.535 189.665 349.169 177.262 348.611 170.362C348.054 163.554 336.252 159.637 336.252 159.637L333.929 173.998Z" fill="white"/>
<path d="M339.69 159.917C341.548 158.705 344.243 161.316 344.429 163.368C344.615 165.419 335.136 175.211 332.813 175.118C330.49 175.024 329.189 172.6 331.047 170.548C332.813 168.497 339.69 159.917 339.69 159.917Z" fill="#3A85F6"/>
<path d="M320.175 138.841C315.25 144.064 317.945 162.715 322.591 165.046C327.237 167.284 331.884 172.6 331.884 172.6C334.486 171.574 341.734 164.02 341.177 160.943C334.765 154.974 327.795 139.401 320.175 138.841Z" fill="#B3D4F2"/>
<path d="M321.94 188.08C321.847 188.08 321.847 188.08 321.94 188.08C321.847 188.08 320.732 187.707 319.71 187.614C319.617 187.614 319.617 187.52 319.617 187.427C319.617 187.334 319.71 187.334 319.803 187.334C320.825 187.334 321.94 187.707 321.94 187.8C322.033 187.8 322.033 187.894 322.033 187.987L321.94 188.08Z" fill="white"/>
<path d="M317.201 192.929C317.015 192.836 317.015 192.743 317.108 192.743C318.037 191.437 319.431 189.759 320.639 189.572C321.755 189.386 322.405 189.572 322.405 189.572C322.498 189.572 322.498 189.665 322.498 189.759C322.498 189.852 322.405 189.852 322.312 189.852C322.312 189.852 321.755 189.665 320.639 189.852C319.431 190.038 318.13 191.531 317.294 192.836C317.294 192.929 317.294 192.929 317.201 192.929Z" fill="white"/>
<path d="M297.965 147.048C294.713 151.058 293.04 161.596 293.876 167.751C294.713 173.906 290.903 180.806 290.903 180.806L295.549 192.836C295.549 192.836 304.191 182.858 304.563 182.392C306.886 176.423 301.589 169.709 300.567 163.834C299.545 157.959 301.404 147.514 301.404 147.514C300.195 146.395 297.965 147.048 297.965 147.048Z" fill="#3A85F6"/>
<path d="M295.177 113.849C295.177 116.554 297.315 118.699 300.01 118.699C302.704 118.699 304.842 116.554 304.842 113.849C304.842 111.145 302.704 109 300.01 109C297.408 109 295.177 111.145 295.177 113.849Z" fill="#2B1710"/>
<path d="M298.245 120.843C297.116 120.843 296.2 119.925 296.2 118.792C296.2 117.659 297.116 116.74 298.245 116.74C299.374 116.74 300.289 117.659 300.289 118.792C300.289 119.925 299.374 120.843 298.245 120.843Z" fill="#2B1710"/>
<path d="M297.873 118.885C297.873 115.061 300.104 112.357 306.794 113.103C313.578 113.849 312.835 121.31 311.998 124.946C311.255 128.49 309.025 131.101 309.025 131.101L297.873 118.885Z" fill="#2B1710"/>
<path d="M301.59 116.087C300.01 115.435 298.244 116.46 297.965 118.232C297.687 120.004 297.872 122.335 297.965 124.667C298.244 129.516 297.78 132.78 301.961 133.526C301.961 135.298 301.868 135.857 300.196 135.857C299.917 138.375 308.931 138.935 311.719 136.137C309.117 134.738 309.86 127.651 309.86 127.651L310.139 124.853C308.745 125.786 308.095 124.107 308.373 123.081C308.559 122.056 308.838 119.631 308.838 119.631C306.329 119.351 306.422 114.875 306.422 114.875C305.214 117.673 302.24 116.367 301.59 116.087Z" fill="white"/>
<path d="M299.546 123.921C299.238 123.921 298.988 123.42 298.988 122.802C298.988 122.184 299.238 121.683 299.546 121.683C299.854 121.683 300.104 122.184 300.104 122.802C300.104 123.42 299.854 123.921 299.546 123.921Z" fill="#2B1710"/>
<path d="M313.113 125.972C313.113 126.998 312.277 127.744 311.348 127.744C310.325 127.744 309.582 126.905 309.582 125.972C309.582 124.946 310.418 124.2 311.348 124.2C312.277 124.107 313.113 124.946 313.113 125.972Z" fill="white"/>
<path d="M310.975 126.905C310.975 126.905 310.882 126.905 310.882 126.812C310.882 126.719 310.882 126.719 310.975 126.625C311.161 126.532 311.254 126.439 311.254 126.346C311.254 126.252 311.161 126.066 311.068 125.973C310.975 125.879 310.789 125.879 310.604 125.973H310.511L310.418 125.879C310.418 125.413 310.696 125.133 311.161 124.947C311.626 124.76 312.09 124.947 312.369 125.32C312.369 125.413 312.369 125.413 312.369 125.506C312.276 125.506 312.276 125.506 312.183 125.506C311.905 125.133 311.533 125.133 311.254 125.226C311.068 125.32 310.789 125.506 310.696 125.786C310.882 125.786 310.975 125.786 311.161 125.879C311.347 125.973 311.44 126.252 311.44 126.439C311.347 126.532 311.254 126.719 310.975 126.905Z" fill="white"/>
<path d="M304.75 122.988C304.75 123.548 304.471 124.107 304.192 124.107C303.914 124.107 303.635 123.641 303.635 122.988C303.635 122.429 303.914 121.869 304.192 121.869C304.471 121.869 304.75 122.335 304.75 122.988Z" fill="#2B1710"/>
<path d="M304.1 124.574C304.007 124.574 304.007 124.574 304.1 124.574C304.007 124.574 303.914 124.48 303.914 124.48C303.914 124.387 304.007 124.387 304.007 124.387C304.564 124.387 305.029 124.014 305.029 123.455C305.029 123.361 305.122 123.361 305.122 123.361C305.215 123.361 305.215 123.455 305.215 123.455C305.215 124.107 304.657 124.574 304.1 124.574Z" fill="white"/>
<path d="M298.059 120.47C297.966 120.377 297.966 120.283 297.966 120.283C298.988 119.724 300.196 119.817 300.661 120.097C300.754 120.097 300.754 120.19 300.754 120.19C300.754 120.283 300.661 120.283 300.661 120.283C300.196 120.004 299.081 119.91 298.059 120.47C298.059 120.47 298.152 120.47 298.059 120.47Z" fill="#2B1710"/>
<path d="M306.329 120.657C306.236 120.657 306.236 120.657 306.329 120.657C305.493 120.19 304.099 119.817 302.798 120.284C302.705 120.284 302.705 120.284 302.705 120.19C302.705 120.097 302.705 120.097 302.798 120.097C304.192 119.631 305.586 119.911 306.422 120.47C306.422 120.564 306.422 120.564 306.329 120.657Z" fill="#2B1710"/>
<path d="M300.567 126.066C299.917 126.066 298.244 125.972 298.058 125.879C298.058 125.879 298.058 125.786 297.965 125.786C297.965 125.599 298.244 125.319 299.174 124.294C299.731 123.641 300.567 122.895 300.567 122.708C300.753 122.149 300.66 121.496 300.475 120.75C300.475 120.657 300.475 120.657 300.567 120.657C300.66 120.657 300.66 120.657 300.66 120.75C300.939 121.496 300.939 122.242 300.753 122.802C300.66 123.081 300.103 123.641 299.266 124.48C298.802 124.946 298.244 125.506 298.151 125.786C298.43 125.879 299.452 125.879 300.475 125.972C300.567 125.972 300.567 126.066 300.567 126.066C300.66 126.066 300.66 126.066 300.567 126.066Z" fill="#2B1710"/>
<path d="M303.448 133.526H303.355C303.262 133.526 303.262 133.433 303.262 133.433C303.262 133.339 303.262 133.339 303.355 133.339C305.493 133.433 308.373 131.381 309.117 128.677C309.117 128.583 309.21 128.583 309.21 128.583C309.303 128.583 309.303 128.677 309.303 128.677C308.559 131.474 305.586 133.526 303.448 133.526Z" fill="white"/>
<path d="M308.561 126.065C308.468 126.065 308.282 126.065 308.189 125.879C308.189 125.879 308.096 125.786 308.189 125.692C308.189 125.692 308.282 125.599 308.375 125.692C308.654 125.879 308.84 125.786 308.932 125.692C308.932 125.786 308.932 125.692 308.932 125.599C308.932 125.599 308.932 125.599 308.84 125.599C308.375 125.506 308.096 125.133 308.096 124.48C308.096 124.387 308.096 124.387 308.189 124.387C308.282 124.387 308.282 124.387 308.282 124.48C308.282 125.226 308.561 125.319 308.84 125.413C309.025 125.413 309.025 125.506 309.025 125.599C309.025 125.692 308.932 125.879 308.747 125.972C308.84 126.065 308.747 126.065 308.561 126.065Z" fill="#2B1710"/>
<path d="M303.356 125.879C303.077 126.345 302.798 126.625 302.706 126.532C302.613 126.439 302.798 126.066 303.077 125.693C303.356 125.226 303.635 124.947 303.728 125.04C303.821 125.04 303.635 125.413 303.356 125.879Z" fill="white"/>
<path d="M304.286 125.879C304.007 126.345 303.728 126.625 303.635 126.532C303.542 126.439 303.728 126.066 304.007 125.693C304.286 125.226 304.565 124.947 304.657 125.04C304.75 125.133 304.565 125.506 304.286 125.879Z" fill="white"/>
<path d="M305.122 125.879C304.843 126.345 304.564 126.625 304.471 126.532C304.378 126.439 304.564 126.066 304.843 125.693C305.122 125.226 305.401 124.947 305.493 125.04C305.679 125.04 305.493 125.413 305.122 125.879Z" fill="white"/>
<path d="M299.173 127.185C299.452 128.117 299.824 128.863 299.731 129.423C299.638 129.982 299.545 130.822 300.753 130.822C301.961 130.915 303.727 128.77 304.191 127.464C302.519 127.744 301.032 127.744 300.939 127.744C300.939 127.837 299.173 127.185 299.173 127.185Z" fill="#531710"/>
<path d="M304.191 127.558C303.541 127.651 302.89 127.744 302.426 127.744L301.589 128.024C301.589 128.024 300.01 128.863 300.103 130.635C300.288 130.728 300.474 130.822 300.846 130.822C301.961 130.915 303.727 128.77 304.191 127.558Z" fill="#6C1710"/>
<path d="M299.174 127.185C299.825 128.677 301.869 128.77 304.1 127.558C301.962 127.651 300.382 127.744 299.174 127.185Z" fill="white"/>
<path d="M302.519 127.744C301.311 127.744 299.731 127.558 298.616 126.998C298.616 126.998 298.523 126.905 298.616 126.905C298.616 126.905 298.709 126.811 298.709 126.905C300.66 128.024 304.47 127.558 304.563 127.558C304.563 127.558 304.656 127.558 304.656 127.651C304.656 127.651 304.656 127.744 304.563 127.744C304.47 127.651 303.634 127.744 302.519 127.744Z" fill="#2B1710"/>
<path d="M301.126 131.661C300.662 131.661 300.011 131.568 299.454 131.195C299.454 131.195 299.361 131.102 299.454 131.102C299.454 131.102 299.546 131.008 299.546 131.102C300.755 131.941 302.056 131.475 302.056 131.475C302.056 131.475 302.148 131.475 302.148 131.568C302.148 131.568 302.148 131.661 302.056 131.661C302.056 131.568 301.591 131.661 301.126 131.661Z" fill="white"/>
<path d="M7 59.7436C7 33.7526 28.6107 12.8109 54.758 14.0525C78.3483 15.1286 97.402 34.6631 98.1444 58.4192C98.5568 72.6562 92.453 85.4862 82.6375 94.1774C72.2445 103.283 66.0583 110.567 66.0583 124.39V125.549H39.0036V124.969C39.0036 111.146 33.2298 103.531 22.8368 94.5085C13.1038 86.0656 7 73.6495 7 59.7436Z" fill="#FF5D5D"/>
<path d="M52.5333 145.58C58.802 145.58 63.916 140.448 63.916 134.157V129.19H41.1505V134.157C41.1505 140.448 46.2645 145.58 52.5333 145.58Z" fill="#FF5D5D"/>
<path d="M63.7518 121.244C64.1642 121.244 64.4941 120.913 64.4941 120.499V66.8622C64.4941 66.4483 64.1642 66.1172 63.7518 66.1172C63.3394 66.1172 63.0094 66.4483 63.0094 66.8622V120.499C63.0919 120.913 63.4219 121.244 63.7518 121.244Z" fill="#FFBACE"/>
<path d="M43.869 121.244C44.2814 121.244 44.6113 120.913 44.6113 120.499V66.8622C44.6113 66.4483 44.2814 66.1172 43.869 66.1172C43.4566 66.1172 43.1266 66.4483 43.1266 66.8622V120.499C43.1266 120.913 43.4566 121.244 43.869 121.244Z" fill="#FFBACE"/>
<path d="M34.9635 72.6567C35.0459 72.6567 35.1284 72.6567 35.2109 72.5739L38.4278 69.3457C39.0876 68.6836 40.0774 68.2697 40.9848 68.2697C41.8921 68.2697 42.8819 68.6836 43.5418 69.3457L44.2841 70.0907C46.0163 71.829 48.7382 71.829 50.4704 70.0907L50.8003 69.7596C52.2025 68.3525 54.5946 68.3525 55.9968 69.7596C57.7289 71.4979 60.4509 71.4979 62.1831 69.7596C63.5853 68.3525 65.9773 68.3525 67.3795 69.7596L69.854 72.2428C70.019 72.4084 70.184 72.4084 70.3489 72.2428C70.5139 72.0773 70.5139 71.9117 70.3489 71.7462L67.8744 69.263C66.1423 67.5247 63.4203 67.5247 61.6882 69.263C60.2859 70.6701 57.8939 70.6701 56.4917 69.263C54.7595 67.5247 52.0376 67.5247 50.3054 69.263L49.9755 69.5941C48.5733 71.0012 46.1812 71.0012 44.779 69.5941L44.0367 68.8491C42.3045 67.1108 39.5825 67.1108 37.8504 68.8491L34.6335 72.0773C34.4686 72.2428 34.4686 72.4084 34.6335 72.5739C34.716 72.5739 34.7985 72.6567 34.9635 72.6567Z" fill="#FFBACE"/>
<path d="M40.8204 134.075H64.2457C66.2253 134.075 67.875 132.419 67.875 130.432V121.245C67.875 119.258 66.2253 117.603 64.2457 117.603H40.8204C38.8408 117.603 37.1911 119.258 37.1911 121.245V130.432C37.2736 132.502 38.8408 134.075 40.8204 134.075Z" fill="#FFBACE"/>
</svg>
