<svg width="356" height="356" viewBox="0 0 356 356" fill="none" xmlns="http://www.w3.org/2000/svg">
<path d="M341.492 210.777H256.492V316.777H341.492V210.777Z" fill="#FF5D5D"/>
<path d="M341.492 210.777H322.234V316.777H341.492V210.777Z" fill="#E05050"/>
<path d="M337.375 218.782H326.352V258.007H337.375V218.782Z" fill="#FF5D5D"/>
<path d="M332.129 310.907C335.43 310.907 338.105 306.994 338.105 302.168C338.105 297.342 335.43 293.429 332.129 293.429C328.828 293.429 326.152 297.342 326.152 302.168C326.152 306.994 328.828 310.907 332.129 310.907Z" fill="#FF5D5D"/>
<path d="M32.5522 260.557C35.7255 260.757 37.3122 261.897 37.3122 263.977C37.3122 264.831 37.0389 265.551 36.4922 266.137C35.9589 266.724 35.2789 267.144 34.4522 267.397C33.6389 267.651 32.7189 267.777 31.6922 267.777H24.9322V253.777H31.4922C32.5055 253.777 33.3922 253.884 34.1522 254.097C34.9122 254.297 35.5455 254.671 36.0522 255.217C36.5722 255.764 36.8322 256.471 36.8322 257.337C36.8322 258.351 36.4855 259.117 35.7922 259.637C35.0989 260.157 34.0189 260.464 32.5522 260.557ZM28.6922 256.677V259.277H31.0522C32.3989 259.277 33.0722 258.844 33.0722 257.977C33.0722 257.111 32.4189 256.677 31.1122 256.677H28.6922ZM31.3522 264.877C32.8189 264.877 33.5522 264.404 33.5522 263.457C33.5522 262.511 32.8722 262.037 31.5122 262.037H28.6922V264.877H31.3522ZM39.3463 267.777V253.777H43.1063V267.777H39.3463Z" fill="black"/>
<path d="M280.905 226.985H34.7911C29.9144 226.985 26 223.069 26 218.188V52.797C26 47.9158 29.9144 44 34.7911 44H280.905C285.781 44 289.696 47.9158 289.696 52.797V218.188C289.696 223.069 285.781 226.985 280.905 226.985Z" stroke="black" stroke-width="2"/>
<path d="M57.4278 111.713C57.1726 111.713 56.9174 111.628 56.7473 111.458C56.4071 111.117 56.4071 110.437 56.7473 110.097L71.5464 95.2127C71.7165 95.0426 71.9717 94.9575 72.2269 94.9575H86.0904C86.6007 94.9575 87.026 95.3828 87.026 95.8931C87.026 96.4034 86.6007 96.8287 86.0904 96.8287H72.6521L58.1082 111.373C57.9381 111.628 57.6829 111.713 57.4278 111.713Z" fill="#2A72FF"/>
<path d="M165.104 77.7769H94.7656V94.5322H165.104V77.7769Z" fill="#FF5D5D"/>
<path d="M57.4278 151.602C57.1726 151.602 56.9174 151.517 56.7473 151.347C56.4071 151.007 56.4071 150.327 56.7473 149.986L71.5464 135.102C71.7165 134.932 71.9717 134.847 72.2269 134.847H86.0904C86.6007 134.847 87.026 135.272 87.026 135.783C87.026 136.293 86.6007 136.718 86.0904 136.718H72.6521L58.1082 151.262C57.9381 151.517 57.6829 151.602 57.4278 151.602Z" fill="#2A72FF"/>
<path d="M165.104 117.666H94.7656V134.421H165.104V117.666Z" fill="#FF5D5D"/>
<path d="M57.4278 191.577C57.1726 191.577 56.9174 191.492 56.7473 191.321C56.4071 190.981 56.4071 190.301 56.7473 189.961L71.6315 175.076C71.8016 174.906 72.0568 174.821 72.3119 174.821H86.1754C86.6858 174.821 87.111 175.247 87.111 175.757C87.111 176.267 86.6858 176.692 86.1754 176.692H72.7372L58.1932 191.236C57.9381 191.406 57.6829 191.577 57.4278 191.577Z" fill="#2A72FF"/>
<path d="M165.104 157.556H94.7656V174.311H165.104V157.556Z" fill="#FF5D5D"/>
<path d="M315.331 167.821H315.447C316.605 167.358 317.3 166.664 317.532 165.738C317.996 164.233 316.837 162.381 315.91 160.876C315.215 159.719 314.404 158.561 314.752 157.982C315.215 157.056 315.215 155.667 314.752 154.278C314.057 152.426 312.55 150.806 310.697 149.995C307.453 148.606 306.178 145.597 306.989 143.629C307.684 141.546 307.916 137.031 303.514 134.948C299.343 132.864 296.91 129.391 296.215 124.53C296.215 124.414 295.983 124.298 295.867 124.298L273.16 125.456C273.044 125.456 272.928 125.456 272.928 125.572C272.928 125.687 272.812 125.803 272.928 125.803C273.739 129.276 272.928 132.285 270.495 133.906C267.946 135.526 266.324 139.809 268.062 142.935C269.452 145.597 268.062 147.565 264.702 150.806C262.501 152.889 262.153 157.288 262.964 160.297C263.428 162.15 264.355 163.307 265.397 163.539C265.629 163.539 265.745 163.423 265.745 163.307C265.745 163.076 265.629 162.96 265.513 162.96C264.702 162.728 264.007 161.687 263.544 160.182C262.733 157.288 263.08 153.237 265.05 151.385C268.178 148.491 270.379 146.06 268.641 142.703C267.135 139.925 268.641 135.989 270.842 134.485C273.391 132.748 274.434 129.739 273.623 126.15L295.751 124.993C296.562 129.854 299.111 133.443 303.398 135.526C307.337 137.494 307.221 141.546 306.526 143.513C305.715 145.828 306.873 149.185 310.581 150.69C312.319 151.385 313.709 152.889 314.288 154.51C314.752 155.667 314.752 156.825 314.288 157.635C313.825 158.561 314.636 159.719 315.563 161.108C316.489 162.497 317.532 164.117 317.185 165.391C316.953 166.085 316.374 166.548 315.447 167.011C315.331 167.127 315.215 167.243 315.331 167.474C315.099 167.706 315.215 167.821 315.331 167.821Z" fill="#2B1710"/>
<path d="M267.133 151.501C270.03 147.797 271.072 146.871 270.03 143.977C268.987 141.083 268.523 138.421 271.767 135.295C275.011 132.17 273.969 129.623 273.273 127.077L290.768 119.09C294.475 119.669 296.56 122.91 296.56 127.077C296.56 131.244 297.371 134.138 300.847 135.99C304.439 137.842 305.481 141.662 304.554 144.671C303.512 147.681 306.756 150.69 309.189 151.964C311.737 153.237 312.896 156.362 312.085 158.793C311.274 161.224 314.981 161.455 314.981 164.696C314.981 167.938 308.957 167.359 308.957 167.359C304.786 168.864 265.627 164.349 264.7 161.455C263.773 158.562 264.237 155.089 267.133 151.501Z" fill="#2B1710"/>
<path d="M218.706 307.998C217.779 306.146 216.852 302.789 217.084 297.812C217.316 295.96 217.663 293.645 218.011 290.983C218.243 289.709 218.359 288.204 218.59 286.815L209.785 289.13C209.901 290.751 210.133 292.256 210.249 293.529C210.48 296.423 210.48 299.317 209.901 302.211C209.785 303.021 209.554 303.831 209.322 304.178C208.627 305.567 203.529 310.545 201.212 314.712C200.98 315.175 195.767 316.101 196.578 317.258C197.041 317.49 206.194 318.184 207.236 317.258C208.279 316.217 210.712 313.786 213.377 313.323C213.493 313.323 213.493 317.721 213.493 317.721H217.432C217.432 317.721 217.895 313.786 218.011 312.628C218.359 311.702 219.633 309.85 218.706 307.998Z" fill="white"/>
<path d="M201.211 314.943C202.833 315.175 204.687 315.522 205.266 315.175C206.077 314.827 211.754 307.767 218.01 306.03C218.242 306.841 218.474 307.419 218.705 307.882C219.632 309.734 218.242 311.471 218.126 312.628C217.894 313.786 217.547 317.721 217.547 317.721H213.608C213.608 317.721 213.608 313.323 213.492 313.323C210.711 313.901 208.278 316.332 207.351 317.258C206.309 318.3 197.156 317.49 196.693 317.258C195.766 316.332 200.748 315.522 201.211 314.943Z" fill="#2B1710"/>
<path d="M282.658 189.12L275.127 190.625C275.127 190.625 260.761 199.769 245.931 204.863C242.108 206.136 219.748 217.943 211.87 232.412C203.876 246.881 200.053 300.59 200.053 300.59H221.718C221.718 300.59 231.218 250.238 234.346 242.714C237.474 235.19 270.493 233.685 275.706 220.952L286.017 211.923L282.658 189.12Z" fill="#1A2B70"/>
<path d="M201.211 296.075C201.095 296.075 200.863 295.96 200.863 295.728C200.863 295.612 200.979 295.381 201.211 295.381L221.254 295.265C221.37 295.265 221.601 295.381 221.601 295.612C221.601 295.728 221.486 295.96 221.254 295.96L201.211 296.075Z" fill="#D4D4D4"/>
<path d="M273.621 147.333C264.237 151.501 254.158 170.253 249.292 176.272C244.542 182.291 234.926 185.648 234.926 185.648C234.926 185.648 249.292 192.014 252.652 192.246C268.871 185.879 275.359 170.253 275.359 170.253L273.621 147.333Z" fill="#3D6AD9"/>
<path d="M245.931 307.998C245.004 306.146 244.077 302.789 244.309 297.812C244.54 295.96 244.888 293.645 245.236 290.983C245.467 289.709 245.583 288.204 245.815 286.815L237.01 289.13C237.126 290.751 237.357 292.256 237.473 293.529C237.705 296.423 237.705 299.317 237.126 302.211C237.01 303.021 236.778 303.831 236.546 304.178C235.851 305.567 230.754 310.545 228.437 314.712C228.205 315.175 222.991 316.101 223.802 317.258C224.266 317.49 233.418 318.184 234.461 317.258C235.504 316.217 237.937 313.786 240.601 313.323C240.717 313.323 240.717 317.721 240.717 317.721H244.656C244.656 317.721 245.12 313.786 245.236 312.628C245.467 311.702 246.858 309.85 245.931 307.998Z" fill="white"/>
<path d="M228.321 314.943C229.943 315.175 231.796 315.522 232.375 315.175C233.186 314.827 238.863 307.767 245.12 306.03C245.351 306.841 245.583 307.419 245.815 307.882C246.742 309.734 245.351 311.471 245.235 312.628C245.004 313.786 244.656 317.721 244.656 317.721H240.717C240.717 317.721 240.717 313.323 240.601 313.323C237.821 313.901 235.388 316.332 234.461 317.258C233.418 318.3 224.266 317.49 223.802 317.258C222.875 316.332 227.857 315.522 228.321 314.943Z" fill="#2B1710"/>
<mask id="path-22-inside-1_118_4762" fill="white">
<path d="M279.182 146.407L273.621 147.217C272.925 154.857 266.09 163.076 265.742 167.243C265.395 171.41 270.84 177.776 273.041 181.712C275.243 185.647 275.243 189.236 275.243 189.236H298.529C298.529 188.194 304.091 162.15 303.395 155.783C302.7 149.417 294.475 146.986 294.475 146.986C294.475 146.986 286.133 147.565 279.182 146.407Z"/>
</mask>
<path d="M279.182 146.407L293.965 57.6297L280.107 55.3221L266.205 57.3476L279.182 146.407ZM273.621 147.217L260.644 58.1579L190.421 68.3896L183.991 139.062L273.621 147.217ZM275.243 189.236L185.243 189.236L185.243 279.236H275.243V189.236ZM298.529 189.236V279.236H388.529V189.236H298.529ZM294.475 146.986L319.98 60.6758L304.426 56.0792L288.245 57.2018L294.475 146.986ZM266.205 57.3476L260.644 58.1579L286.597 236.277L292.158 235.467L266.205 57.3476ZM183.991 139.062C184.846 129.66 187.248 122.975 188.284 120.315C189.364 117.542 190.268 115.924 189.733 116.951C189.634 117.141 189.509 117.377 189.295 117.782C189.118 118.117 188.801 118.716 188.501 119.288C187.929 120.379 186.856 122.437 185.717 124.836C184.623 127.141 182.83 131.085 181.125 135.997C179.538 140.57 176.952 148.991 176.054 159.762L355.431 174.723C354.62 184.453 352.323 191.705 351.179 195.002C349.918 198.637 348.721 201.195 348.327 202.024C347.889 202.947 347.621 203.439 347.908 202.892C348.037 202.644 348.164 202.406 348.438 201.887C348.675 201.439 349.009 200.806 349.37 200.114C350.674 197.61 353.439 192.245 356.007 185.652C358.531 179.173 362.047 168.595 363.25 155.373L183.991 139.062ZM176.054 159.762C174.306 180.72 180.007 196.965 182.824 204.033C186.043 212.108 189.727 218.366 191.659 221.525C193.656 224.79 195.755 227.876 196.162 228.484C197.364 230.277 196.021 228.377 194.493 225.645L351.59 137.778C348.961 133.079 346.112 128.907 345.685 128.269C344.463 126.446 344.809 126.943 345.213 127.603C345.552 128.158 347.803 131.797 350.03 137.383C351.213 140.351 352.808 144.895 354.005 150.693C355.195 156.454 356.263 164.747 355.431 174.723L176.054 159.762ZM194.493 225.645C189.973 217.565 187.796 210.055 186.683 204.438C186.108 201.537 185.756 198.829 185.543 196.364C185.435 195.121 185.36 193.908 185.312 192.728C185.288 192.137 185.271 191.551 185.26 190.97C185.254 190.679 185.25 190.389 185.247 190.1C185.245 189.956 185.244 189.812 185.244 189.668C185.243 189.596 185.243 189.524 185.243 189.452C185.243 189.416 185.243 189.38 185.243 189.344C185.243 189.326 185.243 189.299 185.243 189.29C185.243 189.263 185.243 189.236 275.243 189.236C365.243 189.236 365.243 189.209 365.243 189.182C365.243 189.173 365.243 189.146 365.243 189.128C365.242 189.091 365.242 189.055 365.242 189.019C365.242 188.946 365.242 188.872 365.242 188.799C365.241 188.651 365.24 188.502 365.238 188.35C365.235 188.048 365.231 187.737 365.225 187.419C365.212 186.784 365.192 186.117 365.164 185.42C365.108 184.028 365.016 182.504 364.874 180.863C364.592 177.603 364.102 173.751 363.252 169.461C361.589 161.066 358.311 149.794 351.59 137.778L194.493 225.645ZM275.243 279.236H298.529V99.2358H275.243V279.236ZM388.529 189.236C388.529 193.403 388.229 196.636 388.136 197.619C388.002 199.041 387.861 200.165 387.78 200.776C387.62 202 387.472 202.914 387.426 203.198C387.321 203.845 387.252 204.208 387.3 203.947C387.38 203.506 387.521 202.762 387.807 201.259C388.315 198.584 389.098 194.462 389.872 190.042C390.619 185.781 391.531 180.274 392.219 174.829C392.561 172.123 392.953 168.615 393.199 164.81C393.379 162.016 393.812 154.697 392.864 146.014L213.927 165.552C213.479 161.451 213.449 158.293 213.456 156.773C213.464 155.064 213.534 153.811 213.573 153.201C213.648 152.043 213.72 151.623 213.638 152.27C213.479 153.532 213.131 155.794 212.574 158.97C212.045 161.988 211.481 164.97 210.968 167.67C210.743 168.855 210.455 170.367 210.235 171.574C210.132 172.137 209.944 173.173 209.758 174.319C209.671 174.853 209.492 175.973 209.31 177.357C209.22 178.047 209.071 179.24 208.931 180.719C208.833 181.758 208.529 185.036 208.529 189.236H388.529ZM392.864 146.014C388.215 103.436 359.219 81.0642 347.978 73.7037C341.102 69.201 334.86 66.261 330.524 64.4458C328.245 63.4921 326.196 62.7257 324.462 62.121C323.588 61.8161 322.774 61.5455 322.029 61.3069C321.656 61.1873 321.298 61.0752 320.957 60.9703C320.786 60.9178 320.619 60.867 320.457 60.818C320.375 60.7934 320.295 60.7693 320.216 60.7456C320.176 60.7338 320.136 60.722 320.097 60.7104C320.078 60.7046 320.048 60.6959 320.039 60.693C320.009 60.6844 319.98 60.6758 294.475 146.986C268.969 233.296 268.94 233.288 268.911 233.279C268.901 233.276 268.872 233.268 268.853 233.262C268.814 233.25 268.775 233.239 268.737 233.227C268.659 233.204 268.582 233.181 268.504 233.158C268.35 233.111 268.195 233.064 268.04 233.016C267.729 232.921 267.418 232.823 267.105 232.723C266.481 232.523 265.845 232.311 265.197 232.085C263.915 231.638 262.514 231.111 261.018 230.485C258.245 229.324 254.103 227.39 249.37 224.291C242.417 219.737 217.881 201.764 213.927 165.552L392.864 146.014ZM294.475 146.986C288.245 57.2018 288.254 57.2012 288.262 57.2007C288.265 57.2005 288.273 57.1999 288.279 57.1995C288.29 57.1987 288.301 57.1979 288.312 57.1972C288.335 57.1957 288.356 57.1942 288.378 57.1928C288.42 57.1899 288.461 57.1871 288.501 57.1845C288.58 57.1793 288.653 57.1746 288.72 57.1703C288.854 57.1619 288.966 57.1552 289.059 57.15C289.242 57.1398 289.354 57.1348 289.41 57.1325C289.498 57.1289 289.477 57.1307 289.435 57.1307C288.598 57.1307 290.386 57.0337 293.965 57.6297L264.398 235.185C274.929 236.938 284.363 237.131 289.435 237.131C292.348 237.131 294.846 237.06 296.715 236.984C297.662 236.946 298.48 236.905 299.146 236.867C299.48 236.848 299.779 236.83 300.039 236.814C300.169 236.806 300.289 236.798 300.4 236.791C300.456 236.787 300.509 236.783 300.559 236.78C300.585 236.778 300.61 236.777 300.634 236.775C300.646 236.774 300.658 236.773 300.669 236.773C300.675 236.772 300.684 236.772 300.687 236.771C300.695 236.771 300.704 236.77 294.475 146.986Z" fill="url(#paint0_linear_118_4762)" mask="url(#path-22-inside-1_118_4762)"/>
<path d="M297.836 190.741C297.836 190.741 308.147 208.22 302.818 220.952C297.488 233.685 264.469 235.306 261.457 242.714C258.329 250.238 248.829 300.59 248.829 300.59H227.164C227.164 300.59 231.103 246.881 238.981 232.412C246.975 217.943 269.799 207.178 273.043 204.863C276.287 202.548 279.531 189.931 279.531 189.931L297.836 190.741Z" fill="#203489"/>
<path d="M298.878 188.657H274.549V190.857H298.878V188.657Z" fill="#2B1710"/>
<path d="M288.104 187.847H286.945V191.319H288.104V187.847Z" fill="#203489"/>
<path d="M296.328 187.847H295.17V191.319H296.328V187.847Z" fill="#203489"/>
<path d="M295.749 207.062C290.304 205.788 287.64 199.885 288.914 192.245C288.914 192.129 289.146 192.014 289.261 192.014C289.377 192.014 289.493 192.245 289.493 192.361C288.335 199.769 290.768 205.325 295.865 206.483C295.981 206.483 296.097 206.714 296.097 206.83C296.097 206.946 295.981 207.062 295.749 207.062Z" fill="#D4D4D4"/>
<path d="M242.687 294.918C242.456 294.918 242.34 294.687 242.34 294.571C242.687 292.603 251.377 246.649 255.895 237.736C258.791 231.833 270.609 228.824 280.109 226.393C285.554 225.004 290.304 223.73 292.273 222.341C298.066 218.29 297.371 204.168 294.822 192.477C294.822 192.361 294.938 192.13 295.054 192.13C295.17 192.13 295.402 192.246 295.402 192.361C298.066 204.284 298.761 218.522 292.621 222.804C290.536 224.309 285.67 225.582 280.225 226.971C270.84 229.402 259.255 232.296 256.474 237.968C252.072 246.881 243.035 294.224 242.919 294.687C243.035 294.803 242.803 294.918 242.687 294.918Z" fill="#D4D4D4"/>
<path d="M228.437 296.075C228.322 296.075 228.09 295.96 228.09 295.728C228.09 295.612 228.206 295.381 228.437 295.381L248.48 295.265C248.596 295.265 248.828 295.381 248.828 295.612C248.828 295.728 248.712 295.96 248.48 295.96L228.437 296.075Z" fill="#D4D4D4"/>
<path d="M313.591 174.419C313.591 174.419 316.951 185.416 316.72 195.023C316.488 204.747 312.085 217.942 312.085 219.447C311.854 223.499 308.61 225.582 306.177 225.235C303.744 224.888 302.238 224.656 301.89 225.235C301.542 226.045 299.921 227.434 299.225 227.203C298.299 227.781 297.719 227.434 297.719 227.434C297.024 227.897 296.445 227.203 296.445 227.203C296.445 227.203 296.445 225.119 296.677 224.772C296.908 224.425 297.372 223.036 297.372 223.036C297.372 223.036 296.329 223.962 296.213 224.54C296.213 225.003 296.329 226.624 295.634 226.855C295.17 225.351 295.286 224.077 295.286 223.383C295.286 222.688 296.908 220.142 298.299 219.91C299.689 219.679 305.134 219.795 305.597 219.216C305.945 218.753 304.323 194.329 303.86 192.014C303.396 189.699 298.878 176.734 298.878 176.734L313.591 174.419Z" fill="white"/>
<path d="M297.719 222.573C297.719 222.573 297.719 222.457 297.719 222.573L298.646 221.647C298.646 221.531 298.646 221.531 298.646 221.415C298.646 221.299 298.53 221.415 298.414 221.415L297.603 222.341C297.488 222.341 297.488 222.457 297.719 222.573C297.603 222.573 297.603 222.457 297.719 222.573Z" fill="#E0B3A8"/>
<path d="M297.952 226.74C297.952 226.74 298.3 224.888 298.3 224.656C298.3 224.541 298.879 223.614 299.459 222.92C299.459 222.804 299.459 222.804 299.459 222.688C299.343 222.688 299.343 222.688 299.227 222.688C298.879 223.151 298.068 224.309 298.068 224.541C298.068 224.772 297.721 226.624 297.721 226.624L297.952 226.74Z" fill="#E0B3A8"/>
<path d="M299.343 226.624C299.459 226.624 299.459 226.624 299.459 226.508C299.459 226.508 299.806 225.351 299.922 225.235C299.922 225.119 300.617 224.425 301.081 223.73C301.081 223.614 301.081 223.614 301.081 223.499C300.965 223.499 300.965 223.499 300.849 223.499C300.617 223.846 299.691 224.888 299.575 225.119C299.459 225.351 299.111 226.392 299.111 226.392C299.111 226.508 299.227 226.624 299.343 226.624C299.343 226.624 299.227 226.624 299.343 226.624Z" fill="#E0B3A8"/>
<path d="M300.153 149.996C292.623 155.32 293.666 166.78 297.373 175.924C301.08 185.069 304.093 194.329 304.093 212.039C311.276 213.428 314.172 212.502 314.172 212.502C314.172 212.502 319.733 196.412 316.489 180.554C313.245 164.696 306.294 149.996 300.153 149.996Z" fill="#3D6AD9"/>
<path d="M222.529 182.522H264.121L271.42 213.196H229.712L222.529 182.522Z" fill="#DBE5FF"/>
<path d="M220.676 182.522H262.384L269.567 213.196H227.859L220.676 182.522Z" fill="#ACBFF0"/>
<path d="M245.468 200.116H248.827V199.653C248.827 197.338 246.974 195.486 244.657 195.486H241.297V195.949C241.297 198.264 243.151 200.116 245.468 200.116Z" fill="#DBE5FF"/>
<path d="M285.786 213.196H228.09V215.974H285.786V213.196Z" fill="#ACBFF0"/>
<path d="M221.255 199.422C218.243 197.223 216.969 189.583 222.066 187.962C222.298 188.194 222.53 190.162 222.53 190.162C222.53 190.162 230.176 190.856 230.408 193.171C231.566 194.445 230.292 195.718 230.292 195.718C230.408 197.107 227.164 197.917 227.164 197.917C227.164 197.917 229.134 197.57 229.134 198.496C229.018 199.538 223.572 200.348 221.255 199.422Z" fill="white"/>
<path d="M228.091 193.982C226.353 193.982 223.804 193.75 222.066 192.824V192.708H222.182C224.963 194.213 229.829 193.75 229.945 193.75C229.945 193.75 230.06 193.75 230.06 193.866C230.06 193.866 230.06 193.982 229.945 193.982C229.713 193.866 229.018 193.982 228.091 193.982Z" fill="#E0B3A8"/>
<path d="M224.036 196.76C223.92 196.76 223.92 196.76 224.036 196.76C223.92 196.644 223.92 196.644 224.036 196.644C224.036 196.644 226.932 196.644 229.945 195.718H230.061V195.834C227.164 196.76 224.384 196.76 224.036 196.76Z" fill="#E0B3A8"/>
<path d="M225.195 198.38C225.079 198.38 224.964 198.38 224.964 198.38C224.964 198.38 224.848 198.38 224.848 198.265C224.848 198.265 224.848 198.149 224.964 198.149C224.964 198.149 225.774 198.265 226.817 197.917C226.817 197.917 226.933 197.917 226.933 198.033C226.933 198.149 226.933 198.149 226.817 198.149C226.122 198.265 225.543 198.38 225.195 198.38Z" fill="#E0B3A8"/>
<path d="M287.524 138.536C293.085 139.462 296.329 134.369 294.707 130.202C295.171 121.868 291.579 113.533 279.067 118.048C272.81 118.858 270.377 127.077 275.591 129.276C282.426 135.295 287.524 138.536 287.524 138.536Z" fill="#2B1710"/>
<path d="M282.542 141.777C282.89 144.092 281.383 146.407 279.066 146.523C279.182 157.057 295.054 148.722 295.054 147.218C295.054 146.986 292.274 146.407 291.231 144.555C290.188 142.703 289.725 138.189 290.073 132.054C287.64 132.633 286.829 130.665 286.829 127.424C286.829 124.183 285.207 118.974 278.835 119.784C276.402 122.678 275.127 124.53 275.359 128.35C275.591 132.17 275.127 134.832 275.591 136.684C276.054 138.536 278.024 141.777 282.542 141.777Z" fill="white"/>
<path d="M293.201 133.211C293.201 134.253 292.274 135.179 291.231 135.179C290.189 135.179 289.262 134.253 289.262 133.211C289.262 132.17 290.189 131.244 291.231 131.244C292.39 131.359 293.201 132.17 293.201 133.211Z" fill="white"/>
<path d="M290.885 134.253C290.885 134.253 290.769 134.253 290.769 134.138C290.769 134.022 290.769 134.022 290.885 134.022C291 133.906 291.116 133.79 291.116 133.675C291.116 133.559 291 133.443 290.885 133.327C290.769 133.212 290.537 133.212 290.421 133.327H290.305L290.189 133.212C290.189 132.749 290.537 132.401 291 132.17C291.464 132.054 292.043 132.17 292.275 132.517C292.275 132.517 292.275 132.633 292.275 132.749C292.275 132.749 292.159 132.749 292.043 132.749C291.811 132.401 291.348 132.401 291 132.401C290.769 132.517 290.537 132.633 290.421 132.98C290.537 132.98 290.769 132.98 290.885 133.096C291.116 133.212 291.232 133.443 291.232 133.675C291.348 133.906 291.232 134.138 290.885 134.253Z" fill="#E0B3A8"/>
<path d="M286.02 127.771C286.136 127.771 286.136 127.656 286.02 127.771C286.136 127.656 286.136 127.54 286.136 127.54C285.093 126.035 282.776 124.877 281.733 126.73C281.733 126.845 281.617 126.845 281.617 126.845C281.617 126.961 281.733 126.961 281.733 126.961C282.544 126.73 284.398 126.73 286.02 127.771C286.02 127.771 286.02 127.656 286.02 127.771Z" fill="#2B1710"/>
<path d="M275.938 127.887C275.938 127.887 275.938 127.771 275.938 127.887C276.054 127.771 276.517 127.192 278.139 127.424C278.255 127.424 278.255 127.424 278.255 127.308C278.255 127.192 278.139 127.192 278.139 127.192C277.212 125.225 275.822 127.655 275.822 127.771C275.706 127.655 275.706 127.771 275.938 127.887C275.822 127.887 275.822 127.887 275.938 127.887Z" fill="#2B1710"/>
<path d="M278.836 134.485C278.952 134.369 278.952 134.253 278.952 134.253C278.257 133.79 277.562 133.096 277.446 132.864C277.562 132.864 277.793 132.864 278.025 132.864C278.489 132.864 278.952 132.864 279.3 132.633C279.995 132.285 279.3 129.391 278.72 128.118C278.72 128.002 278.604 128.002 278.604 128.002C278.489 128.002 278.489 128.118 278.489 128.118C279.184 129.623 279.531 132.054 279.184 132.285C278.952 132.401 278.489 132.401 278.025 132.401C277.562 132.401 277.214 132.401 277.214 132.633C277.098 133.096 277.909 133.906 278.836 134.485C278.72 134.485 278.72 134.485 278.836 134.485Z" fill="#2B1710"/>
<path d="M282.543 130.318C282.543 131.012 282.891 131.707 283.354 131.707C283.817 131.707 284.165 131.128 284.165 130.318C284.165 129.623 283.817 128.929 283.354 128.929C282.891 128.929 282.543 129.507 282.543 130.318Z" fill="#2B1710"/>
<path d="M277.561 131.823C278.009 131.823 278.372 131.201 278.372 130.433C278.372 129.666 278.009 129.044 277.561 129.044C277.113 129.044 276.75 129.666 276.75 130.433C276.75 131.201 277.113 131.823 277.561 131.823Z" fill="#2B1710"/>
<path d="M289.957 135.99C289.957 136.453 290.42 136.916 290.884 136.916C291.347 136.916 291.811 136.453 291.811 135.99C291.811 135.526 291.347 135.063 290.884 135.063C290.42 135.063 289.957 135.411 289.957 135.99Z" fill="white"/>
<path d="M279.761 138.767C280.225 138.767 280.688 138.652 281.036 138.42C281.036 138.42 281.152 138.304 281.036 138.304C281.036 138.304 280.92 138.189 280.92 138.304C280.109 138.883 278.603 138.42 278.487 138.304H278.371V138.42C278.487 138.652 279.182 138.767 279.761 138.767Z" fill="#E0B3A8"/>
<path d="M279.3 136.568C280.458 136.568 281.733 136.452 282.544 135.989C282.544 135.989 282.659 135.874 282.544 135.874C282.544 135.874 282.428 135.758 282.428 135.874C281.037 136.452 278.025 136.452 277.446 136.105H277.33V136.221C277.678 136.452 278.373 136.568 279.3 136.568Z" fill="#2B1710"/>
<path d="M278.836 119.784C279.994 125.919 290.074 126.729 290.074 126.729L288.452 119.205L281.037 118.511L278.836 119.784Z" fill="#2B1710"/>
<path d="M263.195 149.417C263.31 149.417 263.31 149.417 263.195 149.417C263.426 149.301 266.091 148.375 266.67 146.407C266.902 145.597 266.786 144.671 266.207 143.861C264.237 140.736 265.512 135.411 268.872 133.096C272.463 130.665 273.506 127.887 274.085 123.373C274.085 123.141 273.969 123.025 273.853 123.025C273.622 123.025 273.506 123.141 273.506 123.257C272.926 127.54 272 130.202 268.64 132.517C264.932 135.064 263.542 140.736 265.859 144.092C266.323 144.787 266.439 145.481 266.207 146.06C265.628 147.681 263.195 148.607 263.195 148.607C263.079 148.723 262.963 148.838 262.963 149.07C262.963 149.417 263.079 149.417 263.195 149.417Z" fill="#2B1710"/>
<g clip-path="url(#clip0_118_4762)">
<path d="M224.011 130.777C239.762 130.777 252.531 118.017 252.531 102.277C252.531 86.5372 239.762 73.7773 224.011 73.7773C208.261 73.7773 195.492 86.5372 195.492 102.277C195.492 118.017 208.261 130.777 224.011 130.777Z" fill="black"/>
<path d="M224.012 103.159C229.496 103.159 233.942 98.7167 233.942 93.2373C233.942 87.7579 229.496 83.3159 224.012 83.3159C218.528 83.3159 214.082 87.7579 214.082 93.2373C214.082 98.7167 218.528 103.159 224.012 103.159Z" fill="white"/>
<path d="M224.011 128.785C230.708 128.785 236.828 126.257 241.562 122.082C240.676 112.773 233.171 105.495 224.011 105.495C214.851 105.495 207.346 112.773 206.461 122.082C211.195 126.257 217.314 128.785 224.011 128.785Z" fill="white"/>
</g>
<defs>
<linearGradient id="paint0_linear_118_4762" x1="284.591" y1="146.407" x2="284.591" y2="189.236" gradientUnits="userSpaceOnUse">
<stop stop-color="#C8C0C4"/>
<stop offset="0.567708" stop-color="#2A72FF"/>
</linearGradient>
<clipPath id="clip0_118_4762">
<rect width="57" height="57" fill="white" transform="translate(195.492 73.7773)"/>
</clipPath>
</defs>
</svg>
