<svg width="356" height="356" viewBox="0 0 356 356" fill="none" xmlns="http://www.w3.org/2000/svg">
<path d="M81.62 268L80.82 265.14H75.68L74.86 268H71.16L75.4 254H81.2L85.44 268H81.62ZM80 262.3L78.24 256.1L76.48 262.3H80ZM86.6894 268V257.52H90.2894V261.18H93.6894V257.52H97.2894V268H93.6894V264.14H90.2894V268H86.6894ZM99.0833 265.02C99.0833 263.02 100.637 261.873 103.743 261.58L106.103 261.36V261.32C106.103 260.32 105.59 259.813 104.563 259.8C103.577 259.8 103.043 260.167 102.963 260.9H99.6833C99.6966 260.233 99.8433 259.653 100.123 259.16C100.403 258.667 100.777 258.293 101.243 258.04C101.723 257.773 102.237 257.58 102.783 257.46C103.33 257.34 103.923 257.28 104.563 257.28C106.19 257.28 107.45 257.673 108.343 258.46C109.25 259.247 109.703 260.453 109.703 262.08V268H106.343V266.36C105.517 267.613 104.297 268.24 102.683 268.24C101.537 268.24 100.65 267.947 100.023 267.36C99.3966 266.76 99.0833 265.98 99.0833 265.02ZM102.643 264.82C102.643 265.46 103.05 265.78 103.863 265.78C104.49 265.78 105.017 265.58 105.443 265.18C105.883 264.767 106.103 264.3 106.103 263.78V263.48L104.223 263.66C103.17 263.753 102.643 264.14 102.643 264.82ZM113.127 257.52H122.307V268H118.707V260.48H116.267C116.08 262.96 115.927 264.5 115.807 265.1C115.527 266.54 114.96 267.46 114.107 267.86C113.667 268.06 113.14 268.16 112.527 268.16C112.034 268.16 111.574 268.12 111.147 268.04V265.12C111.294 265.147 111.454 265.16 111.627 265.16C111.814 265.16 111.98 265.087 112.127 264.94C112.274 264.793 112.394 264.567 112.487 264.26C112.58 263.953 112.654 263.633 112.707 263.3C112.774 262.967 112.827 262.547 112.867 262.04C112.907 261.52 112.94 261.053 112.967 260.64C112.994 260.213 113.02 259.693 113.047 259.08C113.074 258.453 113.1 257.933 113.127 257.52ZM130.443 257.52H135.743V268H132.303V260.56L129.763 268H124.463V257.52H127.903V264.96L130.443 257.52ZM137.18 260.48V257.52H147.7V260.48H144.24V268H140.64V260.48H137.18ZM155.111 257.52H160.411V268H156.971V260.56L154.431 268H149.131V257.52H152.571V264.96L155.111 257.52ZM173.548 268H169.148L166.548 264.14H166.168V268H162.568V257.52H166.168V261.34H166.588L169.028 257.52H173.228L169.168 262.42L173.548 268ZM173.947 265.02C173.947 263.02 175.5 261.873 178.607 261.58L180.967 261.36V261.32C180.967 260.32 180.453 259.813 179.427 259.8C178.44 259.8 177.907 260.167 177.827 260.9H174.547C174.56 260.233 174.707 259.653 174.987 259.16C175.267 258.667 175.64 258.293 176.107 258.04C176.587 257.773 177.1 257.58 177.647 257.46C178.193 257.34 178.787 257.28 179.427 257.28C181.053 257.28 182.313 257.673 183.207 258.46C184.113 259.247 184.567 260.453 184.567 262.08V268H181.207V266.36C180.38 267.613 179.16 268.24 177.547 268.24C176.4 268.24 175.513 267.947 174.887 267.36C174.26 266.76 173.947 265.98 173.947 265.02ZM177.507 264.82C177.507 265.46 177.913 265.78 178.727 265.78C179.353 265.78 179.88 265.58 180.307 265.18C180.747 264.767 180.967 264.3 180.967 263.78V263.48L179.087 263.66C178.033 263.753 177.507 264.14 177.507 264.82ZM78.44 286.28C78.8533 286.28 79.2667 286.34 79.68 286.46V289.58C79.0133 289.46 78.4267 289.4 77.92 289.4C77.1333 289.4 76.56 289.613 76.2 290.04C75.8533 290.467 75.68 291.213 75.68 292.28V297H72.08V286.52H75.44V288.4C76.0933 286.987 77.0933 286.28 78.44 286.28ZM80.4373 297.4H88.4373V299.76H80.4373V297.4ZM100.658 297H96.2577L93.6577 293.14H93.2777V297H89.6777V282.28H93.2777V290.34H93.6977L96.1377 286.52H100.338L96.2777 291.42L100.658 297ZM100.586 291.76C100.586 289.933 101.106 288.567 102.146 287.66C103.2 286.74 104.626 286.28 106.426 286.28C108.28 286.28 109.66 286.773 110.566 287.76C111.486 288.747 111.946 290.313 111.946 292.46V292.82H104.206C104.433 294.087 105.22 294.72 106.566 294.72C107.38 294.72 107.98 294.42 108.366 293.82L111.826 294.02C111.533 295.047 110.933 295.84 110.026 296.4C109.133 296.96 107.98 297.24 106.566 297.24C104.726 297.24 103.266 296.793 102.186 295.9C101.12 294.993 100.586 293.613 100.586 291.76ZM104.206 290.58H108.406C108.26 289.393 107.6 288.8 106.426 288.8C105.213 288.8 104.473 289.393 104.206 290.58ZM113.262 291.76C113.262 289.933 113.782 288.567 114.822 287.66C115.875 286.74 117.302 286.28 119.102 286.28C120.955 286.28 122.335 286.773 123.242 287.76C124.162 288.747 124.622 290.313 124.622 292.46V292.82H116.882C117.109 294.087 117.895 294.72 119.242 294.72C120.055 294.72 120.655 294.42 121.042 293.82L124.502 294.02C124.209 295.047 123.609 295.84 122.702 296.4C121.809 296.96 120.655 297.24 119.242 297.24C117.402 297.24 115.942 296.793 114.862 295.9C113.795 294.993 113.262 293.613 113.262 291.76ZM116.882 290.58H121.082C120.935 289.393 120.275 288.8 119.102 288.8C117.889 288.8 117.149 289.393 116.882 290.58ZM126.338 301V286.52H129.698V288.14C130.458 286.9 131.591 286.28 133.098 286.28C134.431 286.28 135.531 286.773 136.398 287.76C137.264 288.733 137.698 290.067 137.698 291.76C137.698 293.44 137.264 294.773 136.398 295.76C135.544 296.747 134.458 297.24 133.138 297.24C131.778 297.24 130.711 296.72 129.938 295.68V301H126.338ZM130.358 289.82C129.971 290.313 129.778 290.96 129.778 291.76C129.778 292.56 129.971 293.207 130.358 293.7C130.758 294.193 131.291 294.44 131.958 294.44C132.624 294.44 133.151 294.193 133.538 293.7C133.938 293.207 134.138 292.56 134.138 291.76C134.138 290.96 133.938 290.313 133.538 289.82C133.151 289.327 132.624 289.08 131.958 289.08C131.291 289.08 130.758 289.327 130.358 289.82ZM139.063 291.76C139.063 289.933 139.583 288.567 140.623 287.66C141.676 286.74 143.103 286.28 144.903 286.28C146.756 286.28 148.136 286.773 149.043 287.76C149.963 288.747 150.423 290.313 150.423 292.46V292.82H142.683C142.909 294.087 143.696 294.72 145.043 294.72C145.856 294.72 146.456 294.42 146.843 293.82L150.303 294.02C150.009 295.047 149.409 295.84 148.503 296.4C147.609 296.96 146.456 297.24 145.043 297.24C143.203 297.24 141.743 296.793 140.663 295.9C139.596 294.993 139.063 293.613 139.063 291.76ZM142.683 290.58H146.883C146.736 289.393 146.076 288.8 144.903 288.8C143.689 288.8 142.949 289.393 142.683 290.58ZM158.499 286.28C158.912 286.28 159.325 286.34 159.739 286.46V289.58C159.072 289.46 158.485 289.4 157.979 289.4C157.192 289.4 156.619 289.613 156.259 290.04C155.912 290.467 155.739 291.213 155.739 292.28V297H152.139V286.52H155.499V288.4C156.152 286.987 157.152 286.28 158.499 286.28Z" fill="black"/>
<path d="M244.422 227.208H79.0854C77.6941 227.208 76.3249 226.377 75.259 224.789C74.1963 223.206 73.5078 220.958 73.5078 218.411V53.0197C73.5078 50.4728 74.1963 48.2241 75.259 46.6412C76.3249 45.0536 77.6941 44.2227 79.0854 44.2227H244.422C245.814 44.2227 247.183 45.0536 248.249 46.6412C249.311 48.2241 250 50.4728 250 53.0197V218.411C250 220.958 249.311 223.206 248.249 224.789C247.183 226.377 245.814 227.208 244.422 227.208Z" fill="#C8C0C4" stroke="black" stroke-width="2"/>
<path d="M35.1 42H20V57.1H35.1V42Z" fill="#FF5D5D"/>
<path d="M146.999 42H45.6992V57.1H146.999V42Z" fill="#2A72FF"/>
<path d="M35.1 74.2998H20V89.3998H35.1V74.2998Z" fill="#75A2FF"/>
<path d="M108.799 74.2998H45.6992V89.3998H108.799V74.2998Z" fill="#2A72FF"/>
<path d="M175.099 129.5V208C175.099 219.8 165.499 229.4 153.699 229.4H179.399C191.199 229.4 200.799 219.8 200.799 208V129.5H175.099Z" fill="#2A72FF"/>
<path d="M124.5 154.3V208C124.5 219.8 114.9 229.4 103.1 229.4H128.8C140.6 229.4 150.2 219.8 150.2 208V154.3H124.5Z" fill="black"/>
<path d="M73.9996 179.2V208C73.9996 219.8 64.3996 229.4 52.5996 229.4H78.2996C90.0996 229.4 99.6996 219.8 99.6996 208V179.2H73.9996Z" fill="black"/>
<path d="M186.5 210.8V203H20V210.8C20 221.4 28.6 229.9 39.1 229.9H205.6C195 229.9 186.5 221.3 186.5 210.8Z" fill="white"/>
<path d="M193.6 98L172.3 107L179.8 109L161.9 126.9H132C131.2 126.9 130.5 127.4 130.1 128.1L119.6 151.1H114.2C113.3 151.1 112.6 151.6 112.3 152.5L109.6 160H74.2996C73.5996 160 72.9996 160.3 72.5996 160.9L66.0996 170.2C65.3996 171.1 65.6996 172.4 66.5996 173.1C66.9996 173.4 67.3996 173.5 67.7996 173.5C68.4996 173.5 69.0996 173.2 69.4996 172.6L75.3996 164.2H111C111.9 164.2 112.6 163.7 112.9 162.8L115.6 155.3H120.9C121.7 155.3 122.4 154.8 122.8 154.1L133.3 131.1H162.6C163.1 131.1 163.7 130.9 164.1 130.5L182.6 112L184.6 119.5L193.6 98Z" fill="#FF5766"/>
<path d="M229.6 102.3H204.3C204.1 102.3 204 102.2 204 102V69.3C204 69.1 204.1 69 204.3 69H224.1C224.2 69 224.3 69 224.3 69.1L229.8 74.2C229.9 74.3 229.9 74.3 229.9 74.4V101.9C229.9 102.1 229.8 102.3 229.6 102.3ZM204.6 101.6H229.3V74.6L224 69.6H204.6V101.6Z" fill="white"/>
<path d="M229.599 74.8L224.099 74.7C223.899 74.7 223.799 74.6 223.799 74.4L223.699 69.3C223.699 69.1 223.799 69 223.999 69C224.199 69 224.299 69.1 224.299 69.3L224.399 74L229.599 74.1C229.799 74.1 229.899 74.2 229.899 74.4C229.899 74.6 229.799 74.8 229.599 74.8Z" fill="white"/>
<path d="M216.199 74.3998H206.499C206.299 74.3998 206.199 74.2998 206.199 74.0998C206.199 73.8998 206.299 73.7998 206.499 73.7998H216.099C216.299 73.7998 216.399 73.8998 216.399 74.0998C216.499 74.1998 216.299 74.3998 216.199 74.3998Z" fill="white"/>
<path d="M226.399 78.8002H206.499C206.299 78.8002 206.199 78.7002 206.199 78.5002C206.199 78.3002 206.299 78.2002 206.499 78.2002H226.299C226.499 78.2002 226.599 78.3002 226.599 78.5002C226.699 78.7002 226.499 78.8002 226.399 78.8002Z" fill="white"/>
<path d="M226.399 85.8998H206.499C206.299 85.8998 206.199 85.7998 206.199 85.5998C206.199 85.3998 206.299 85.2998 206.499 85.2998H226.299C226.499 85.2998 226.599 85.3998 226.599 85.5998C226.699 85.6998 226.499 85.8998 226.399 85.8998Z" fill="white"/>
<path d="M226.399 92.8998H206.499C206.299 92.8998 206.199 92.7998 206.199 92.5998C206.199 92.3998 206.299 92.2998 206.499 92.2998H226.299C226.499 92.2998 226.599 92.3998 226.599 92.5998C226.699 92.6998 226.499 92.8998 226.399 92.8998Z" fill="white"/>
<g clip-path="url(#clip0_118_4763)">
<path d="M245.801 286.2L244.901 293.6C246.601 297.6 246.201 302.7 246.201 302.7L216.101 304.1C219.101 297.9 233.201 296.8 234.501 293.8C235.901 290.8 236.101 282.1 236.101 282.1L245.801 286.2Z" fill="white"/>
<path d="M239.3 294.2C239.3 293.1 238.4 289.4 235.6 288.4C235.4 290.5 235 292.6 234.4 293.8C233 296.8 218.9 297.9 216 304.1L246.1 302.7C246.1 302.7 246.6 297.5 244.8 293.6C244.9 293.6 239.5 296.1 239.3 294.2Z" fill="#2B1710"/>
<path d="M216.801 302.9C216.501 303.3 216.201 303.7 216.001 304.1L246.101 302.7C246.101 302.7 246.101 302.2 246.201 301.5L216.801 302.9Z" fill="#693E2F"/>
<path d="M236.702 295.1C236.602 295.1 236.601 295.1 236.501 295C236.501 295 236.002 293.8 235.102 293.4C234.702 293.3 234.302 293.3 233.901 293.5C233.802 293.5 233.702 293.5 233.702 293.4C233.702 293.3 233.702 293.2 233.802 293.2C234.302 293 234.802 292.9 235.202 293.1C236.202 293.5 236.802 294.8 236.802 294.9C236.902 295 236.902 295.1 236.702 295.1C236.802 295.1 236.702 295.1 236.702 295.1Z" fill="#693E2F"/>
<path d="M234.001 297.3C233.901 297.3 233.901 297.3 233.801 297.2C233.801 297.2 233.301 296 232.401 295.6C232.001 295.5 231.601 295.5 231.201 295.7C231.101 295.7 231.001 295.7 231.001 295.6C231.001 295.5 231.001 295.4 231.101 295.4C231.601 295.2 232.101 295.1 232.501 295.3C233.501 295.7 234.101 297 234.101 297.1C234.201 297.1 234.101 297.2 234.001 297.3Z" fill="#693E2F"/>
<path d="M229.402 298.8C229.302 298.8 229.302 298.8 229.202 298.7C229.202 298.7 228.702 297.5 227.802 297.1C227.402 297 227.002 297 226.602 297.2C226.502 297.2 226.402 297.2 226.402 297.1C226.402 297 226.402 296.9 226.502 296.9C227.002 296.7 227.502 296.6 227.902 296.8C228.902 297.2 229.502 298.5 229.502 298.6C229.502 298.7 229.502 298.8 229.402 298.8Z" fill="#693E2F"/>
<path d="M291.602 157.1C284.002 159.8 258.602 175 245.202 149.7L240.202 154.5L241.102 156.3C241.102 169.7 248.802 187.9 293.402 187.5C304.702 171.4 291.602 157.1 291.602 157.1Z" fill="#D1E3FF"/>
<path d="M282.701 195.1C261.501 180.3 246.301 183 235.001 190.8C223.701 198.6 220.101 219.2 235.701 243.2L237.901 246.1C237.901 246.1 250.901 238.3 250.901 237.3C243.601 214.3 248.701 202.8 269.501 215.7C290.301 228.7 293.701 204.9 293.701 204.9C293.701 204.9 293.001 199.3 292.201 198C291.601 196.9 282.701 195.1 282.701 195.1Z" fill="#1A2B70"/>
<path d="M314.801 213.8C314.801 220 312.801 228.7 296.201 229.7C275.301 230.9 249.201 242.4 249.701 288.5L232.801 288.7C229.601 264.7 226.401 227 275.201 210.8C277.401 203.9 290.601 199 290.601 199H304.801L314.801 213.8Z" fill="#203489"/>
<path d="M291.601 157.1C298.601 154.2 302.401 153.6 308.101 154.1C313.801 154.6 319.801 158.9 322.201 170.6C324.301 180.8 326.101 203.8 315.901 209.7C314.601 210.4 315.501 212 314.801 212.6C294.201 206.2 282.701 195 282.701 195C283.901 195.1 283.801 194.1 284.201 193.4C281.801 188.8 286.101 187.1 287.001 179.3C287.901 171.9 286.601 161.6 291.601 157.1Z" fill="#FF5D5D"/>
<path d="M300.9 129.1C302.4 129.1 302.8 130.1 302.8 130.1C304.2 128.6 305 130.1 304.2 131C306 130.6 304.7 132.2 304.6 132.3C306.2 133.6 306.1 142.7 306.1 142.7L295.7 144.2C295.7 144.2 290.7 140.2 290.6 140.3C288.4 139.4 287.6 136.9 288.6 135.1C285.8 133.8 287.5 127.5 293 128C292.9 125.4 300.3 123.5 300.9 129.1Z" fill="#2B1710"/>
<path d="M305.602 145L304.902 140.4C304.902 140.4 304.202 140 303.802 138.7C301.802 139.1 299.702 137 301.102 132.7C300.502 133 299.102 132.7 298.802 131C299.002 134.8 294.902 138 289.502 135.5C289.502 135.5 290.502 144.9 291.302 148C292.102 151.1 294.302 152.3 296.502 152.6C296.502 152.6 297.402 155.8 297.302 156.3C299.902 158.3 304.702 156.4 307.602 154.1C307.302 153.8 305.802 149.3 305.602 145Z" fill="white"/>
<path d="M304.301 144.1C304.701 145.2 305.901 145.7 307.001 145.3C308.101 144.9 308.601 143.7 308.201 142.6C307.801 141.5 306.601 141 305.501 141.4C304.501 141.8 303.901 143 304.301 144.1Z" fill="white"/>
<path d="M293.4 146.9C293.9 148.9 296.6 151.8 299.4 146.5C297.8 147.2 295.4 147.7 293.4 146.9Z" fill="#521A14"/>
<path d="M293.502 146.9C294.002 147.9 296.102 149.1 299.002 146.8C296.802 147.3 294.702 147.5 293.502 146.9Z" fill="white"/>
<path d="M298.801 143.1C299.301 142.9 299.701 142.5 299.801 141.9C299.801 141.9 299.801 141.8 299.701 141.8C299.701 141.8 299.601 141.8 299.601 141.9C299.601 142.6 298.901 143 298.401 143.1C298.401 143.1 298.301 143.1 298.301 143.2C298.301 143.2 298.301 143.3 298.401 143.3C298.501 143.2 298.701 143.2 298.801 143.1Z" fill="#E0B3A8"/>
<path d="M301.302 138.8C301.302 138.8 301.402 138.8 301.302 138.8C301.402 138.8 301.402 138.7 301.302 138.7C300.302 137.4 298.302 137.1 297.002 137.7C297.002 137.7 296.902 137.8 297.002 137.8C297.002 137.8 297.102 137.9 297.102 137.8C298.302 137.3 300.302 137.5 301.202 138.7C301.302 138.8 301.302 138.8 301.302 138.8Z" fill="#2B1710"/>
<path d="M290.602 140C290.702 139.9 290.702 139.9 290.602 140C290.902 139.1 292.102 138.6 293.002 138.9C293.002 138.9 293.102 138.9 293.102 138.8C293.102 138.8 293.102 138.7 293.002 138.7C292.002 138.4 290.802 139 290.502 139.9C290.502 139.9 290.502 139.9 290.602 140Z" fill="#2B1710"/>
<path d="M293.802 146C293.902 146 293.902 146 293.802 146C293.902 145.9 293.802 145.8 293.802 145.8C293.402 145.7 293.302 145.4 293.202 145.2C293.102 145 293.202 144.8 293.202 144.7C293.302 144.6 293.702 144.6 294.002 144.6C294.202 144.6 294.302 144.6 294.502 144.6C294.602 144.6 294.702 144.5 294.802 144.3C295.102 143.6 295.002 141.2 293.502 139.6H293.402V139.7C294.802 141.2 294.902 143.5 294.702 144.2C294.702 144.3 294.602 144.3 294.602 144.3C294.502 144.3 294.302 144.3 294.102 144.3C293.602 144.3 293.202 144.3 293.102 144.4C293.002 144.5 293.002 144.8 293.102 145C293.202 145.5 293.302 145.8 293.802 146Z" fill="#2B1710"/>
<path d="M298.9 146.8C299.1 146.7 299.3 146.6 299.5 146.5C299.5 146.5 299.6 146.4 299.5 146.4C299.5 146.4 299.4 146.3 299.4 146.4C297.3 147.5 294 147.4 293.2 146.7H293.1V146.8C293.8 147.5 296.8 147.7 298.9 146.8Z" fill="#2B1710"/>
<path d="M297.601 150.2C297.701 150.2 297.701 150.2 297.801 150.1C297.801 150.1 297.901 150 297.801 150C297.701 150 297.701 149.9 297.701 150C296.401 150.6 295.001 150.2 295.001 150.2C295.001 150.2 294.901 150.2 294.901 150.3C294.901 150.3 294.901 150.4 295.001 150.4C295.001 150.4 296.301 150.7 297.601 150.2Z" fill="#E0B3A8"/>
<path d="M297.801 141.6C297.901 142.2 298.301 142.7 298.601 142.7C299.001 142.6 299.201 142.1 299.101 141.4C299.001 140.8 298.601 140.3 298.301 140.3C297.901 140.4 297.701 140.9 297.801 141.6Z" fill="#2B1710"/>
<path d="M293.201 143.9C293.701 143.7 294.101 143.3 294.201 142.7C294.201 142.7 294.201 142.6 294.101 142.6C294.101 142.6 294.001 142.6 294.001 142.7C294.001 143.4 293.301 143.8 292.801 143.9C292.801 143.9 292.701 143.9 292.701 144C292.701 144 292.701 144.1 292.801 144.1C292.901 144 293.001 144 293.201 143.9Z" fill="#E0B3A8"/>
<path d="M292.202 142.4C292.302 143 292.702 143.5 293.002 143.5C293.402 143.4 293.602 142.9 293.502 142.2C293.402 141.6 293.002 141.1 292.702 141.1C292.302 141.2 292.102 141.7 292.202 142.4Z" fill="#2B1710"/>
<path d="M297.801 148.8C296.401 150.1 295.101 149.5 294.301 148.5C295.601 148.4 297.001 148.6 297.801 148.8Z" fill="white"/>
<path d="M316.6 158.5C307.8 162.7 310.7 175.9 318.8 187.9C326.9 199.9 317.6 222.7 317.6 222.7L325.7 225.9L326.4 223.7C340.1 206.9 342 172.4 316.6 158.5Z" fill="#D1E3FF"/>
<path d="M328.601 227.5C326.801 223.2 317.901 219.5 314.501 225.2C314.801 225.5 317.101 226.4 317.101 226.4C317.101 226.4 315.801 235.9 318.501 236.9C319.701 238.7 321.701 237.5 321.701 237.5C323.301 238 325.301 234.3 325.301 234.3C325.301 234.3 324.201 236.6 325.501 236.8C326.601 236.9 329.101 230.5 328.601 227.5Z" fill="white"/>
<path d="M320.002 234.1C320.502 232 321.002 228.8 320.402 226.4C320.402 226.3 320.302 226.3 320.302 226.3C320.202 226.3 320.202 226.4 320.202 226.4C321.202 230.2 319.302 236 319.202 236.1C319.202 236.2 319.202 236.2 319.302 236.2C319.402 236.2 319.402 236.2 319.402 236.1C319.402 236.2 319.702 235.3 320.002 234.1Z" fill="#E0B3A8"/>
<path d="M324.602 230.1C324.602 230.1 324.602 230 324.602 230.1C324.602 230 324.602 230 324.502 229.9C324.402 229.9 324.402 229.9 324.402 230C324.402 230 323.602 233.6 321.602 237V237.1H321.702C323.702 233.8 324.502 230.5 324.602 230.1Z" fill="#E0B3A8"/>
<path d="M326.201 232C326.201 231.8 326.301 231.7 326.301 231.7C326.301 231.6 326.301 231.6 326.201 231.6C326.101 231.6 326.101 231.6 326.101 231.7C326.101 231.7 325.901 232.7 325.301 233.9C325.301 234 325.301 234 325.301 234C325.401 234 325.401 234 325.401 234C325.901 233.1 326.101 232.4 326.201 232Z" fill="#E0B3A8"/>
<path d="M240.301 154.5C235.601 152.1 237.501 146.6 237.001 143.5C236.501 140.4 235.601 140 236.301 139.1C237.001 138.1 239.401 140.4 239.701 141.7C240.101 143 240.201 143.3 240.701 143.3C241.201 143.3 241.001 134.9 241.001 134.9C245.001 139.3 245.301 149.7 245.301 149.7L240.301 154.5Z" fill="white"/>
<path d="M282.701 195.1C283.101 194.7 283.601 194.6 284.101 193.4C284.101 193.4 299.901 207 315.301 211.2C315.101 212.7 314.801 213.8 314.801 213.8C300.001 209 287.901 200.6 282.701 195.1Z" fill="#2B1710"/>
<path d="M313.023 209.758L314.027 210.208L312.435 213.768L311.431 213.319L313.023 209.758Z" fill="#203489"/>
<path d="M299.902 220.5C299.902 220.5 299.802 220.5 299.902 220.5C296.302 217.5 296.202 213 299.602 208.8C299.602 208.7 299.702 208.7 299.802 208.8C299.902 208.8 299.902 208.9 299.802 209C296.502 213 296.602 217.5 299.902 220.3C300.002 220.3 300.002 220.4 299.902 220.5C299.902 220.5 300.002 220.4 299.902 220.5Z" fill="#BFBFBF"/>
<path d="M241.7 284C241.6 284 241.6 283.9 241.6 283.9C241.6 283.7 239.4 262.6 251.8 244.9C263.8 227.9 280.6 224.9 290.7 223.1C291.2 223 291.7 222.9 292.1 222.8C301.8 221.1 304.1 219.5 308.1 212.3C308.1 212.2 308.2 212.2 308.3 212.2C308.4 212.2 308.4 212.3 308.4 212.4C304.5 219.7 301.9 221.4 292.2 223.1C291.7 223.2 291.3 223.3 290.8 223.4C280.8 225.2 264 228.1 252.1 245.1C239.7 262.7 241.9 283.7 242 283.9C241.8 283.9 241.8 284 241.7 284Z" fill="#BFBFBF"/>
<path d="M233.001 284.9C232.901 284.9 232.901 284.8 232.901 284.8C232.901 284.7 233.001 284.7 233.001 284.7L248.601 284.3C248.701 284.3 248.701 284.4 248.701 284.4C248.701 284.5 248.601 284.5 248.601 284.5L233.001 284.9Z" fill="#BFBFBF"/>
</g>
<defs>
<clipPath id="clip0_118_4763">
<rect width="120.3" height="239.1" fill="white" transform="matrix(-1 0 0 1 336.301 65)"/>
</clipPath>
</defs>
</svg>
