<svg width="356" height="356" viewBox="0 0 356 356" fill="none" xmlns="http://www.w3.org/2000/svg">
<path d="M237.495 234.836H78.332C77.0468 234.836 75.7378 234.002 74.6991 232.327C73.6687 230.665 73 228.301 73 225.623V53.2128C73 50.5354 73.6687 48.1715 74.6991 46.5095C75.7378 44.8343 77.0468 44 78.332 44H237.495C238.78 44 240.089 44.8343 241.128 46.5095C242.158 48.1715 242.827 50.5354 242.827 53.2128V225.623C242.827 228.301 242.158 230.665 241.128 232.327C240.089 234.002 238.78 234.836 237.495 234.836Z" stroke="black" stroke-width="2"/>
<path d="M80.6513 263.349H87.1713V277.349H83.5913V265.829L81.3513 277.349H76.2913L74.0513 265.829V277.349H70.4713V263.349H77.0513L78.8513 274.729L80.6513 263.349ZM89.3216 274.369C89.3216 272.369 90.8749 271.222 93.9816 270.929L96.3416 270.709V270.669C96.3416 269.669 95.8282 269.162 94.8016 269.149C93.8149 269.149 93.2816 269.515 93.2016 270.249H89.9216C89.9349 269.582 90.0816 269.002 90.3616 268.509C90.6416 268.015 91.0149 267.642 91.4816 267.389C91.9616 267.122 92.4749 266.929 93.0216 266.809C93.5682 266.689 94.1616 266.629 94.8016 266.629C96.4282 266.629 97.6882 267.022 98.5816 267.809C99.4882 268.595 99.9416 269.802 99.9416 271.429V277.349H96.5816V275.709C95.7549 276.962 94.5349 277.589 92.9216 277.589C91.7749 277.589 90.8882 277.295 90.2616 276.709C89.6349 276.109 89.3216 275.329 89.3216 274.369ZM92.8816 274.169C92.8816 274.809 93.2882 275.129 94.1016 275.129C94.7282 275.129 95.2549 274.929 95.6816 274.529C96.1216 274.115 96.3416 273.649 96.3416 273.129V272.829L94.4616 273.009C93.4082 273.102 92.8816 273.489 92.8816 274.169ZM102.025 281.349V266.869H105.385V268.489C106.145 267.249 107.279 266.629 108.785 266.629C110.119 266.629 111.219 267.122 112.085 268.109C112.952 269.082 113.385 270.415 113.385 272.109C113.385 273.789 112.952 275.122 112.085 276.109C111.232 277.095 110.145 277.589 108.825 277.589C107.465 277.589 106.399 277.069 105.625 276.029V281.349H102.025ZM106.045 270.169C105.659 270.662 105.465 271.309 105.465 272.109C105.465 272.909 105.659 273.555 106.045 274.049C106.445 274.542 106.979 274.789 107.645 274.789C108.312 274.789 108.839 274.542 109.225 274.049C109.625 273.555 109.825 272.909 109.825 272.109C109.825 271.309 109.625 270.662 109.225 270.169C108.839 269.675 108.312 269.429 107.645 269.429C106.979 269.429 106.445 269.675 106.045 270.169ZM126.13 277.349H121.73L119.13 273.489H118.75V277.349H115.15V266.869H118.75V270.689H119.17L121.61 266.869H125.81L121.75 271.769L126.13 277.349ZM126.059 272.109C126.059 270.282 126.579 268.915 127.619 268.009C128.672 267.089 130.099 266.629 131.899 266.629C133.752 266.629 135.132 267.122 136.039 268.109C136.959 269.095 137.419 270.662 137.419 272.809V273.169H129.679C129.906 274.435 130.692 275.069 132.039 275.069C132.852 275.069 133.452 274.769 133.839 274.169L137.299 274.369C137.006 275.395 136.406 276.189 135.499 276.749C134.606 277.309 133.452 277.589 132.039 277.589C130.199 277.589 128.739 277.142 127.659 276.249C126.592 275.342 126.059 273.962 126.059 272.109ZM129.679 270.929H133.879C133.732 269.742 133.072 269.149 131.899 269.149C130.686 269.149 129.946 269.742 129.679 270.929ZM138.298 269.829V266.869H148.818V269.829H145.358V277.349H141.758V269.829H138.298ZM156.228 266.869H161.528V277.349H158.088V269.909L155.548 277.349H150.248V266.869H153.688V274.309L156.228 266.869ZM163.685 277.349V266.869H167.285V270.529H170.685V266.869H174.285V277.349H170.685V273.489H167.285V277.349H163.685ZM176.439 277.349V266.869H185.039V269.829H180.039V277.349H176.439ZM187.443 276.109C186.403 275.122 185.883 273.789 185.883 272.109C185.883 270.429 186.403 269.095 187.443 268.109C188.496 267.122 189.91 266.629 191.683 266.629C193.456 266.629 194.863 267.122 195.903 268.109C196.956 269.095 197.483 270.429 197.483 272.109C197.483 273.789 196.956 275.122 195.903 276.109C194.863 277.095 193.456 277.589 191.683 277.589C189.91 277.589 188.496 277.095 187.443 276.109ZM190.043 270.189C189.643 270.682 189.443 271.322 189.443 272.109C189.443 272.895 189.643 273.542 190.043 274.049C190.443 274.542 190.99 274.789 191.683 274.789C192.376 274.789 192.923 274.542 193.323 274.049C193.723 273.542 193.923 272.895 193.923 272.109C193.923 271.322 193.723 270.682 193.323 270.189C192.923 269.682 192.376 269.429 191.683 269.429C190.99 269.429 190.443 269.682 190.043 270.189ZM206.372 271.889C208.559 272.115 209.652 272.949 209.652 274.389C209.652 275.189 209.305 275.882 208.612 276.469C207.919 277.055 206.752 277.349 205.112 277.349H199.252V266.869H204.792C206.299 266.869 207.419 267.115 208.152 267.609C208.885 268.089 209.252 268.729 209.252 269.529C209.252 270.795 208.292 271.582 206.372 271.889ZM202.852 269.509V270.889H204.552C205.285 270.889 205.652 270.655 205.652 270.189C205.652 269.735 205.245 269.509 204.432 269.509H202.852ZM204.852 274.709C205.652 274.709 206.052 274.442 206.052 273.909C206.052 273.389 205.625 273.129 204.772 273.129H202.852V274.709H204.852ZM210.845 274.369C210.845 272.369 212.398 271.222 215.505 270.929L217.865 270.709V270.669C217.865 269.669 217.352 269.162 216.325 269.149C215.338 269.149 214.805 269.515 214.725 270.249H211.445C211.458 269.582 211.605 269.002 211.885 268.509C212.165 268.015 212.538 267.642 213.005 267.389C213.485 267.122 213.998 266.929 214.545 266.809C215.092 266.689 215.685 266.629 216.325 266.629C217.952 266.629 219.212 267.022 220.105 267.809C221.012 268.595 221.465 269.802 221.465 271.429V277.349H218.105V275.709C217.278 276.962 216.058 277.589 214.445 277.589C213.298 277.589 212.412 277.295 211.785 276.709C211.158 276.109 210.845 275.329 210.845 274.369ZM214.405 274.169C214.405 274.809 214.812 275.129 215.625 275.129C216.252 275.129 216.778 274.929 217.205 274.529C217.645 274.115 217.865 273.649 217.865 273.129V272.829L215.985 273.009C214.932 273.102 214.405 273.489 214.405 274.169ZM227.909 266.869H233.449V277.349H229.849V273.709H229.189L227.029 277.349H222.829L225.729 273.449C224.075 273.009 223.249 271.955 223.249 270.289C223.249 268.009 224.802 266.869 227.909 266.869ZM228.369 269.589C227.355 269.589 226.849 269.902 226.849 270.529C226.849 271.155 227.355 271.469 228.369 271.469H229.849V269.589H228.369ZM69.7513 303.369C69.7513 301.369 71.3046 300.222 74.4113 299.929L76.7713 299.709V299.669C76.7713 298.669 76.2579 298.162 75.2313 298.149C74.2446 298.149 73.7113 298.515 73.6313 299.249H70.3512C70.3646 298.582 70.5113 298.002 70.7913 297.509C71.0713 297.015 71.4446 296.642 71.9113 296.389C72.3913 296.122 72.9046 295.929 73.4513 295.809C73.9979 295.689 74.5913 295.629 75.2313 295.629C76.8579 295.629 78.1179 296.022 79.0113 296.809C79.9179 297.595 80.3713 298.802 80.3713 300.429V306.349H77.0113V304.709C76.1846 305.962 74.9646 306.589 73.3513 306.589C72.2046 306.589 71.3179 306.295 70.6913 305.709C70.0646 305.109 69.7513 304.329 69.7513 303.369ZM73.3113 303.169C73.3113 303.809 73.7179 304.129 74.5313 304.129C75.1579 304.129 75.6846 303.929 76.1113 303.529C76.5513 303.115 76.7713 302.649 76.7713 302.129V301.829L74.8913 302.009C73.8379 302.102 73.3113 302.489 73.3113 303.169ZM82.455 306.349V295.869H86.055V299.529H89.455V295.869H93.055V306.349H89.455V302.489H86.055V306.349H82.455ZM94.8489 303.369C94.8489 301.369 96.4022 300.222 99.5089 299.929L101.869 299.709V299.669C101.869 298.669 101.356 298.162 100.329 298.149C99.3422 298.149 98.8089 298.515 98.7289 299.249H95.4489C95.4622 298.582 95.6089 298.002 95.8889 297.509C96.1689 297.015 96.5422 296.642 97.0089 296.389C97.4889 296.122 98.0022 295.929 98.5489 295.809C99.0956 295.689 99.6889 295.629 100.329 295.629C101.956 295.629 103.216 296.022 104.109 296.809C105.016 297.595 105.469 298.802 105.469 300.429V306.349H102.109V304.709C101.282 305.962 100.062 306.589 98.4489 306.589C97.3022 306.589 96.4156 306.295 95.7889 305.709C95.1622 305.109 94.8489 304.329 94.8489 303.369ZM98.4089 303.169C98.4089 303.809 98.8156 304.129 99.6289 304.129C100.256 304.129 100.782 303.929 101.209 303.529C101.649 303.115 101.869 302.649 101.869 302.129V301.829L99.9889 302.009C98.9356 302.102 98.4089 302.489 98.4089 303.169ZM108.893 295.869H118.073V306.349H114.473V298.829H112.033C111.846 301.309 111.693 302.849 111.573 303.449C111.293 304.889 110.726 305.809 109.873 306.209C109.433 306.409 108.906 306.509 108.293 306.509C107.799 306.509 107.339 306.469 106.913 306.389V303.469C107.059 303.495 107.219 303.509 107.393 303.509C107.579 303.509 107.746 303.435 107.893 303.289C108.039 303.142 108.159 302.915 108.253 302.609C108.346 302.302 108.419 301.982 108.473 301.649C108.539 301.315 108.593 300.895 108.633 300.389C108.673 299.869 108.706 299.402 108.733 298.989C108.759 298.562 108.786 298.042 108.813 297.429C108.839 296.802 108.866 296.282 108.893 295.869ZM126.208 295.869H131.508V306.349H128.068V298.909L125.528 306.349H120.228V295.869H123.668V303.309L126.208 295.869ZM132.946 298.829V295.869H143.466V298.829H140.006V306.349H136.406V298.829H132.946ZM150.876 295.869H156.176V306.349H152.736V298.909L150.196 306.349H144.896V295.869H148.336V303.309L150.876 295.869ZM169.314 306.349H164.914L162.314 302.489H161.934V306.349H158.334V295.869H161.934V299.689H162.354L164.794 295.869H168.994L164.934 300.769L169.314 306.349ZM169.712 303.369C169.712 301.369 171.266 300.222 174.372 299.929L176.732 299.709V299.669C176.732 298.669 176.219 298.162 175.192 298.149C174.206 298.149 173.672 298.515 173.592 299.249H170.312C170.326 298.582 170.472 298.002 170.752 297.509C171.032 297.015 171.406 296.642 171.872 296.389C172.352 296.122 172.866 295.929 173.412 295.809C173.959 295.689 174.552 295.629 175.192 295.629C176.819 295.629 178.079 296.022 178.972 296.809C179.879 297.595 180.332 298.802 180.332 300.429V306.349H176.972V304.709C176.146 305.962 174.926 306.589 173.312 306.589C172.166 306.589 171.279 306.295 170.652 305.709C170.026 305.109 169.712 304.329 169.712 303.369ZM173.272 303.169C173.272 303.809 173.679 304.129 174.492 304.129C175.119 304.129 175.646 303.929 176.072 303.529C176.512 303.115 176.732 302.649 176.732 302.129V301.829L174.852 302.009C173.799 302.102 173.272 302.489 173.272 303.169Z" fill="black"/>
<g clip-path="url(#clip0_118_4758)">
<path d="M34.9414 106.783C45.8746 124.834 37.7703 147.302 37.7703 147.302H49.3916C56.8843 134.202 53.6731 112.038 53.6731 112.038L34.9414 106.783Z" fill="#2A73FF"/>
<path d="M30.123 106.783C41.0562 124.834 32.9519 147.302 32.9519 147.302H43.8851C51.3778 134.202 48.9312 112.038 48.9312 112.038L30.123 106.783Z" fill="#2A73FF"/>
<path d="M14.4502 63.4459C6.49875 63.4459 0.0764559 73.3472 0 85.6096C0.0764559 97.8719 6.49875 107.773 14.4502 107.773C43.2741 108.383 76.7618 133.669 76.7618 133.669V37.5503C76.7618 37.5503 43.2741 62.8366 14.4502 63.4459Z" fill="#FF5D5D"/>
<path d="M93.6589 140.828C113.209 140.828 129.058 116.242 129.058 85.914C129.058 55.5858 113.209 31 93.6589 31C74.1085 31 58.2598 55.5858 58.2598 85.914C58.2598 116.242 74.1085 140.828 93.6589 140.828Z" fill="#FFA3AB"/>
<path d="M93.6582 134.126C109.619 134.126 122.559 112.541 122.559 85.9142C122.559 59.2877 109.619 37.7026 93.6582 37.7026C77.6969 37.7026 64.7578 59.2877 64.7578 85.9142C64.7578 112.541 77.6969 134.126 93.6582 134.126Z" fill="#FF5D5D"/>
<path d="M64.7578 85.9142C64.7578 92.5405 65.5224 98.7859 66.975 104.498L93.5817 96.8818V74.9467L66.5163 69.2344C65.4459 74.4135 64.7578 79.9735 64.7578 85.9142Z" fill="#FF8590"/>
<path d="M93.6592 96.8814C97.2906 96.8814 100.234 91.9711 100.234 85.9139C100.234 79.8566 97.2906 74.9463 93.6592 74.9463C90.0278 74.9463 87.084 79.8566 87.084 85.9139C87.084 91.9711 90.0278 96.8814 93.6592 96.8814Z" fill="#FFA3AB"/>
</g>
<rect x="144" y="202" width="34" height="14" transform="rotate(-90 144 202)" fill="#2A73FF"/>
<rect x="169" y="202" width="48" height="14" transform="rotate(-90 169 202)" fill="#2A73FF"/>
<rect x="195" y="202" width="66" height="15" transform="rotate(-90 195 202)" fill="#FF5D5D"/>
<path d="M309.291 101.479C309.291 103.866 307.307 105.855 304.927 105.855C302.546 105.855 300.562 103.866 300.562 101.479C300.562 99.0918 302.546 97.1025 304.927 97.1025C307.307 97.1025 309.291 99.0918 309.291 101.479Z" fill="#2B1710"/>
<path d="M263.767 137.484C253.749 137.584 246.708 133.506 246.708 132.611C246.708 131.616 246.608 124.853 246.212 124.156C245.815 123.46 242.542 123.361 242.145 123.062C241.748 122.764 241.252 121.57 241.252 121.57C240.459 121.769 239.269 122.863 239.963 124.156C240.558 125.449 242.343 126.345 242.343 126.345L242.145 135.893C241.55 140.269 256.031 151.31 263.172 151.807C268.825 150.216 263.767 137.484 263.767 137.484Z" fill="white"/>
<path d="M268.329 137.783C267.635 135.296 264.263 134.102 262.081 137.882C259.899 141.761 258.808 150.315 261.188 152.702C263.469 154.89 266.048 152.603 266.544 151.608C267.04 150.514 268.329 137.783 268.329 137.783Z" fill="#618AF2"/>
<path d="M295.207 124.156C286.876 128.234 279.139 138.28 265.651 137.783C260.791 144.049 262.675 150.116 264.857 152.503C271.998 155.885 287.768 152.901 294.81 148.027C300.761 143.949 303.042 135.296 295.207 124.156Z" fill="url(#paint0_linear_118_4758)"/>
<path d="M330.319 288.27L329.03 296.227C330.716 300.604 330.022 306.174 330.022 306.174L297.391 306.373C300.862 299.709 316.136 299.211 317.822 296.028C319.409 292.846 320.103 283.496 320.103 283.496L330.319 288.27Z" fill="#FF8762"/>
<path d="M322.979 296.725C322.979 295.531 322.186 291.453 319.21 290.26C318.814 292.547 318.318 294.736 317.723 296.029C316.136 299.211 300.862 299.709 297.291 306.373L329.922 306.273C329.922 306.273 330.616 300.703 328.93 296.327C329.029 296.327 323.078 298.814 322.979 296.725Z" fill="#2B1710"/>
<path d="M298.184 305.079C297.886 305.477 297.589 305.875 297.291 306.372L329.922 306.273C329.922 306.273 330.021 305.776 330.021 304.98L298.184 305.079Z" fill="#3D3D3D"/>
<path d="M320.104 297.62C320.004 297.62 320.004 297.52 319.905 297.52C319.905 297.52 319.409 296.128 318.417 295.73C318.021 295.531 317.624 295.531 317.128 295.73C317.029 295.73 316.93 295.73 316.93 295.63C316.93 295.531 316.93 295.431 317.029 295.431C317.525 295.232 318.12 295.232 318.616 295.431C319.707 295.929 320.203 297.321 320.302 297.421C320.302 297.421 320.302 297.52 320.104 297.62C320.104 297.62 320.203 297.62 320.104 297.62Z" fill="#3D3D3D"/>
<path d="M317.029 299.708C316.93 299.708 316.93 299.609 316.831 299.609C316.831 299.609 316.335 298.217 315.343 297.819C314.946 297.62 314.55 297.62 314.054 297.819C313.955 297.819 313.855 297.819 313.855 297.719C313.855 297.62 313.855 297.52 313.955 297.52C314.451 297.321 315.046 297.321 315.542 297.52C316.633 298.018 317.128 299.41 317.228 299.51C317.228 299.609 317.228 299.708 317.029 299.708C317.029 299.708 317.128 299.708 317.029 299.708Z" fill="#3D3D3D"/>
<path d="M311.971 301.201C311.872 301.201 311.872 301.101 311.772 301.101C311.772 301.101 311.276 299.709 310.285 299.311C309.888 299.112 309.491 299.112 308.995 299.311C308.896 299.311 308.797 299.311 308.797 299.211C308.797 299.112 308.797 299.012 308.896 299.012C309.392 298.814 309.987 298.814 310.483 299.012C311.574 299.51 312.07 300.902 312.169 301.002C312.169 301.101 312.169 301.201 311.971 301.201C312.07 301.201 312.07 301.201 311.971 301.201Z" fill="#3D3D3D"/>
<path d="M291.141 288.271L289.852 296.228C291.538 300.604 290.744 306.174 290.744 306.174H258.113C261.585 299.51 276.958 299.013 278.545 295.929C280.132 292.746 280.826 283.397 280.826 283.397L291.141 288.271Z" fill="#FF8762"/>
<path d="M283.901 296.725C284 295.531 283.108 291.453 280.132 290.26C279.735 292.547 279.24 294.736 278.644 296.029C277.058 299.211 261.783 299.709 258.213 306.273H290.844C290.844 306.273 291.538 300.703 289.951 296.327C289.852 296.327 284 298.814 283.901 296.725Z" fill="#2B1710"/>
<path d="M259.106 304.98C258.808 305.378 258.51 305.776 258.213 306.274H290.844C290.844 306.274 290.943 305.776 290.943 304.98H259.106Z" fill="#3D3D3D"/>
<path d="M281.025 297.52C280.926 297.52 280.926 297.421 280.827 297.421C280.827 297.421 280.331 296.029 279.339 295.631C278.943 295.432 278.546 295.432 278.05 295.631C277.951 295.631 277.852 295.631 277.852 295.531C277.852 295.432 277.852 295.332 277.951 295.332C278.546 295.133 279.042 295.133 279.538 295.332C280.629 295.83 281.125 297.222 281.224 297.322C281.224 297.421 281.125 297.52 281.025 297.52Z" fill="#3D3D3D"/>
<path d="M277.949 299.709C277.85 299.709 277.85 299.609 277.751 299.609C277.751 299.609 277.255 298.217 276.263 297.819C275.866 297.62 275.47 297.62 274.974 297.819C274.875 297.819 274.775 297.819 274.775 297.72C274.775 297.62 274.775 297.521 274.875 297.521C275.47 297.322 275.966 297.322 276.461 297.521C277.552 298.018 278.048 299.411 278.148 299.51C278.148 299.61 278.048 299.709 277.949 299.709Z" fill="#3D3D3D"/>
<path d="M272.893 301.201C272.793 301.201 272.793 301.101 272.694 301.101C272.694 301.101 272.198 299.709 271.206 299.311C270.81 299.112 270.413 299.112 269.917 299.311C269.818 299.311 269.719 299.311 269.719 299.211C269.719 299.112 269.719 299.012 269.818 299.012C270.413 298.814 270.909 298.814 271.405 299.012C272.496 299.51 272.992 300.902 273.091 301.002C273.091 301.002 272.992 301.101 272.893 301.201Z" fill="#3D3D3D"/>
<path d="M276.461 295.134H292.925L306.116 236.351L313.456 295.134H330.019C330.416 270.964 338.946 197.859 330.515 175.479H286.776C281.817 225.708 276.461 295.134 276.461 295.134Z" fill="#373131"/>
<path d="M318.218 121.571L307.606 121.173C302.448 121.372 295.009 124.157 295.009 124.157C293.423 127.141 289.356 149.122 286.777 175.281H330.517C332.6 148.127 327.64 125.549 327.64 125.549C323.673 122.565 318.218 121.571 318.218 121.571Z" fill="url(#paint1_linear_118_4758)"/>
<path d="M302.846 101.18C301.358 98.1966 302.746 93.2234 306.218 93.8202C309.689 94.417 318.219 95.4116 319.211 99.2906C319.806 101.678 318.814 107.844 318.12 110.033C317.425 112.221 312.764 113.414 312.764 113.414L302.846 101.18Z" fill="#2B1710"/>
<path d="M318.219 121.471C315.938 119.183 316.731 112.121 316.731 112.121L317.128 108.839C315.541 109.933 314.847 107.944 315.045 106.75C315.243 105.557 315.64 102.772 315.64 102.772C315.64 102.772 313.557 103.767 313.557 101.081C312.466 101.578 307.805 103.269 303.044 101.081C302.746 103.17 302.945 105.855 303.044 108.541C303.341 114.111 302.846 117.99 307.705 118.785C307.705 119.88 307.705 120.576 307.408 120.974C308.995 123.46 317.326 121.869 318.219 121.471Z" fill="white"/>
<path d="M305.424 106.452C305.424 107.148 305.126 107.745 304.729 107.745C304.333 107.745 304.035 107.148 304.035 106.452C304.035 105.756 304.333 105.159 304.729 105.159C305.126 105.259 305.424 105.756 305.424 106.452Z" fill="#2B1710"/>
<path d="M310.779 106.651C310.779 107.347 310.482 107.944 310.085 107.944C309.688 107.944 309.391 107.347 309.391 106.651C309.391 105.955 309.688 105.358 310.085 105.358C310.382 105.358 310.779 105.955 310.779 106.651Z" fill="#2B1710"/>
<path d="M305.921 110.232C305.127 110.232 303.243 110.132 303.044 109.933L302.945 109.834C302.945 109.635 303.243 109.337 304.334 108.143C305.028 107.447 305.921 106.552 305.921 106.253C306.119 105.557 306.02 104.861 305.822 103.966C305.822 103.866 305.822 103.866 305.921 103.866C306.02 103.866 306.02 103.866 306.02 103.966C306.318 104.861 306.318 105.657 306.119 106.353C306.02 106.651 305.425 107.347 304.433 108.342C303.937 108.939 303.243 109.536 303.144 109.834C303.441 109.933 304.731 110.033 305.822 110.033C305.921 110.033 305.921 110.132 305.921 110.132C306.02 110.232 306.02 110.232 305.921 110.232Z" fill="#2B1710"/>
<path d="M320.4 110.132C320.4 111.326 319.507 112.221 318.317 112.221C317.127 112.221 316.234 111.326 316.234 110.132C316.234 108.939 317.127 108.043 318.317 108.043C319.507 108.043 320.4 108.939 320.4 110.132Z" fill="white"/>
<path d="M317.921 111.226C317.822 111.226 317.822 111.226 317.822 111.127C317.822 111.027 317.822 110.928 317.921 110.928C318.12 110.828 318.219 110.729 318.219 110.629C318.219 110.53 318.12 110.331 318.02 110.232C317.822 110.132 317.723 110.132 317.525 110.232H317.425L317.326 110.132C317.326 109.635 317.723 109.237 318.219 109.038C318.814 108.839 319.31 109.038 319.607 109.436C319.607 109.535 319.607 109.635 319.607 109.635C319.508 109.635 319.409 109.635 319.409 109.635C319.111 109.237 318.616 109.237 318.318 109.336C318.02 109.436 317.723 109.635 317.624 109.933C317.822 109.933 318.02 109.933 318.219 110.033C318.417 110.232 318.616 110.43 318.516 110.729C318.417 110.828 318.318 111.127 317.921 111.226Z" fill="#E0B3A8"/>
<path d="M312.17 104.463C312.17 104.463 310.285 104.065 308.599 104.065C308.599 104.065 308.5 104.065 308.5 103.965C308.5 103.965 308.5 103.866 308.599 103.866C310.682 102.573 312.17 104.264 312.17 104.264C312.269 104.363 312.269 104.363 312.17 104.463C312.17 104.463 312.269 104.463 312.17 104.463Z" fill="#2B1710"/>
<path d="M302.944 104.363C302.944 104.363 302.845 104.264 302.944 104.363C302.845 104.264 302.944 104.264 302.944 104.264C303.44 102.971 304.928 103.269 305.226 103.965C305.226 103.965 305.325 103.965 305.325 104.065C305.325 104.065 305.325 104.164 305.226 104.164C305.226 104.065 303.837 104.065 302.944 104.363Z" fill="#2B1710"/>
<path d="M306.515 112.32C305.821 112.32 305.027 112.221 304.234 112.022C304.135 112.022 304.135 111.922 304.135 111.922C304.135 111.823 304.234 111.823 304.234 111.823C306.714 112.519 309.788 111.724 310.185 111.326H310.284V111.425C310.086 111.823 308.4 112.32 306.515 112.32Z" fill="#2B1710"/>
<path d="M303.637 101.28C306.048 101.28 308.001 99.3207 308.001 96.9037C308.001 94.4867 306.048 92.5273 303.637 92.5273C301.227 92.5273 299.273 94.4867 299.273 96.9037C299.273 99.3207 301.227 101.28 303.637 101.28Z" fill="#2B1710"/>
<path d="M331.706 173.789H286.182V176.574H331.706V173.789Z" fill="#2B1710"/>
<path d="M340.337 161.157C339.345 166.627 330.815 174.584 329.922 174.584C329.03 174.584 326.749 171.998 324.963 172.496C323.178 172.993 319.112 176.474 320.203 177.27C321.294 178.165 323.476 175.181 324.765 175.281C321.194 178.264 320.302 180.652 321.095 181.149C321.889 181.646 322.484 181.447 322.484 181.447C323.872 182.143 326.352 180.552 327.939 180.353C329.427 180.055 332.501 181.547 334.981 181.049C337.46 180.552 338.254 177.966 338.651 177.668C339.047 177.369 356.404 164.439 355.809 157.377C355.214 150.315 343.015 146.237 343.015 146.237L340.337 161.157Z" fill="white"/>
<path d="M346.387 146.635C348.37 145.342 351.048 148.028 351.346 150.216C351.544 152.305 341.725 162.45 339.245 162.45C336.766 162.351 335.476 159.864 337.361 157.775C339.245 155.488 346.387 146.635 346.387 146.635Z" fill="#618AF2"/>
<path d="M326.054 124.455C320.996 129.826 323.674 149.42 328.533 151.807C333.393 154.195 338.154 159.665 338.154 159.665C340.931 158.67 348.469 150.813 347.775 147.53C341.13 141.463 333.989 125.052 326.054 124.455Z" fill="url(#paint2_linear_118_4758)"/>
<path d="M327.839 175.778C327.74 175.778 326.649 175.38 325.558 175.281C325.459 175.281 325.459 175.181 325.459 175.082C325.459 174.982 325.558 174.982 325.657 174.982C326.748 175.082 327.939 175.48 327.939 175.48C328.038 175.48 328.038 175.579 328.038 175.679C327.939 175.778 327.939 175.778 327.839 175.778Z" fill="#E0B3A8"/>
<path d="M322.981 180.851C322.981 180.851 322.882 180.851 322.981 180.851C322.782 180.751 322.782 180.652 322.882 180.652C323.873 179.259 325.262 177.569 326.551 177.37C327.741 177.171 328.337 177.37 328.337 177.37C328.436 177.37 328.436 177.469 328.436 177.569C328.436 177.668 328.337 177.668 328.237 177.668C328.237 177.668 327.642 177.469 326.551 177.668C325.361 177.867 323.973 179.458 323.08 180.751C323.08 180.851 322.981 180.851 322.981 180.851Z" fill="#E0B3A8"/>
<path d="M289.853 173.292H288.266V177.171H289.853V173.292Z" fill="#203489"/>
<path d="M314.647 173.192H313.061V177.071H314.647V173.192Z" fill="#203489"/>
<path d="M309.588 123.46C309.588 123.46 305.72 126.046 305.72 126.146C305.224 128.235 305.918 132.014 306.017 131.915C308.398 131.616 309.489 132.412 309.489 132.412C311.472 131.119 312.167 127.638 312.167 127.638L309.588 123.46Z" fill="white"/>
<path d="M306.018 131.815C302.646 135.993 300.861 147.232 301.654 153.697C302.547 160.162 298.48 167.523 298.48 167.523L303.34 180.154C303.34 180.154 312.465 169.611 312.862 169.114C315.341 162.848 309.688 155.686 308.597 149.52C307.506 143.353 309.49 132.313 309.49 132.313C308.498 131.219 306.018 131.815 306.018 131.815Z" fill="#FF5D5D"/>
<g clip-path="url(#clip1_118_4758)">
<path d="M187.628 115.788H180.305V92.0762H187.628V115.788ZM180.915 115.018H186.865V92.846H180.915V115.018V115.018Z" fill="black"/>
<path d="M176.185 115.788H168.861V83.916H176.185V115.788ZM169.624 115.018H175.575V84.5319H169.624V115.018Z" fill="black"/>
<path d="M164.894 115.788H157.57V75.1396H164.894V115.788ZM158.333 115.018H164.284V75.9095H158.333V115.018Z" fill="black"/>
<path d="M198.917 115.788H191.594V83.6079H198.917V115.788ZM192.204 115.018H198.154V84.3778H192.204V115.018Z" fill="black"/>
<path d="M210.208 115.788H202.885V76.8335H210.208V115.788ZM203.648 115.018H209.445V77.4494H203.495V115.018H203.648Z" fill="black"/>
<path d="M185.338 78.065L159.858 70.6744C159.553 70.6744 159.553 70.5204 159.553 70.2125C159.553 70.0585 159.858 69.9046 160.01 69.9046L185.338 77.1412L210.513 63.4378C210.665 63.2838 210.971 63.4378 210.971 63.5918C210.971 63.8997 210.971 64.0537 210.818 64.2077L185.643 78.065C185.491 78.065 185.338 78.065 185.338 78.065Z" fill="black"/>
<path d="M208.425 69.7747C208.425 69.7747 208.272 69.7747 208.425 69.7747C208.12 69.6207 207.967 69.4668 208.12 69.3128L210.408 63.7699H204.305C204.153 63.7699 204 63.6159 204 63.4619C204 63.3079 204.153 63 204.305 63H210.866C211.018 63 211.018 63 211.171 63.154C211.171 63.3079 211.324 63.3079 211.171 63.4619L208.73 69.4668C208.73 69.6207 208.577 69.7747 208.425 69.7747Z" fill="black"/>
</g>
<defs>
<linearGradient id="paint0_linear_118_4758" x1="281.412" y1="124.156" x2="281.412" y2="153.949" gradientUnits="userSpaceOnUse">
<stop stop-color="#C8C0C4"/>
<stop offset="0.567708" stop-color="#2A72FF"/>
</linearGradient>
<linearGradient id="paint1_linear_118_4758" x1="308.902" y1="121.173" x2="308.902" y2="175.281" gradientUnits="userSpaceOnUse">
<stop stop-color="#C8C0C4"/>
<stop offset="0.567708" stop-color="#2A72FF"/>
</linearGradient>
<linearGradient id="paint2_linear_118_4758" x1="335.577" y1="124.455" x2="335.577" y2="159.665" gradientUnits="userSpaceOnUse">
<stop stop-color="#C8C0C4"/>
<stop offset="0.567708" stop-color="#2A72FF"/>
</linearGradient>
<clipPath id="clip0_118_4758">
<rect width="129.058" height="116.302" fill="white" transform="translate(0 31)"/>
</clipPath>
<clipPath id="clip1_118_4758">
<rect width="54.7745" height="53.2738" fill="white" transform="translate(157.57 62.5142)"/>
</clipPath>
</defs>
</svg>
