<svg width="356" height="356" viewBox="0 0 356 356" fill="none" xmlns="http://www.w3.org/2000/svg">
<path d="M284.536 234.086H62.8205C58.6106 234.086 55 230.141 55 224.913V53.1731C55 47.9452 58.6106 44 62.8205 44H284.536C288.746 44 292.357 47.9452 292.357 53.1731V224.913C292.357 230.141 288.746 234.086 284.536 234.086Z" fill="#C8C0C4" stroke="black" stroke-width="2"/>
<path d="M54.6 272.34C53.3733 271.073 52.76 269.293 52.76 267C52.76 264.707 53.3733 262.927 54.6 261.66C55.8267 260.393 57.5733 259.76 59.84 259.76C62.1067 259.76 63.8533 260.393 65.08 261.66C66.3067 262.927 66.92 264.707 66.92 267C66.92 269.293 66.3067 271.073 65.08 272.34C63.8533 273.607 62.1067 274.24 59.84 274.24C57.5733 274.24 55.8267 273.607 54.6 272.34ZM57.4 263.96C56.8133 264.707 56.52 265.72 56.52 267C56.52 268.28 56.8133 269.3 57.4 270.06C58 270.807 58.8133 271.18 59.84 271.18C60.88 271.18 61.6933 270.807 62.28 270.06C62.8667 269.3 63.16 268.28 63.16 267C63.16 265.72 62.8667 264.707 62.28 263.96C61.6933 263.2 60.88 262.82 59.84 262.82C58.8133 262.82 58 263.2 57.4 263.96ZM68.7636 274V263.52H79.2436V274H75.6436V266.48H72.3636V274H68.7636ZM81.0003 268.76C81.0003 266.933 81.5203 265.567 82.5603 264.66C83.6136 263.74 85.0403 263.28 86.8403 263.28C88.6936 263.28 90.0736 263.773 90.9803 264.76C91.9003 265.747 92.3603 267.313 92.3603 269.46V269.82H84.6203C84.847 271.087 85.6336 271.72 86.9803 271.72C87.7936 271.72 88.3936 271.42 88.7803 270.82L92.2403 271.02C91.947 272.047 91.347 272.84 90.4403 273.4C89.547 273.96 88.3936 274.24 86.9803 274.24C85.1403 274.24 83.6803 273.793 82.6003 272.9C81.5336 271.993 81.0003 270.613 81.0003 268.76ZM84.6203 267.58H88.8203C88.6736 266.393 88.0136 265.8 86.8403 265.8C85.627 265.8 84.887 266.393 84.6203 267.58ZM94.0761 278V263.52H97.4361V265.14C98.1961 263.9 99.3294 263.28 100.836 263.28C102.169 263.28 103.269 263.773 104.136 264.76C105.003 265.733 105.436 267.067 105.436 268.76C105.436 270.44 105.003 271.773 104.136 272.76C103.283 273.747 102.196 274.24 100.876 274.24C99.5161 274.24 98.4494 273.72 97.6761 272.68V278H94.0761ZM98.0961 266.82C97.7094 267.313 97.5161 267.96 97.5161 268.76C97.5161 269.56 97.7094 270.207 98.0961 270.7C98.4961 271.193 99.0294 271.44 99.6961 271.44C100.363 271.44 100.889 271.193 101.276 270.7C101.676 270.207 101.876 269.56 101.876 268.76C101.876 267.96 101.676 267.313 101.276 266.82C100.889 266.327 100.363 266.08 99.6961 266.08C99.0294 266.08 98.4961 266.327 98.0961 266.82ZM106.685 271.02C106.685 269.02 108.238 267.873 111.345 267.58L113.705 267.36V267.32C113.705 266.32 113.192 265.813 112.165 265.8C111.178 265.8 110.645 266.167 110.565 266.9H107.285C107.298 266.233 107.445 265.653 107.725 265.16C108.005 264.667 108.378 264.293 108.845 264.04C109.325 263.773 109.838 263.58 110.385 263.46C110.932 263.34 111.525 263.28 112.165 263.28C113.792 263.28 115.052 263.673 115.945 264.46C116.852 265.247 117.305 266.453 117.305 268.08V274H113.945V272.36C113.118 273.613 111.898 274.24 110.285 274.24C109.138 274.24 108.252 273.947 107.625 273.36C106.998 272.76 106.685 271.98 106.685 271.02ZM110.245 270.82C110.245 271.46 110.652 271.78 111.465 271.78C112.092 271.78 112.618 271.58 113.045 271.18C113.485 270.767 113.705 270.3 113.705 269.78V269.48L111.825 269.66C110.772 269.753 110.245 270.14 110.245 270.82ZM119.389 274V263.52H122.989V271.04H126.269V263.52H129.869V271.04H131.309V276.74H127.909V274H119.389ZM138.65 263.52H143.95V274H140.51V266.56L137.97 274H132.67V263.52H136.11V270.96L138.65 263.52ZM147.267 272.76C146.227 271.773 145.707 270.44 145.707 268.76C145.707 267.08 146.227 265.747 147.267 264.76C148.321 263.773 149.734 263.28 151.507 263.28C153.281 263.28 154.687 263.773 155.727 264.76C156.781 265.747 157.307 267.08 157.307 268.76C157.307 270.44 156.781 271.773 155.727 272.76C154.687 273.747 153.281 274.24 151.507 274.24C149.734 274.24 148.321 273.747 147.267 272.76ZM149.867 266.84C149.467 267.333 149.267 267.973 149.267 268.76C149.267 269.547 149.467 270.193 149.867 270.7C150.267 271.193 150.814 271.44 151.507 271.44C152.201 271.44 152.747 271.193 153.147 270.7C153.547 270.193 153.747 269.547 153.747 268.76C153.747 267.973 153.547 267.333 153.147 266.84C152.747 266.333 152.201 266.08 151.507 266.08C150.814 266.08 150.267 266.333 149.867 266.84ZM159.076 274V263.52H162.676V267.18H166.076V263.52H169.676V274H166.076V270.14H162.676V274H159.076ZM171.83 274V263.52H175.43V267.18H178.83V263.52H182.43V274H178.83V270.14H175.43V274H171.83ZM184.224 271.02C184.224 269.02 185.777 267.873 188.884 267.58L191.244 267.36V267.32C191.244 266.32 190.731 265.813 189.704 265.8C188.717 265.8 188.184 266.167 188.104 266.9H184.824C184.837 266.233 184.984 265.653 185.264 265.16C185.544 264.667 185.917 264.293 186.384 264.04C186.864 263.773 187.377 263.58 187.924 263.46C188.471 263.34 189.064 263.28 189.704 263.28C191.331 263.28 192.591 263.673 193.484 264.46C194.391 265.247 194.844 266.453 194.844 268.08V274H191.484V272.36C190.657 273.613 189.437 274.24 187.824 274.24C186.677 274.24 185.791 273.947 185.164 273.36C184.537 272.76 184.224 271.98 184.224 271.02ZM187.784 270.82C187.784 271.46 188.191 271.78 189.004 271.78C189.631 271.78 190.157 271.58 190.584 271.18C191.024 270.767 191.244 270.3 191.244 269.78V269.48L189.364 269.66C188.311 269.753 187.784 270.14 187.784 270.82ZM201.288 263.52H206.828V274H203.228V270.36H202.568L200.408 274H196.208L199.108 270.1C197.454 269.66 196.628 268.607 196.628 266.94C196.628 264.66 198.181 263.52 201.288 263.52ZM201.748 266.24C200.734 266.24 200.228 266.553 200.228 267.18C200.228 267.807 200.734 268.12 201.748 268.12H203.228V266.24H201.748ZM52.72 300.02C52.72 298.02 54.2733 296.873 57.38 296.58L59.74 296.36V296.32C59.74 295.32 59.2267 294.813 58.2 294.8C57.2133 294.8 56.68 295.167 56.6 295.9H53.32C53.3333 295.233 53.48 294.653 53.76 294.16C54.04 293.667 54.4133 293.293 54.88 293.04C55.36 292.773 55.8733 292.58 56.42 292.46C56.9667 292.34 57.56 292.28 58.2 292.28C59.8267 292.28 61.0867 292.673 61.98 293.46C62.8867 294.247 63.34 295.453 63.34 297.08V303H59.98V301.36C59.1533 302.613 57.9333 303.24 56.32 303.24C55.1733 303.24 54.2867 302.947 53.66 302.36C53.0333 301.76 52.72 300.98 52.72 300.02ZM56.28 299.82C56.28 300.46 56.6867 300.78 57.5 300.78C58.1267 300.78 58.6533 300.58 59.08 300.18C59.52 299.767 59.74 299.3 59.74 298.78V298.48L57.86 298.66C56.8067 298.753 56.28 299.14 56.28 299.82ZM65.4238 303V292.52H69.0238V296.18H72.4238V292.52H76.0238V303H72.4238V299.14H69.0238V303H65.4238ZM77.8177 300.02C77.8177 298.02 79.371 296.873 82.4777 296.58L84.8377 296.36V296.32C84.8377 295.32 84.3243 294.813 83.2977 294.8C82.311 294.8 81.7777 295.167 81.6977 295.9H78.4177C78.431 295.233 78.5777 294.653 78.8577 294.16C79.1377 293.667 79.511 293.293 79.9777 293.04C80.4577 292.773 80.971 292.58 81.5177 292.46C82.0643 292.34 82.6577 292.28 83.2977 292.28C84.9243 292.28 86.1843 292.673 87.0777 293.46C87.9843 294.247 88.4377 295.453 88.4377 297.08V303H85.0777V301.36C84.251 302.613 83.031 303.24 81.4177 303.24C80.271 303.24 79.3843 302.947 78.7577 302.36C78.131 301.76 77.8177 300.98 77.8177 300.02ZM81.3777 299.82C81.3777 300.46 81.7843 300.78 82.5977 300.78C83.2243 300.78 83.751 300.58 84.1777 300.18C84.6177 299.767 84.8377 299.3 84.8377 298.78V298.48L82.9577 298.66C81.9043 298.753 81.3777 299.14 81.3777 299.82ZM91.8614 292.52H101.041V303H97.4414V295.48H95.0014C94.8147 297.96 94.6614 299.5 94.5414 300.1C94.2614 301.54 93.6947 302.46 92.8414 302.86C92.4014 303.06 91.8747 303.16 91.2614 303.16C90.7681 303.16 90.3081 303.12 89.8814 303.04V300.12C90.0281 300.147 90.1881 300.16 90.3614 300.16C90.5481 300.16 90.7147 300.087 90.8614 299.94C91.0081 299.793 91.1281 299.567 91.2214 299.26C91.3147 298.953 91.3881 298.633 91.4414 298.3C91.5081 297.967 91.5614 297.547 91.6014 297.04C91.6414 296.52 91.6747 296.053 91.7014 295.64C91.7281 295.213 91.7547 294.693 91.7814 294.08C91.8081 293.453 91.8347 292.933 91.8614 292.52ZM109.177 292.52H114.477V303H111.037V295.56L108.497 303H103.197V292.52H106.637V299.96L109.177 292.52ZM115.915 295.48V292.52H126.435V295.48H122.975V303H119.375V295.48H115.915ZM133.845 292.52H139.145V303H135.705V295.56L133.165 303H127.865V292.52H131.305V299.96L133.845 292.52ZM152.283 303H147.883L145.283 299.14H144.903V303H141.303V292.52H144.903V296.34H145.323L147.763 292.52H151.963L147.903 297.42L152.283 303ZM152.681 300.02C152.681 298.02 154.234 296.873 157.341 296.58L159.701 296.36V296.32C159.701 295.32 159.188 294.813 158.161 294.8C157.174 294.8 156.641 295.167 156.561 295.9H153.281C153.294 295.233 153.441 294.653 153.721 294.16C154.001 293.667 154.374 293.293 154.841 293.04C155.321 292.773 155.834 292.58 156.381 292.46C156.928 292.34 157.521 292.28 158.161 292.28C159.788 292.28 161.048 292.673 161.941 293.46C162.848 294.247 163.301 295.453 163.301 297.08V303H159.941V301.36C159.114 302.613 157.894 303.24 156.281 303.24C155.134 303.24 154.248 302.947 153.621 302.36C152.994 301.76 152.681 300.98 152.681 300.02ZM156.241 299.82C156.241 300.46 156.648 300.78 157.461 300.78C158.088 300.78 158.614 300.58 159.041 300.18C159.481 299.767 159.701 299.3 159.701 298.78V298.48L157.821 298.66C156.768 298.753 156.241 299.14 156.241 299.82Z" fill="black"/>
<g clip-path="url(#clip0_118_4756)">
<path d="M72.2967 37.6417C66.7748 28.0991 61.573 17.8408 68.6154 17.9999C75.6579 18.1589 85.4212 22.0555 91.7434 21.1012C98.0655 20.147 102.067 19.1132 102.307 21.2603C102.467 23.4869 94.1442 37.4031 89.5026 38.3574C84.861 39.3116 72.2967 37.6417 72.2967 37.6417Z" fill="#2A73FF"/>
<circle cx="81.5" cy="85.5" r="49.5" fill="#2A73FF"/>
<circle cx="81.5" cy="84.5" r="25.5" fill="#FF5D5D"/>
<path d="M79.3483 98V94.6613C77.3246 94.5887 75.2287 94.0081 74 93.2097L74.8673 91.0323C76.0959 91.8306 77.9751 92.4839 79.9265 92.4839C82.456 92.4839 84.1183 91.1774 84.1183 89.2903C84.1183 87.4758 82.7451 86.3871 80.1433 85.371C76.5296 84.0645 74.3614 82.5403 74.3614 79.6371C74.3614 76.879 76.4573 74.8468 79.7096 74.3387V71H81.8779V74.1935C83.9738 74.2661 85.4193 74.7742 86.4311 75.3548L85.5638 77.5323C84.8411 77.1694 83.3956 76.371 81.1551 76.371C78.481 76.371 77.3969 77.8952 77.3969 79.2016C77.3969 80.9435 78.6978 81.7419 81.7333 82.9758C85.347 84.3548 87.1538 86.0968 87.1538 89C87.1538 91.6129 85.2025 94.0081 81.5888 94.5887V98H79.3483Z" fill="white"/>
<path d="M90.7038 40.4247H71.9773C70.937 40.4247 70.1367 39.6295 70.1367 38.5957V38.1981C70.1367 37.1644 70.937 36.3691 71.9773 36.3691H90.7038C91.7441 36.3691 92.5444 37.1644 92.5444 38.1981V38.5957C92.5444 39.6295 91.7441 40.4247 90.7038 40.4247Z" fill="#4D7DE0"/>
</g>
<path d="M182.593 136.662H153.672C150.586 136.662 148.117 134.19 148.117 131.101V102.15C148.117 99.0603 150.586 96.5889 153.672 96.5889H182.593C185.679 96.5889 188.148 99.0603 188.148 102.15V131.189C188.148 134.19 185.679 136.662 182.593 136.662Z" fill="black"/>
<path d="M223.859 136.662H194.938C191.852 136.662 189.383 134.19 189.383 131.101V102.15C189.383 99.0603 191.852 96.5889 194.938 96.5889H223.859C226.945 96.5889 229.414 99.0603 229.414 102.15V131.189C229.326 134.19 226.857 136.662 223.859 136.662Z" fill="black"/>
<path d="M182.593 178.059H153.672C150.586 178.059 148.117 175.587 148.117 172.498V143.547C148.117 140.457 150.586 137.986 153.672 137.986H182.593C185.679 137.986 188.148 140.457 188.148 143.547V172.498C188.148 175.587 185.679 178.059 182.593 178.059Z" fill="black"/>
<path d="M166.194 111.859C166.194 116.537 163.725 118.832 160.903 118.832C158.17 118.832 155.789 116.625 155.789 112.212C155.789 107.799 158.17 105.327 161.08 105.327C164.166 105.239 166.194 107.622 166.194 111.859ZM158.082 112.035C157.993 114.86 159.052 116.978 160.903 116.978C162.843 116.978 163.725 114.86 163.725 111.947C163.725 109.299 162.931 107.004 160.903 107.004C159.14 107.092 158.082 109.299 158.082 112.035ZM160.727 128.1L173.688 105.327H175.628L162.578 128.1H160.727ZM180.478 120.95C180.478 125.628 178.009 127.923 175.187 127.923C172.454 127.923 170.073 125.716 170.073 121.303C170.073 116.89 172.454 114.418 175.364 114.418C178.538 114.418 180.478 116.802 180.478 120.95ZM172.454 121.215C172.454 124.039 173.512 126.158 175.364 126.158C177.304 126.158 178.185 124.039 178.185 121.127C178.185 118.479 177.392 116.184 175.364 116.184C173.424 116.184 172.454 118.39 172.454 121.215Z" fill="white"/>
<path d="M178.184 156.08H158.168V160.052H178.184V156.08Z" fill="white"/>
<path d="M219.363 152.461H199.348V156.433H219.363V152.461Z" fill="white"/>
<path d="M219.363 159.699H199.348V163.671H219.363V159.699Z" fill="white"/>
<path d="M219.363 114.684H211.339V106.651H207.372V114.684H199.348V118.656H207.372V126.688H211.339V118.656H219.363V114.684Z" fill="white"/>
<path d="M256.864 93.8284C258.507 92.4588 260.424 90.3588 260.424 90.3588C260.059 89.9935 258.416 89.8109 257.503 90.4501C256.59 91.1805 254.582 92.0023 254.948 89.8109C255.404 87.6196 255.039 81.0456 253.944 81.0456C252.757 80.9543 253.578 88.2587 252.848 87.0717C252.118 85.8848 251.479 81.5021 250.84 81.2282C250.201 80.863 249.563 80.863 249.197 81.776C247.92 81.776 247.281 82.963 247.189 83.4195C247.189 83.876 247.189 86.9804 246.824 86.4326C246.459 85.8848 246.094 83.6021 245.364 84.0587C244.634 84.5152 245.182 87.8022 245.455 90.9066C245.638 93.4632 247.555 96.3849 248.285 98.1198C248.467 98.5763 248.741 99.4893 248.65 99.9459L253.578 98.7589C253.305 95.0154 255.313 95.198 256.864 93.8284Z" fill="white"/>
<path d="M247.373 90.8153C247.373 90.8153 247.373 90.724 247.464 90.724C247.92 90.6327 249.381 90.724 250.476 92.1849C250.932 91.7284 252.849 89.6283 254.036 90.2675C254.036 90.2675 254.127 90.3588 254.036 90.3588C254.036 90.3588 253.944 90.4501 253.944 90.3588C252.849 89.7196 250.567 92.2762 250.567 92.2762C250.567 92.2762 250.567 92.2762 250.476 92.2762H250.385C249.289 90.8153 247.92 90.724 247.464 90.8153C247.464 90.9066 247.373 90.9066 247.373 90.8153Z" fill="#E0B3A8"/>
<path d="M249.563 83.5107C249.563 83.2368 249.472 82.8716 249.472 82.5977C249.472 82.5063 249.472 82.5063 249.563 82.5063C249.654 82.5063 249.654 82.5063 249.654 82.5977C249.745 84.5151 250.293 87.3456 250.293 87.4369C250.293 87.5282 250.293 87.5282 250.202 87.5282C250.11 87.5282 250.11 87.5282 250.11 87.4369C250.202 87.4369 249.837 85.3368 249.563 83.5107Z" fill="#E0B3A8"/>
<path d="M249.107 87.9847C249.107 87.9847 249.107 87.8934 249.198 87.8934C249.198 87.8934 250.111 87.4369 251.297 87.5282C251.389 87.5282 251.389 87.6195 251.389 87.6195C251.389 87.7108 251.297 87.7108 251.297 87.7108C250.202 87.6195 249.289 87.9847 249.289 88.076C249.198 88.076 249.198 88.076 249.107 87.9847Z" fill="#E0B3A8"/>
<path d="M285.34 131.355C271.193 136.742 254.856 116.929 254.856 97.3892L246.276 97.6631C244.086 117.203 254.308 159.112 282.602 155.825C290.999 141.216 285.34 131.355 285.34 131.355Z" fill="#D1E3FF"/>
<path d="M289.54 104.876C284.429 104.694 282.238 110.994 283.516 113.642C284.794 116.29 285.25 118.298 283.333 122.955C281.325 127.612 284.976 134.094 294.469 135.647C307.064 137.747 321.302 129.894 324.132 122.407C326.961 114.92 321.576 108.255 315.461 111.542C309.346 114.829 302.227 108.529 302.227 108.529L289.54 104.876Z" fill="#242424"/>
<path d="M289.905 300.18C289.175 298.719 288.354 295.888 288.536 291.871C288.719 290.319 288.993 288.492 289.267 286.301C289.449 285.205 289.54 284.019 289.723 282.832L282.512 284.749C282.604 286.027 282.786 287.306 282.878 288.401C283.06 290.775 283.06 293.149 282.604 295.523C282.512 296.253 282.33 296.801 282.147 297.167C281.6 298.354 277.401 302.371 275.485 305.841C275.302 306.297 271.012 306.936 271.651 307.941C272.016 308.123 279.501 308.762 280.322 307.941C281.143 307.119 283.151 305.11 285.342 304.654C285.524 304.654 285.524 308.306 285.524 308.306H288.719C288.719 308.306 289.084 305.11 289.267 304.106C289.54 303.101 290.636 301.641 289.905 300.18Z" fill="white"/>
<path d="M316.28 300.18C315.55 298.719 314.729 295.888 314.911 291.871C315.094 290.319 315.368 288.492 315.642 286.301C315.824 285.205 315.915 284.019 316.098 282.832L308.887 284.749C308.979 286.027 309.161 287.306 309.253 288.401C309.435 290.775 309.435 293.149 308.979 295.523C308.887 296.253 308.705 296.801 308.522 297.167C307.975 298.354 303.776 302.371 301.86 305.841C301.677 306.297 297.387 306.936 298.026 307.941C298.391 308.123 305.876 308.762 306.697 307.941C307.518 307.119 309.526 305.11 311.717 304.654C311.899 304.654 311.899 308.306 311.899 308.306H315.094C315.094 308.306 315.459 305.11 315.642 304.106C315.915 303.101 317.011 301.641 316.28 300.18Z" fill="white"/>
<mask id="path-24-inside-1_118_4756" fill="white">
<path d="M290.269 130.625L285.34 131.355C284.702 138.112 278.586 145.325 278.313 149.068C278.039 152.812 282.876 158.381 284.793 161.851C286.801 165.321 286.801 168.425 286.801 168.425H307.428C307.428 167.512 312.357 144.412 311.809 138.751C311.261 133.09 303.868 130.898 303.868 130.898C303.868 130.898 296.384 131.629 290.269 130.625Z"/>
</mask>
<path d="M290.269 130.625L277.075 41.5969L290.982 39.5358L304.855 41.8144L290.269 130.625ZM285.34 131.355L195.74 122.882L202.38 52.6671L272.146 42.3274L285.34 131.355ZM284.793 161.851L206.897 206.932L206.448 206.155L206.014 205.37L284.793 161.851ZM286.801 168.425V258.425H196.801L196.801 168.425L286.801 168.425ZM307.428 168.425H397.428V258.425H307.428V168.425ZM303.868 130.898L295.126 41.324L312.606 39.618L329.445 44.6092L303.868 130.898ZM303.463 219.652L298.535 220.383L272.146 42.3274L277.075 41.5969L303.463 219.652ZM374.941 139.827C373.702 152.926 370.165 163.332 367.686 169.592C365.165 175.955 362.471 181.098 361.301 183.318C360.973 183.939 360.668 184.51 360.469 184.883C360.235 185.322 360.137 185.505 360.051 185.668C359.842 186.064 360.197 185.41 360.722 184.305C361.202 183.296 362.491 180.53 363.817 176.656C365.035 173.098 367.343 165.607 368.073 155.634L188.552 142.503C189.35 131.593 191.91 123.058 193.517 118.363C195.232 113.352 197.049 109.355 198.15 107.038C199.297 104.624 200.368 102.585 200.925 101.532C201.222 100.971 201.519 100.414 201.688 100.099C201.891 99.7187 201.995 99.5229 202.078 99.3647C202.551 98.4689 201.523 100.308 200.337 103.301C199.192 106.192 196.659 113.162 195.74 122.882L374.941 139.827ZM368.073 155.634C368.791 145.812 367.696 137.626 366.472 131.863C365.243 126.071 363.624 121.509 362.403 118.482C360.103 112.782 357.762 109.012 357.336 108.322C356.872 107.569 356.4 106.885 357.611 108.685C357.985 109.241 360.878 113.457 363.571 118.332L206.014 205.37C207.749 208.511 209.319 210.729 208.255 209.148C208.028 208.811 206.005 205.85 204.126 202.803C202.286 199.818 198.667 193.738 195.477 185.832C192.658 178.844 187.052 163.01 188.552 142.503L368.073 155.634ZM362.689 116.771C369.484 128.512 372.905 139.632 374.673 148.156C375.571 152.485 376.096 156.395 376.4 159.741C376.553 161.424 376.653 162.994 376.715 164.438C376.745 165.161 376.767 165.855 376.781 166.519C376.788 166.851 376.793 167.176 376.796 167.494C376.798 167.653 376.799 167.81 376.8 167.965C376.8 168.042 376.8 168.12 376.8 168.196C376.801 168.235 376.801 168.273 376.801 168.311C376.801 168.33 376.801 168.359 376.801 168.368C376.801 168.397 376.801 168.425 286.801 168.425C196.801 168.425 196.801 168.454 196.801 168.482C196.801 168.492 196.801 168.52 196.801 168.539C196.801 168.577 196.801 168.615 196.801 168.653C196.801 168.729 196.802 168.805 196.802 168.881C196.803 169.033 196.804 169.186 196.805 169.338C196.809 169.644 196.813 169.951 196.82 170.26C196.833 170.877 196.852 171.501 196.879 172.132C196.933 173.392 197.017 174.693 197.139 176.031C197.38 178.686 197.779 181.604 198.426 184.722C199.693 190.826 202.11 198.66 206.897 206.932L362.689 116.771ZM286.801 78.4251H307.428V258.425H286.801V78.4251ZM217.428 168.425C217.428 164.193 217.737 160.891 217.834 159.866C217.974 158.39 218.123 157.203 218.213 156.52C218.394 155.151 218.571 154.047 218.655 153.53C218.836 152.418 219.016 151.425 219.111 150.908C219.315 149.792 219.579 148.413 219.777 147.37C220.235 144.964 220.729 142.362 221.192 139.733C221.683 136.955 221.974 135.066 222.1 134.099C222.164 133.6 222.083 134.115 221.998 135.322C221.954 135.955 221.878 137.2 221.857 138.88C221.838 140.377 221.843 143.443 222.227 147.417L401.391 130.085C402.193 138.374 401.739 145.319 401.558 147.905C401.309 151.463 400.932 154.718 400.612 157.196C399.967 162.18 399.129 167.185 398.455 171.003C397.755 174.972 397.051 178.67 396.602 181.028C396.347 182.369 396.23 182.988 396.167 183.332C396.127 183.546 396.203 183.148 396.312 182.477C396.36 182.181 396.509 181.259 396.671 180.031C396.752 179.419 396.894 178.292 397.029 176.866C397.122 175.892 397.428 172.629 397.428 168.425H217.428ZM222.227 147.417C225.845 184.809 251.283 203.38 258.32 207.989C263.176 211.17 267.43 213.155 270.262 214.341C271.791 214.982 273.217 215.518 274.512 215.971C275.167 216.199 275.808 216.413 276.433 216.614C276.747 216.715 277.058 216.813 277.367 216.908C277.522 216.956 277.676 217.003 277.83 217.049C277.907 217.073 277.984 217.096 278.061 217.119C278.1 217.13 278.138 217.142 278.176 217.153C278.196 217.159 278.224 217.168 278.234 217.171C278.263 217.179 278.292 217.188 303.868 130.898C329.445 44.6092 329.474 44.6178 329.503 44.6264C329.513 44.6293 329.542 44.6379 329.561 44.6437C329.6 44.6553 329.639 44.6669 329.679 44.6787C329.757 44.7023 329.837 44.7262 329.917 44.7506C330.079 44.7993 330.244 44.8496 330.412 44.9017C330.749 45.0057 331.102 45.1166 331.47 45.2346C332.204 45.4703 333.004 45.737 333.862 46.0367C335.564 46.631 337.572 47.3828 339.802 48.3171C344.038 50.0911 350.174 52.9783 356.947 57.4146C367.817 64.5347 397.226 87.0313 401.391 130.085L222.227 147.417ZM303.868 130.898C312.611 220.473 312.601 220.474 312.592 220.475C312.589 220.475 312.58 220.476 312.573 220.476C312.561 220.478 312.548 220.479 312.535 220.48C312.509 220.483 312.483 220.485 312.456 220.488C312.402 220.493 312.345 220.498 312.287 220.504C312.17 220.515 312.044 220.527 311.909 220.539C311.639 220.563 311.333 220.59 310.994 220.618C310.317 220.675 309.495 220.738 308.55 220.8C306.689 220.923 304.206 221.054 301.31 221.117C296.407 221.223 286.689 221.242 275.683 219.435L304.855 41.8144C302.001 41.3456 299.981 41.2267 299.163 41.1886C298.23 41.1451 297.635 41.1544 297.414 41.1592C297.154 41.1648 296.923 41.1759 296.657 41.1935C296.51 41.2033 296.32 41.2172 296.076 41.2374C295.953 41.2477 295.814 41.2597 295.657 41.274C295.579 41.2811 295.495 41.2888 295.407 41.2971C295.363 41.3013 295.317 41.3056 295.27 41.3101C295.247 41.3123 295.223 41.3146 295.199 41.3169C295.187 41.3181 295.175 41.3193 295.163 41.3204C295.157 41.321 295.148 41.3219 295.145 41.3222C295.135 41.3231 295.126 41.324 303.868 130.898Z" fill="url(#paint0_linear_118_4756)" mask="url(#path-24-inside-1_118_4756)"/>
<path d="M307.728 169.986H286.188V167.977H307.728V169.986Z" fill="#242424"/>
<path d="M286.475 170C279.174 177.396 275.432 191.457 276.07 201.592C276.709 211.727 276.527 295.272 276.527 295.272H294.872L296.059 199.035L302.357 295.272H321.889C321.889 295.272 320.52 207.892 318.603 193.831C316.686 179.77 308.015 170 308.015 170H286.475Z" fill="#FF5D5D"/>
<path d="M295.655 197.095C295.564 197.095 295.564 197.004 295.564 197.004L294.56 187.6C294.194 187.508 293.008 187.234 292.643 186.96C292.004 186.504 292.825 171.804 292.825 171.621C292.825 171.53 292.917 171.53 293.008 171.53C293.099 171.53 293.099 171.621 293.099 171.712C292.825 175.821 292.552 186.23 292.825 186.778C293.099 186.96 294.286 187.234 294.742 187.326C294.833 187.326 294.833 187.417 294.833 187.417L295.746 196.913C295.746 197.004 295.746 197.095 295.655 197.095Z" fill="#BFBFBF"/>
<path d="M310.805 184.86C304.781 184.404 301.404 180.113 300.765 172.169C300.765 172.078 300.857 172.078 300.857 171.986C300.948 171.986 300.948 172.078 301.039 172.078C301.678 179.93 304.964 184.13 310.805 184.587C310.896 184.587 310.896 184.678 310.896 184.769C310.896 184.769 310.896 184.86 310.805 184.86Z" fill="#BFBFBF"/>
<path d="M318.105 290.867C318.014 290.867 318.014 290.775 318.014 290.775C318.014 290.045 315.732 216.635 314.911 208.509V208.326C314.089 200.2 312.173 181.208 306.057 172.078C306.057 171.986 306.057 171.895 306.057 171.895C306.149 171.895 306.24 171.895 306.24 171.895C312.446 181.026 314.272 200.109 315.093 208.235V208.417C315.915 216.635 318.197 289.953 318.197 290.775C318.288 290.867 318.197 290.867 318.105 290.867Z" fill="#BFBFBF"/>
<path d="M320.752 291.779H302.224C302.133 291.779 302.133 291.688 302.133 291.688C302.133 291.597 302.224 291.597 302.224 291.597H320.752C320.844 291.597 320.844 291.688 320.844 291.688C320.844 291.688 320.844 291.779 320.752 291.779Z" fill="#BFBFBF"/>
<path d="M293.828 291.779H276.669C276.578 291.779 276.578 291.688 276.578 291.688C276.578 291.597 276.669 291.597 276.669 291.597H293.828C293.919 291.597 293.919 291.688 293.919 291.688C294.01 291.688 293.919 291.779 293.828 291.779Z" fill="#BFBFBF"/>
<path d="M278.456 177.714C276.688 176.492 274.141 175.245 274.141 175.245C273.882 175.632 274.169 177.33 275.043 178.084C275.951 178.755 277.39 180.533 275.15 180.695C272.91 180.858 266.664 182.825 266.956 184.032C267.164 185.203 274.011 182.496 272.982 183.553C271.988 184.525 267.983 186.33 267.873 187.075C267.678 187.784 267.891 188.464 268.875 188.475C269.252 189.716 270.503 190.034 271.03 189.955C271.556 189.876 274.483 189.009 273.986 189.495C273.573 190.016 271.426 190.908 272.082 191.474C272.737 192.041 275.753 190.717 278.665 189.646C281.1 188.774 283.367 186.154 284.838 184.984C285.266 184.666 286.051 184.2 286.493 184.086L284.082 179.638C280.609 180.872 280.223 178.936 278.456 177.714Z" fill="white"/>
<path d="M278.107 187.643L278.023 187.608C277.79 187.216 277.567 185.841 278.602 184.293C278.046 183.965 275.449 182.598 275.852 181.382C275.887 181.298 275.887 181.298 275.971 181.333C276.056 181.368 276.056 181.368 276.021 181.452C275.702 182.703 278.756 184.159 278.756 184.159L278.84 184.193L278.805 184.278C277.771 185.826 277.993 187.201 278.142 187.558C278.226 187.593 278.192 187.677 278.107 187.643Z" fill="#E0B3A8"/>
<path d="M270.478 187.459C270.239 187.558 269.882 187.707 269.643 187.806L269.559 187.771L269.593 187.687C271.432 187.063 274.041 185.769 274.041 185.769L274.125 185.803L274.09 185.888C274.09 185.888 272.232 186.8 270.478 187.459Z" fill="#E0B3A8"/>
<path d="M274.93 186.728L274.845 186.693C274.845 186.693 274.175 185.923 273.968 184.752L274.002 184.667L274.087 184.702C274.245 185.755 274.915 186.524 274.915 186.524C274.965 186.643 274.965 186.643 274.93 186.728Z" fill="#E0B3A8"/>
<path d="M297.114 123.32C302.134 124.233 305.055 119.486 303.594 115.833C303.959 108.255 300.765 100.859 289.539 104.877C283.971 105.607 281.78 113.003 286.344 114.92C292.459 120.399 297.114 123.32 297.114 123.32Z" fill="#242424"/>
<path d="M292.641 126.242C293.006 128.342 293.28 130.442 289.994 130.807C286.526 136.286 288.077 140.76 289.629 141.307C293.645 142.403 303.867 132.086 303.867 131.081C303.867 130.899 301.312 130.351 300.399 128.707C299.486 127.064 299.03 122.955 299.395 117.477C297.204 118.024 296.474 116.381 296.474 113.368C296.474 110.446 295.014 105.698 289.355 106.52C287.165 109.168 286.069 110.811 286.252 114.19C286.434 117.568 286.069 120.033 286.434 121.677C286.799 123.32 288.534 126.333 292.641 126.242Z" fill="white"/>
<path d="M302.227 118.572C302.227 119.577 301.405 120.307 300.492 120.307C299.488 120.307 298.758 119.485 298.758 118.572C298.758 117.568 299.58 116.837 300.492 116.837C301.496 116.837 302.227 117.659 302.227 118.572Z" fill="white"/>
<path d="M300.127 119.485C300.127 119.485 300.036 119.485 300.036 119.394C300.036 119.303 300.036 119.303 300.127 119.211C300.31 119.12 300.401 119.029 300.401 118.937C300.401 118.846 300.31 118.663 300.218 118.572C300.127 118.481 299.944 118.481 299.762 118.572H299.671L299.579 118.481C299.579 118.024 299.853 117.75 300.31 117.568C300.766 117.385 301.222 117.568 301.496 117.933C301.496 118.024 301.496 118.024 301.496 118.116C301.405 118.116 301.405 118.116 301.314 118.116C301.04 117.75 300.675 117.75 300.401 117.842C300.218 117.933 299.944 118.116 299.853 118.389C300.036 118.389 300.127 118.389 300.31 118.481C300.492 118.572 300.583 118.846 300.583 119.029C300.492 119.12 300.492 119.394 300.127 119.485Z" fill="#E0B3A8"/>
<path d="M295.745 113.642C295.745 113.642 295.836 113.642 295.836 113.55C295.836 113.459 295.836 113.459 295.836 113.368C294.376 112.546 292.641 112.455 291.911 112.729C291.82 112.729 291.82 112.82 291.82 112.911C291.82 113.003 291.911 113.003 292.003 113.003C292.55 112.729 294.284 112.729 295.745 113.642Z" fill="#242424"/>
<path d="M286.618 113.733C286.709 113.733 286.709 113.733 286.618 113.733C286.709 113.642 287.165 113.094 288.626 113.277C288.717 113.277 288.717 113.277 288.717 113.185C288.717 113.094 288.717 113.094 288.626 113.094C287.074 112.912 286.526 113.551 286.526 113.642C286.526 113.642 286.526 113.642 286.618 113.733Z" fill="#242424"/>
<path d="M289.264 119.668C289.355 119.576 289.355 119.485 289.355 119.485C288.808 119.029 288.169 118.481 287.986 118.298C288.077 118.298 288.26 118.298 288.442 118.298C288.808 118.298 289.264 118.298 289.538 118.116C290.177 117.75 289.538 115.285 288.99 114.098C288.99 114.007 288.899 114.007 288.808 114.007C288.716 114.007 288.716 114.098 288.716 114.189C289.355 115.559 289.72 117.75 289.355 117.933C289.173 118.024 288.716 118.024 288.351 118.116C287.895 118.116 287.621 118.116 287.621 118.298C287.712 118.481 288.534 119.12 289.264 119.668C289.173 119.668 289.173 119.668 289.264 119.668Z" fill="#242424"/>
<path d="M293.281 117.111C292.928 117.111 292.642 116.58 292.642 115.924C292.642 115.269 292.928 114.737 293.281 114.737C293.634 114.737 293.92 115.269 293.92 115.924C293.92 116.58 293.634 117.111 293.281 117.111Z" fill="#242424"/>
<path d="M287.531 116.107C287.531 116.746 287.805 117.294 288.17 117.294C288.535 117.294 288.809 116.746 288.809 116.107C288.809 115.468 288.535 114.92 288.17 114.92C287.805 114.92 287.531 115.376 287.531 116.107Z" fill="#242424"/>
<path d="M299.304 121.038C299.304 121.494 299.669 121.859 300.126 121.859C300.582 121.859 300.947 121.494 300.947 121.038C300.947 120.581 300.582 120.216 300.126 120.216C299.669 120.216 299.304 120.581 299.304 121.038Z" fill="white"/>
<path d="M293.008 121.129L288.079 120.946C288.079 123.229 291.274 124.233 293.008 121.129Z" fill="#242424"/>
<path d="M288.992 122.682C289.631 121.769 290.543 121.312 290.543 121.312L292.095 121.13H293.008C291.821 123.23 290.087 123.413 288.992 122.682Z" fill="#7D2727"/>
<path d="M289.358 106.52C289.723 111.268 296.294 111.998 297.572 111.724C298.668 111.45 295.564 104.42 289.358 106.52Z" fill="#242424"/>
<path d="M297.297 118.39C297.754 118.39 298.484 118.116 299.396 117.02C299.488 116.929 299.488 116.746 299.396 116.655C299.305 116.564 299.123 116.564 299.031 116.655C298.21 117.659 297.48 118.024 297.115 117.842C296.476 117.477 296.293 115.65 297.297 112.729C297.388 112.637 297.297 112.455 297.115 112.363C296.932 112.272 296.841 112.363 296.75 112.546C295.746 115.468 295.746 117.659 296.75 118.207C296.932 118.39 297.115 118.39 297.297 118.39Z" fill="#242424"/>
<path d="M292.551 111.177C293.463 111.177 294.376 110.903 295.289 110.446C295.38 110.355 295.471 110.264 295.38 110.081C295.289 109.99 295.198 109.898 295.015 109.99C293.281 110.811 291.547 110.811 290.36 109.99C289.356 109.259 288.809 107.981 288.991 106.794C288.991 106.611 288.9 106.52 288.809 106.52C288.717 106.52 288.535 106.611 288.535 106.703C288.352 108.164 288.991 109.533 290.178 110.446C290.725 110.903 291.638 111.177 292.551 111.177Z" fill="#242424"/>
<path d="M325.69 143.886C321.46 131.873 305.052 133.101 305.052 133.101C303.066 141.267 310.052 154.022 304.595 161.743C296.589 173.25 281.693 178.953 281.693 178.953L285.698 185.048C305.655 188.147 332.609 170.93 325.69 143.886Z" fill="#D1E3FF"/>
<path d="M312.813 116.381C310.897 116.381 309.345 114.827 309.345 112.911C309.345 110.995 310.897 109.441 312.813 109.441C314.728 109.441 316.281 110.995 316.281 112.911C316.281 114.827 314.728 116.381 312.813 116.381Z" fill="#242424"/>
<defs>
<linearGradient id="paint0_linear_118_4756" x1="295.076" y1="130.625" x2="295.076" y2="168.425" gradientUnits="userSpaceOnUse">
<stop stop-color="#C8C0C4"/>
<stop offset="0.567708" stop-color="#2A72FF"/>
</linearGradient>
<clipPath id="clip0_118_4756">
<rect width="117" height="124" fill="white" transform="translate(23 18)"/>
</clipPath>
</defs>
</svg>
