<svg width="356" height="356" viewBox="0 0 356 356" fill="none" xmlns="http://www.w3.org/2000/svg">
<path d="M44.9278 256.348V270.348H41.1678V259.428H36.2078V270.348H32.4478V256.348H44.9278ZM47.4394 274.348V259.868H50.7994V261.488C51.5594 260.248 52.6927 259.628 54.1994 259.628C55.5327 259.628 56.6327 260.121 57.4994 261.108C58.366 262.081 58.7994 263.414 58.7994 265.108C58.7994 266.788 58.366 268.121 57.4994 269.108C56.646 270.094 55.5594 270.588 54.2394 270.588C52.8794 270.588 51.8127 270.068 51.0394 269.028V274.348H47.4394ZM51.4594 263.168C51.0727 263.661 50.8794 264.308 50.8794 265.108C50.8794 265.908 51.0727 266.554 51.4594 267.048C51.8594 267.541 52.3927 267.788 53.0594 267.788C53.726 267.788 54.2527 267.541 54.6394 267.048C55.0394 266.554 55.2394 265.908 55.2394 265.108C55.2394 264.308 55.0394 263.661 54.6394 263.168C54.2527 262.674 53.726 262.428 53.0594 262.428C52.3927 262.428 51.8594 262.674 51.4594 263.168ZM61.7244 269.108C60.6844 268.121 60.1644 266.788 60.1644 265.108C60.1644 263.428 60.6844 262.094 61.7244 261.108C62.7777 260.121 64.191 259.628 65.9644 259.628C67.7377 259.628 69.1444 260.121 70.1844 261.108C71.2377 262.094 71.7644 263.428 71.7644 265.108C71.7644 266.788 71.2377 268.121 70.1844 269.108C69.1444 270.094 67.7377 270.588 65.9644 270.588C64.191 270.588 62.7777 270.094 61.7244 269.108ZM64.3244 263.188C63.9244 263.681 63.7244 264.321 63.7244 265.108C63.7244 265.894 63.9244 266.541 64.3244 267.048C64.7244 267.541 65.271 267.788 65.9644 267.788C66.6577 267.788 67.2044 267.541 67.6044 267.048C68.0044 266.541 68.2044 265.894 68.2044 265.108C68.2044 264.321 68.0044 263.681 67.6044 263.188C67.2044 262.681 66.6577 262.428 65.9644 262.428C65.271 262.428 64.7244 262.681 64.3244 263.188ZM83.6741 267.388H85.1141V273.088H81.7141V270.348H76.0141V273.088H72.6141V267.388H73.5141C73.7007 266.948 73.8541 266.341 73.9741 265.568C74.0941 264.781 74.1741 264.074 74.2141 263.448C74.2674 262.821 74.3474 261.628 74.4541 259.868H83.6741V267.388ZM80.0741 267.388V262.828H77.5141C77.5007 263.014 77.4741 263.301 77.4341 263.688C77.4074 264.074 77.3874 264.341 77.3741 264.488C77.3607 264.621 77.3407 264.834 77.3141 265.128C77.2874 265.408 77.2607 265.621 77.2341 265.768C77.2207 265.901 77.1941 266.074 77.1541 266.288C77.1141 266.501 77.0674 266.694 77.0141 266.868C76.9741 267.028 76.9274 267.201 76.8741 267.388H80.0741ZM93.467 259.868H97.267L94.287 270.828C93.927 272.268 93.3604 273.254 92.587 273.788C91.827 274.321 90.7137 274.588 89.247 274.588C88.7404 274.588 88.1737 274.561 87.547 274.508V271.748C88.2404 271.774 88.7337 271.788 89.027 271.788C89.627 271.788 90.0737 271.701 90.367 271.528C90.6737 271.354 90.887 270.994 91.007 270.448L91.027 270.348H88.827L85.447 259.868H89.307L91.707 268.688L93.467 259.868ZM109.572 270.348H105.172L102.572 266.488H102.192V270.348H98.5917V259.868H102.192V263.688H102.612L105.052 259.868H109.252L105.192 264.768L109.572 270.348ZM110.02 262.828V259.868H120.54V262.828H117.08V270.348H113.48V262.828H110.02ZM123.053 269.108C122.013 268.121 121.493 266.788 121.493 265.108C121.493 263.428 122.013 262.094 123.053 261.108C124.106 260.121 125.519 259.628 127.293 259.628C129.066 259.628 130.473 260.121 131.513 261.108C132.566 262.094 133.093 263.428 133.093 265.108C133.093 266.788 132.566 268.121 131.513 269.108C130.473 270.094 129.066 270.588 127.293 270.588C125.519 270.588 124.106 270.094 123.053 269.108ZM125.653 263.188C125.253 263.681 125.053 264.321 125.053 265.108C125.053 265.894 125.253 266.541 125.653 267.048C126.053 267.541 126.599 267.788 127.293 267.788C127.986 267.788 128.533 267.541 128.933 267.048C129.333 266.541 129.533 265.894 129.533 265.108C129.533 264.321 129.333 263.681 128.933 263.188C128.533 262.681 127.986 262.428 127.293 262.428C126.599 262.428 126.053 262.681 125.653 263.188ZM141.981 264.888C144.168 265.114 145.261 265.948 145.261 267.388C145.261 268.188 144.915 268.881 144.221 269.468C143.528 270.054 142.361 270.348 140.721 270.348H134.861V259.868H140.401C141.908 259.868 143.028 260.114 143.761 260.608C144.495 261.088 144.861 261.728 144.861 262.528C144.861 263.794 143.901 264.581 141.981 264.888ZM138.461 262.508V263.888H140.161C140.895 263.888 141.261 263.654 141.261 263.188C141.261 262.734 140.855 262.508 140.041 262.508H138.461ZM140.461 267.708C141.261 267.708 141.661 267.441 141.661 266.908C141.661 266.388 141.235 266.128 140.381 266.128H138.461V267.708H140.461ZM146.454 267.368C146.454 265.368 148.008 264.221 151.114 263.928L153.474 263.708V263.668C153.474 262.668 152.961 262.161 151.934 262.148C150.948 262.148 150.414 262.514 150.334 263.248H147.054C147.068 262.581 147.214 262.001 147.494 261.508C147.774 261.014 148.148 260.641 148.614 260.388C149.094 260.121 149.608 259.928 150.154 259.808C150.701 259.688 151.294 259.628 151.934 259.628C153.561 259.628 154.821 260.021 155.714 260.808C156.621 261.594 157.074 262.801 157.074 264.428V270.348H153.714V268.708C152.888 269.961 151.668 270.588 150.054 270.588C148.908 270.588 148.021 270.294 147.394 269.708C146.768 269.108 146.454 268.328 146.454 267.368ZM150.014 267.168C150.014 267.808 150.421 268.128 151.234 268.128C151.861 268.128 152.388 267.928 152.814 267.528C153.254 267.114 153.474 266.648 153.474 266.128V265.828L151.594 266.008C150.541 266.101 150.014 266.488 150.014 267.168ZM163.518 259.868H169.058V270.348H165.458V266.708H164.798L162.638 270.348H158.438L161.338 266.448C159.685 266.008 158.858 264.954 158.858 263.288C158.858 261.008 160.411 259.868 163.518 259.868ZM163.978 262.588C162.965 262.588 162.458 262.901 162.458 263.528C162.458 264.154 162.965 264.468 163.978 264.468H165.458V262.588H163.978ZM31.7278 296.368C31.7278 294.368 33.2811 293.221 36.3878 292.928L38.7478 292.708V292.668C38.7478 291.668 38.2345 291.161 37.2078 291.148C36.2211 291.148 35.6878 291.514 35.6078 292.248H32.3278C32.3411 291.581 32.4878 291.001 32.7678 290.508C33.0478 290.014 33.4211 289.641 33.8878 289.388C34.3678 289.121 34.8811 288.928 35.4278 288.808C35.9745 288.688 36.5678 288.628 37.2078 288.628C38.8345 288.628 40.0945 289.021 40.9878 289.808C41.8945 290.594 42.3478 291.801 42.3478 293.428V299.348H38.9878V297.708C38.1611 298.961 36.9411 299.588 35.3278 299.588C34.1811 299.588 33.2945 299.294 32.6678 298.708C32.0411 298.108 31.7278 297.328 31.7278 296.368ZM35.2878 296.168C35.2878 296.808 35.6945 297.128 36.5078 297.128C37.1345 297.128 37.6611 296.928 38.0878 296.528C38.5278 296.114 38.7478 295.648 38.7478 295.128V294.828L36.8678 295.008C35.8145 295.101 35.2878 295.488 35.2878 296.168ZM44.4316 299.348V288.868H48.0316V292.528H51.4316V288.868H55.0316V299.348H51.4316V295.488H48.0316V299.348H44.4316ZM56.8255 296.368C56.8255 294.368 58.3788 293.221 61.4855 292.928L63.8455 292.708V292.668C63.8455 291.668 63.3321 291.161 62.3055 291.148C61.3188 291.148 60.7855 291.514 60.7055 292.248H57.4255C57.4388 291.581 57.5855 291.001 57.8655 290.508C58.1455 290.014 58.5188 289.641 58.9855 289.388C59.4655 289.121 59.9788 288.928 60.5255 288.808C61.0721 288.688 61.6655 288.628 62.3055 288.628C63.9321 288.628 65.1921 289.021 66.0855 289.808C66.9921 290.594 67.4455 291.801 67.4455 293.428V299.348H64.0855V297.708C63.2588 298.961 62.0388 299.588 60.4255 299.588C59.2788 299.588 58.3921 299.294 57.7655 298.708C57.1388 298.108 56.8255 297.328 56.8255 296.368ZM60.3855 296.168C60.3855 296.808 60.7921 297.128 61.6055 297.128C62.2321 297.128 62.7588 296.928 63.1855 296.528C63.6255 296.114 63.8455 295.648 63.8455 295.128V294.828L61.9655 295.008C60.9121 295.101 60.3855 295.488 60.3855 296.168ZM70.8692 288.868H80.0492V299.348H76.4492V291.828H74.0092C73.8226 294.308 73.6692 295.848 73.5492 296.448C73.2692 297.888 72.7026 298.808 71.8492 299.208C71.4092 299.408 70.8826 299.508 70.2692 299.508C69.7759 299.508 69.3159 299.468 68.8892 299.388V296.468C69.0359 296.494 69.1959 296.508 69.3692 296.508C69.5559 296.508 69.7226 296.434 69.8692 296.288C70.0159 296.141 70.1359 295.914 70.2292 295.608C70.3226 295.301 70.3959 294.981 70.4492 294.648C70.5159 294.314 70.5692 293.894 70.6092 293.388C70.6492 292.868 70.6826 292.401 70.7092 291.988C70.7359 291.561 70.7626 291.041 70.7892 290.428C70.8159 289.801 70.8426 289.281 70.8692 288.868ZM88.185 288.868H93.485V299.348H90.045V291.908L87.505 299.348H82.205V288.868H85.645V296.308L88.185 288.868ZM94.9225 291.828V288.868H105.443V291.828H101.983V299.348H98.3825V291.828H94.9225ZM112.853 288.868H118.153V299.348H114.713V291.908L112.173 299.348H106.873V288.868H110.313V296.308L112.853 288.868ZM131.29 299.348H126.89L124.29 295.488H123.91V299.348H120.31V288.868H123.91V292.688H124.33L126.77 288.868H130.97L126.91 293.768L131.29 299.348ZM131.689 296.368C131.689 294.368 133.242 293.221 136.349 292.928L138.709 292.708V292.668C138.709 291.668 138.195 291.161 137.169 291.148C136.182 291.148 135.649 291.514 135.569 292.248H132.289C132.302 291.581 132.449 291.001 132.729 290.508C133.009 290.014 133.382 289.641 133.849 289.388C134.329 289.121 134.842 288.928 135.389 288.808C135.935 288.688 136.529 288.628 137.169 288.628C138.795 288.628 140.055 289.021 140.949 289.808C141.855 290.594 142.309 291.801 142.309 293.428V299.348H138.949V297.708C138.122 298.961 136.902 299.588 135.289 299.588C134.142 299.588 133.255 299.294 132.629 298.708C132.002 298.108 131.689 297.328 131.689 296.368ZM135.249 296.168C135.249 296.808 135.655 297.128 136.469 297.128C137.095 297.128 137.622 296.928 138.049 296.528C138.489 296.114 138.709 295.648 138.709 295.128V294.828L136.829 295.008C135.775 295.101 135.249 295.488 135.249 296.168Z" fill="black"/>
<g clip-path="url(#clip0_118_4755)">
<path d="M288.413 227.84H42.2989C37.4222 227.84 33.5078 223.924 33.5078 219.043V53.652C33.5078 48.7708 37.4222 44.855 42.2989 44.855H288.413C293.289 44.855 297.204 48.7708 297.204 53.652V219.043C297.204 223.924 293.289 227.84 288.413 227.84Z" fill="#C8C0C4" stroke="black" stroke-width="2"/>
<g clip-path="url(#clip1_118_4755)">
<path d="M260.939 99.5064H220.478C220.296 99.5064 220.205 99.4151 220.205 99.2327V68.3924C220.205 68.2099 220.296 68.1187 220.478 68.1187H260.939C261.121 68.1187 261.212 68.2099 261.212 68.3924V99.2327C261.212 99.3239 261.03 99.5064 260.939 99.5064ZM220.752 98.9589H260.665V68.6661H220.752V98.9589Z" fill="black"/>
<path d="M262.215 102.974H219.203C219.021 102.974 218.93 102.882 218.93 102.7V99.1414C218.93 98.9589 219.021 98.8677 219.203 98.8677H262.124C262.306 98.8677 262.397 98.9589 262.397 99.1414V102.7C262.488 102.882 262.306 102.974 262.215 102.974ZM219.476 102.426H261.85V99.5064H219.476V102.426Z" fill="black"/>
<path d="M240.71 109.087C239.616 109.087 238.705 108.175 238.705 107.08C238.705 105.985 239.616 105.072 240.71 105.072C241.803 105.072 242.715 105.985 242.715 107.08C242.715 108.175 241.803 109.087 240.71 109.087ZM240.71 105.62C239.89 105.62 239.252 106.258 239.252 107.08C239.252 107.901 239.89 108.54 240.71 108.54C241.53 108.54 242.168 107.901 242.168 107.08C242.168 106.258 241.53 105.62 240.71 105.62Z" fill="black"/>
<path d="M240.709 105.529C240.527 105.529 240.436 105.437 240.436 105.255V102.883C240.436 102.7 240.527 102.609 240.709 102.609C240.891 102.609 240.982 102.7 240.982 102.883V105.255C240.982 105.346 240.891 105.529 240.709 105.529Z" fill="black"/>
<path d="M230.867 96.5863H224.943C224.761 96.5863 224.67 96.4951 224.67 96.3126V81.7137C224.67 81.5312 224.761 81.4399 224.943 81.4399H230.867C231.049 81.4399 231.14 81.5312 231.14 81.7137V96.3126C231.14 96.4039 231.049 96.5863 230.867 96.5863ZM225.217 95.9476H230.593V81.9874H225.217V95.9476Z" fill="black"/>
<path d="M242.622 96.5866H236.699C236.517 96.5866 236.426 96.4953 236.426 96.3128V75.8743C236.426 75.6918 236.517 75.6006 236.699 75.6006H242.622C242.805 75.6006 242.896 75.6918 242.896 75.8743V96.3128C242.896 96.4041 242.714 96.5866 242.622 96.5866ZM236.973 95.9479H242.349V76.148H236.973V95.9479Z" fill="black"/>
<path d="M255.015 96.5865H249.092C248.909 96.5865 248.818 96.4953 248.818 96.3128V71.6771C248.818 71.4946 248.909 71.4033 249.092 71.4033H255.015C255.197 71.4033 255.288 71.4946 255.288 71.6771V96.3128C255.288 96.404 255.106 96.5865 255.015 96.5865ZM249.365 95.9478H254.742V71.9508H249.365V95.9478Z" fill="black"/>
</g>
<rect x="164.027" y="131.096" width="44.1825" height="9.55517" stroke="black" stroke-width="2"/>
<rect x="164.027" y="152.105" width="44.1825" height="9.55515" stroke="black" stroke-width="2"/>
<rect x="164.027" y="173.115" width="61.5009" height="9.55516" stroke="black" stroke-width="2"/>
<ellipse cx="218.967" cy="136.174" rx="4.87718" ry="4.87718" fill="black"/>
<circle cx="218.967" cy="156.433" r="4.87718" fill="black"/>
</g>
<path d="M329.579 286.85C329.367 292.018 330.32 295.498 331.273 297.396C332.226 299.294 330.85 301.087 330.638 302.247C330.426 303.407 330.003 307.414 330.003 307.414H325.979C325.979 307.414 325.979 302.88 325.767 302.88C323.014 303.407 320.473 305.938 319.414 306.992C318.355 308.047 309.037 307.309 308.508 306.992C307.661 305.727 313.061 304.883 313.273 304.356C315.602 300.032 320.791 294.97 321.532 293.494C322.273 292.018 322.697 286.007 322.697 286.007L329.579 286.85Z" fill="white"/>
<path d="M313.379 304.567C315.073 304.778 316.979 305.094 317.614 304.883C318.461 304.461 324.285 297.29 330.532 295.498C330.744 296.236 331.061 296.868 331.273 297.396C332.226 299.294 330.85 301.087 330.638 302.247C330.426 303.407 330.003 307.414 330.003 307.414H325.979C325.979 307.414 325.979 302.879 325.767 302.879C323.014 303.407 320.473 305.938 319.414 306.992C318.355 308.047 309.037 307.308 308.508 306.992C307.873 305.938 312.955 305.094 313.379 304.567Z" fill="#2E2E2E"/>
<path d="M290.827 286.85C290.615 292.018 291.568 295.498 292.521 297.396C293.474 299.294 292.098 301.087 291.886 302.247C291.674 303.407 291.251 307.414 291.251 307.414H287.227C287.227 307.414 287.227 302.88 287.015 302.88C284.262 303.407 281.721 305.938 280.662 306.992C279.603 308.047 270.286 307.309 269.756 306.992C268.909 305.727 274.309 304.883 274.521 304.356C276.85 300.032 282.039 294.97 282.78 293.494C283.521 292.018 283.945 286.007 283.945 286.007L290.827 286.85Z" fill="white"/>
<path d="M274.626 304.567C276.32 304.778 278.226 305.094 278.861 304.883C279.708 304.461 285.532 297.29 291.779 295.498C291.991 296.236 292.309 296.868 292.52 297.396C293.473 299.294 292.097 301.087 291.885 302.247C291.673 303.407 291.25 307.414 291.25 307.414H287.226C287.226 307.414 287.226 302.879 287.014 302.879C284.261 303.407 281.72 305.938 280.661 306.992C279.602 308.047 270.285 307.308 269.755 306.992C269.12 305.938 274.096 305.094 274.626 304.567Z" fill="#2E2E2E"/>
<path d="M249.743 138.793C248.367 137 242.332 125.4 241.167 124.029C239.896 122.658 237.037 121.393 236.402 121.287C235.767 121.182 229.202 121.182 229.202 121.182C228.778 121.92 229.943 122.974 231.955 123.185C233.967 123.396 235.873 123.923 235.873 123.923L237.037 125.4C237.037 125.4 233.861 126.56 233.437 128.142C232.908 129.723 233.331 134.469 234.072 135.523C234.814 136.473 238.414 135.523 238.414 135.523C239.261 137.422 240.214 138.793 241.167 139.214C242.12 139.742 244.873 143.854 244.873 143.854L249.743 138.793Z" fill="white"/>
<path d="M284.156 117.174C277.274 123.923 265.944 144.803 265.944 144.803C265.944 144.803 252.708 135.312 247.943 136.367C243.179 137.316 240.743 145.225 245.614 151.025C250.485 156.825 256.626 165.051 269.015 163.891C281.297 162.625 289.344 145.752 290.192 144.276C291.039 142.8 296.015 121.498 284.156 117.174Z" fill="url(#paint0_linear_118_4755)"/>
<mask id="path-21-inside-1_118_4755" fill="white">
<path d="M312.428 157.774C323.757 164.84 325.134 186.563 325.451 198.48C325.875 210.396 333.287 294.443 333.287 294.443H318.039L301.839 219.781L294.004 292.967H280.874C280.874 292.967 273.356 177.178 284.05 157.774C294.745 138.371 312.428 157.774 312.428 157.774Z"/>
</mask>
<path d="M312.428 157.774L245.907 218.396L254.269 227.572L264.803 234.141L312.428 157.774ZM325.451 198.48L235.483 200.878L235.494 201.277L235.508 201.676L325.451 198.48ZM333.287 294.443V384.443H431.573L422.939 286.537L333.287 294.443ZM318.039 294.443L230.086 313.528L245.474 384.443H318.039V294.443ZM301.839 219.781L389.792 200.697L212.35 210.2L301.839 219.781ZM294.004 292.967V382.967H374.882L383.492 302.548L294.004 292.967ZM280.874 292.967L191.063 298.798L196.528 382.967H280.874V292.967ZM264.803 234.141C250.576 225.269 243.201 214.153 239.907 208.02C236.641 201.937 235.585 197.459 235.372 196.537C235.035 195.079 235.352 195.94 235.483 200.878L415.419 196.081C415.233 189.103 414.703 173.144 410.766 156.079C407.863 143.495 397.831 104.967 360.052 81.4071L264.803 234.141ZM235.508 201.676C235.821 210.492 238.082 237.667 239.849 258.526C240.81 269.866 241.755 280.816 242.461 288.923C242.813 292.979 243.106 296.329 243.311 298.668C243.414 299.837 243.494 300.754 243.549 301.381C243.577 301.694 243.598 301.934 243.613 302.097C243.62 302.179 243.625 302.241 243.629 302.283C243.631 302.304 243.632 302.32 243.633 302.331C243.634 302.337 243.634 302.341 243.634 302.344C243.634 302.346 243.635 302.347 243.635 302.348C243.635 302.349 243.635 302.349 333.287 294.443C422.939 286.537 422.939 286.537 422.939 286.537C422.939 286.536 422.939 286.535 422.939 286.534C422.938 286.532 422.938 286.529 422.938 286.524C422.937 286.515 422.936 286.501 422.934 286.481C422.931 286.443 422.925 286.384 422.919 286.306C422.905 286.15 422.884 285.918 422.857 285.612C422.804 285.001 422.725 284.101 422.624 282.949C422.422 280.645 422.132 277.336 421.784 273.326C421.086 265.302 420.152 254.495 419.207 243.334C418.259 232.146 417.31 220.72 416.575 211.417C416.207 206.754 415.904 202.766 415.685 199.675C415.434 196.125 415.384 194.986 415.395 195.283L235.508 201.676ZM333.287 204.443H318.039V384.443H333.287V204.443ZM405.993 275.359L389.792 200.697L213.886 238.866L230.086 313.528L405.993 275.359ZM212.35 210.2L204.515 283.386L383.492 302.548L391.328 229.362L212.35 210.2ZM294.004 202.967H280.874V382.967H294.004V202.967ZM280.874 292.967C370.685 287.136 370.685 287.14 370.685 287.143C370.685 287.144 370.685 287.147 370.686 287.148C370.686 287.151 370.686 287.152 370.686 287.151C370.686 287.149 370.685 287.14 370.684 287.125C370.682 287.094 370.678 287.036 370.673 286.951C370.662 286.783 370.645 286.509 370.622 286.137C370.576 285.392 370.508 284.254 370.423 282.775C370.252 279.812 370.015 275.499 369.762 270.24C369.252 259.654 368.688 245.556 368.438 231.09C368.182 216.302 368.284 202.619 368.887 192.369C369.194 187.158 369.544 184.415 369.673 183.619C370.248 180.093 369.465 189.254 362.871 201.217L205.229 114.332C195.963 131.145 193.075 148.169 192.013 154.69C190.507 163.94 189.69 173.426 189.198 181.799C188.202 198.716 188.178 217.619 188.465 234.203C188.758 251.111 189.405 267.172 189.971 278.903C190.255 284.803 190.522 289.687 190.721 293.133C190.82 294.857 190.903 296.226 190.962 297.187C190.991 297.667 191.015 298.046 191.032 298.317C191.041 298.452 191.048 298.56 191.053 298.641C191.055 298.681 191.058 298.714 191.059 298.741C191.06 298.754 191.061 298.765 191.061 298.775C191.062 298.779 191.062 298.785 191.062 298.788C191.063 298.793 191.063 298.798 280.874 292.967ZM362.871 201.217C357.194 211.517 343.365 228.748 317.878 236.08C294.396 242.836 275.515 236.895 267.309 233.439C258.969 229.925 253.828 225.803 251.989 224.275C250.737 223.236 249.672 222.252 248.76 221.362C248.29 220.903 247.824 220.433 247.358 219.948C247.124 219.704 246.886 219.454 246.646 219.196C246.525 219.068 246.403 218.936 246.28 218.803C246.219 218.736 246.157 218.669 246.095 218.601C246.063 218.567 246.032 218.533 246.001 218.499C245.985 218.482 245.962 218.456 245.954 218.447C245.93 218.422 245.907 218.396 312.428 157.774C378.948 97.1528 378.925 97.1267 378.901 97.1006C378.893 97.0917 378.869 97.0654 378.853 97.0477C378.82 97.0123 378.787 96.9764 378.754 96.9401C378.687 96.8675 378.619 96.7932 378.549 96.7173C378.409 96.5655 378.262 96.4069 378.107 96.2419C377.799 95.9121 377.461 95.5553 377.095 95.1744C376.364 94.4148 375.508 93.5464 374.533 92.5945C372.613 90.7191 370.083 88.3714 367.006 85.816C361.517 81.256 351.287 73.4959 337.19 67.5571C323.226 61.6748 297.92 54.5217 268.114 63.0962C236.304 72.2473 216.254 94.3297 205.229 114.332L362.871 201.217Z" fill="url(#paint1_linear_118_4755)" mask="url(#path-21-inside-1_118_4755)"/>
<path d="M314.334 170.007C314.44 170.007 314.546 169.901 314.546 169.796C314.546 169.691 314.44 169.585 314.334 169.585C308.51 169.163 305.122 166.211 303.216 159.778C303.216 159.672 303.11 159.672 303.004 159.672C302.898 159.672 302.898 159.778 302.898 159.883C304.91 166.527 308.404 169.585 314.334 170.007Z" fill="#E3E3E3"/>
<path d="M314.015 119.178C308.298 114.538 303.109 113.378 303.109 113.378L288.285 115.276L284.156 117.174C284.156 117.174 278.121 137.316 278.756 140.48C279.391 143.643 282.462 146.491 283.521 150.076C284.368 152.923 284.156 154.294 284.156 154.294H312.427C312.427 152.396 313.38 143.538 314.015 140.585C314.651 137.632 318.039 127.298 314.015 119.178Z" fill="#FF5D5D"/>
<path d="M314.122 177.389C313.698 178.76 313.169 183.61 311.369 184.032C309.569 184.56 307.239 185.614 306.18 187.618C305.121 189.727 302.157 190.465 302.051 190.992C302.051 191.52 305.016 191.625 306.286 190.887C307.557 190.149 307.663 189.41 307.98 190.149C308.298 190.887 305.439 197.952 304.274 200.167C303.11 202.381 305.863 200.589 305.863 200.589C306.604 201.432 307.874 200.589 307.874 200.589C309.145 201.643 312.11 197.847 312.322 198.269C313.698 199.64 316.769 195.21 317.298 192.258C317.828 189.305 317.722 186.669 318.992 184.349C320.263 182.029 321.745 178.865 321.745 178.865L314.122 177.389Z" fill="white"/>
<path d="M306.18 200.378H306.286C306.392 200.167 309.886 196.16 310.521 192.785C310.521 192.68 310.521 192.68 310.416 192.574C310.31 192.574 310.31 192.574 310.204 192.68C309.568 196.054 306.074 200.061 306.074 200.167C306.074 200.167 306.074 200.272 306.18 200.378C306.074 200.272 306.18 200.378 306.18 200.378Z" fill="#E0B3A8"/>
<path d="M308.617 200.378H308.723C308.828 200.272 312.217 197.214 313.064 194.472C313.064 194.367 313.064 194.367 312.958 194.261C312.852 194.261 312.852 194.261 312.746 194.367C311.899 197.109 308.511 200.167 308.511 200.167C308.511 200.167 308.405 200.272 308.617 200.378C308.511 200.378 308.511 200.378 308.617 200.378Z" fill="#E0B3A8"/>
<path d="M312.64 197.847H312.745C314.016 196.37 314.334 195.421 314.334 195.316C314.334 195.21 314.334 195.21 314.228 195.105C314.122 195.105 314.122 195.105 314.016 195.21C314.016 195.21 313.698 196.16 312.428 197.636C312.534 197.636 312.534 197.741 312.64 197.847C312.64 197.741 312.64 197.847 312.64 197.847Z" fill="#E0B3A8"/>
<path d="M286.167 105.785C288.799 105.785 290.932 103.661 290.932 101.04C290.932 98.419 288.799 96.2944 286.167 96.2944C283.536 96.2944 281.402 98.419 281.402 101.04C281.402 103.661 283.536 105.785 286.167 105.785Z" fill="#2E2E2E"/>
<path d="M295.486 107.051C290.085 108 287.015 103.043 288.497 99.036C288.18 91.127 291.568 83.2179 303.639 87.4361C309.674 88.1742 312.004 96.0833 307.027 98.1924C300.462 103.992 295.486 107.051 295.486 107.051Z" fill="#2E2E2E"/>
<path d="M300.355 110.214C299.931 112.429 299.719 113.8 303.002 113.483C291.46 126.876 288.178 116.858 288.284 115.381C288.284 115.171 291.037 114.538 291.99 112.851C292.943 111.163 293.472 106.734 293.049 100.829C295.378 101.461 296.119 99.5633 296.225 96.5051C296.225 93.3414 297.813 88.3851 303.849 89.1233C306.178 91.9705 307.343 93.6578 307.131 97.3487C306.919 101.04 307.343 103.571 306.919 105.363C306.496 107.051 304.59 110.32 300.355 110.214Z" fill="white"/>
<path d="M289.98 102.094C289.98 103.149 290.828 103.993 291.886 103.993C292.945 103.993 293.792 103.149 293.792 102.094C293.792 101.04 292.945 100.196 291.886 100.196C290.828 100.196 289.98 101.04 289.98 102.094Z" fill="white"/>
<path d="M292.308 103.043C292.308 103.043 292.414 103.043 292.414 102.938C292.414 102.832 292.414 102.832 292.308 102.727C292.096 102.621 292.096 102.516 292.096 102.41C292.096 102.305 292.202 102.2 292.308 102.094C292.414 101.989 292.626 101.989 292.732 102.094H292.838L292.943 101.989C292.943 101.567 292.626 101.145 292.202 101.04C291.673 100.934 291.249 101.04 290.932 101.356C290.932 101.461 290.932 101.461 290.932 101.567C291.038 101.567 291.038 101.567 291.143 101.567C291.355 101.25 291.779 101.25 292.096 101.25C292.308 101.356 292.626 101.461 292.626 101.778C292.414 101.778 292.308 101.778 292.096 101.883C291.885 101.989 291.779 102.2 291.779 102.41C291.885 102.621 291.885 102.938 292.308 103.043C292.202 103.043 292.308 103.043 292.308 103.043Z" fill="#E0B3A8"/>
<path d="M296.967 96.7159C296.861 96.7159 296.861 96.7159 296.967 96.7159C296.861 96.6105 296.861 96.505 296.861 96.505C298.45 95.6614 300.25 95.5559 301.097 95.7668C301.203 95.7668 301.203 95.8723 301.203 95.8723C301.203 95.9777 301.097 95.9777 301.097 95.9777C300.356 95.8723 298.555 95.8723 296.967 96.7159Z" fill="#2E2E2E"/>
<path d="M306.708 96.9269C306.708 96.9269 306.602 96.8215 306.708 96.9269C306.602 96.8215 306.073 96.1887 304.59 96.3996C304.484 96.3996 304.484 96.3996 304.484 96.2942C304.484 96.1887 304.484 96.1887 304.59 96.1887C306.284 95.9778 306.814 96.6106 306.814 96.716C306.814 96.716 306.814 96.8215 306.708 96.9269C306.708 96.8215 306.708 96.9269 306.708 96.9269Z" fill="#2E2E2E"/>
<path d="M303.955 103.254C303.849 103.254 303.849 103.254 303.955 103.254C303.849 103.149 303.849 103.043 303.849 103.043C304.484 102.516 305.119 101.989 305.331 101.778C305.225 101.778 305.013 101.778 304.802 101.778C304.378 101.778 303.849 101.778 303.637 101.567C303.002 101.25 303.637 98.5086 304.166 97.2431C304.166 97.1377 304.272 97.1377 304.272 97.1377C304.378 97.1377 304.378 97.2431 304.378 97.2431C303.743 98.7195 303.319 101.04 303.743 101.25C303.955 101.356 304.484 101.356 304.802 101.356C305.331 101.356 305.543 101.356 305.543 101.567C305.543 101.883 304.696 102.621 303.955 103.254Z" fill="#2E2E2E"/>
<path d="M302.897 105.152C301.732 105.152 300.355 104.941 299.508 104.625C299.402 104.625 299.402 104.52 299.402 104.414C299.402 104.309 299.508 104.309 299.614 104.309C300.991 105.047 304.167 104.941 304.802 104.625C304.908 104.625 304.908 104.625 305.014 104.625C305.014 104.73 305.014 104.73 305.014 104.836C304.697 105.047 303.85 105.152 302.897 105.152Z" fill="#2E2E2E"/>
<path d="M299.509 100.512C299.918 100.512 300.25 99.9458 300.25 99.2469C300.25 98.548 299.918 97.9814 299.509 97.9814C299.099 97.9814 298.768 98.548 298.768 99.2469C298.768 99.9458 299.099 100.512 299.509 100.512Z" fill="#2E2E2E"/>
<path d="M305.756 99.3524C305.756 100.091 305.438 100.618 305.015 100.618C304.591 100.618 304.273 100.091 304.273 99.3524C304.273 98.6142 304.591 98.0869 305.015 98.0869C305.438 98.0869 305.756 98.7196 305.756 99.3524Z" fill="#2E2E2E"/>
<path d="M304.697 104.941C303.638 105.68 304.379 106.523 303.638 106.84C302.897 107.156 300.461 106.523 299.826 104.73C301.732 105.152 303.85 105.152 304.697 104.941Z" fill="#2E2E2E"/>
<path d="M300.039 104.73C301.733 105.152 303.533 105.152 304.486 104.941C304.592 104.941 304.592 104.941 304.592 104.941C303.533 106.101 300.674 105.152 300.039 104.73Z" fill="white"/>
<path d="M300.25 105.469C301.838 105.574 303.427 106.101 303.744 106.734C303.744 106.734 303.638 106.734 303.638 106.84C303.003 107.051 301.203 106.629 300.25 105.469Z" fill="#73251A"/>
<mask id="path-43-inside-2_118_4755" fill="white">
<path d="M314.015 119.178C308.403 123.501 308.192 135.418 312.639 146.49C317.086 157.563 314.227 166.527 311.898 172.01C309.568 177.494 308.721 184.559 318.78 185.403C328.733 186.247 333.392 167.581 333.392 155.56C333.392 143.538 322.698 120.865 314.015 119.178Z"/>
</mask>
<path d="M314.015 119.178L321.646 79.9123L303.913 76.4663L289.603 87.4913L314.015 119.178ZM318.78 185.403L322.158 145.546L322.141 145.545L322.123 145.543L318.78 185.403ZM289.603 87.4913C273.048 100.246 269.985 118.872 269.588 128.685C269.126 140.073 271.526 151.454 275.521 161.398L349.757 131.583C349.304 130.455 349.586 130.34 349.522 131.921C349.488 132.773 349.306 135.082 348.078 138.233C346.833 141.43 344.079 146.51 338.428 150.864L289.603 87.4913ZM275.521 161.398C275.367 161.015 275.168 160.364 275.057 159.506C274.947 158.66 274.955 157.864 275.026 157.193C275.157 155.938 275.486 155.42 275.082 156.371L348.713 187.65C352.819 177.986 359.94 156.936 349.757 131.583L275.521 161.398ZM275.082 156.371C273.2 160.8 267.421 175.131 272.328 191.765C275.251 201.673 281.537 210.729 290.93 216.997C299.568 222.762 308.579 224.688 315.437 225.263L322.123 145.543C323.952 145.696 329.296 146.423 335.337 150.454C342.132 154.989 346.89 161.778 349.058 169.128C350.965 175.592 350.396 180.766 349.992 183.104C349.562 185.593 348.915 187.174 348.713 187.65L275.082 156.371ZM315.402 225.26C332.294 226.692 345.412 219.129 353.412 211.205C360.668 204.018 364.714 195.809 366.993 190.074C371.611 178.447 373.392 165.607 373.392 155.56H293.392C293.392 156.14 293.321 157.279 293.093 158.601C292.856 159.974 292.606 160.635 292.645 160.538C292.68 160.449 292.92 159.849 293.486 158.907C294.03 158.001 295.159 156.303 297.112 154.368C301.439 150.083 310.242 144.536 322.158 145.546L315.402 225.26ZM373.392 155.56C373.392 140.676 367.777 125.501 362.604 115.342C359.742 109.72 355.867 103.345 350.857 97.5988C346.965 93.134 337.236 82.9419 321.646 79.9123L306.385 158.443C300.163 157.234 295.992 154.644 294.043 153.247C291.985 151.773 290.861 150.52 290.554 150.168C289.992 149.523 290.419 149.884 291.315 151.644C292.124 153.233 292.811 154.979 293.233 156.402C293.329 156.725 293.398 156.988 293.445 157.185C293.468 157.282 293.484 157.357 293.495 157.409C293.506 157.462 293.511 157.488 293.511 157.487C293.51 157.486 293.504 157.451 293.495 157.384C293.486 157.317 293.472 157.209 293.458 157.062C293.431 156.782 293.392 156.271 293.392 155.56H373.392Z" fill="url(#paint2_linear_118_4755)" mask="url(#path-43-inside-2_118_4755)"/>
<path d="M284.051 157.731H312.428V154.251H284.051V157.731Z" fill="#2E2E2E"/>
<path d="M308.826 153.873H307.344V157.985H308.826V153.873Z" fill="#B5B7CC"/>
<path d="M286.697 153.873H285.215V157.985H286.697V153.873Z" fill="#B5B7CC"/>
<path d="M266.58 148.705C266.58 148.705 266.686 148.705 266.686 148.6C266.686 148.494 266.686 148.494 266.686 148.389C266.368 148.178 266.262 147.018 266.262 146.28C266.262 145.541 266.156 145.225 266.05 145.12C265.944 145.12 265.944 145.12 265.838 145.12C265.415 145.436 265.203 146.596 265.203 146.807C265.203 146.912 265.203 146.912 265.309 147.018C265.415 147.018 265.415 147.018 265.521 146.912C265.627 146.491 265.733 145.752 265.944 145.541C265.944 145.752 265.944 146.069 266.05 146.385C265.944 147.229 266.05 148.283 266.58 148.705C266.474 148.705 266.474 148.705 266.58 148.705Z" fill="#E0E0E0"/>
<path d="M234.389 135.207C234.389 135.207 234.389 135.101 234.389 135.207C234.495 135.101 234.495 135.101 234.495 134.996C234.177 134.469 234.071 134.047 234.283 133.52C234.707 132.043 237.46 130.883 239.154 130.145L239.471 130.04C239.789 129.934 239.895 129.723 239.789 129.301C239.683 128.247 237.883 126.349 237.354 126.349C237.248 126.349 237.248 126.349 237.248 126.454C237.248 126.56 237.248 126.56 237.354 126.56C237.777 126.56 239.471 128.352 239.577 129.407C239.577 129.723 239.471 129.829 239.366 129.829L239.048 129.934C237.142 130.778 234.495 131.832 233.965 133.414C233.86 133.941 233.86 134.574 234.389 135.207C234.283 135.101 234.283 135.207 234.389 135.207Z" fill="#E0B3A8"/>
<path d="M236.826 130.356C236.826 130.356 236.932 130.356 236.826 130.356C236.932 130.356 236.932 130.251 236.932 130.145C236.932 130.145 236.402 128.985 236.826 127.509C236.826 127.403 236.826 127.403 236.72 127.403C236.614 127.403 236.614 127.403 236.614 127.509C236.191 129.091 236.614 130.251 236.72 130.356H236.826Z" fill="#E0B3A8"/>
<path d="M234.178 131.622C234.284 131.622 234.284 131.622 234.178 131.622C234.39 131.622 234.39 131.516 234.284 131.516C234.284 131.516 233.648 130.567 233.86 129.302C233.86 129.196 233.86 129.196 233.754 129.196C233.648 129.196 233.648 129.196 233.648 129.302C233.437 130.673 234.072 131.622 234.178 131.622Z" fill="#E0B3A8"/>
<ellipse cx="236.225" cy="178.193" rx="4.87718" ry="4.87718" fill="black"/>
<path d="M123.287 78.0419C123.287 78.3612 123.287 78.6806 123.287 79C123.287 101.25 105.306 119.241 83.0699 119.241C60.8336 119.241 42.8531 101.25 42.8531 79C42.8531 57.0698 60.3017 39.2914 82.1123 38.7592V18C48.8112 18.5323 22 45.5724 22 79C22 112.747 49.3431 140 82.9635 140C116.69 140 143.927 112.64 143.927 79C143.927 78.6806 143.927 78.3612 143.927 78.0419H123.287Z" fill="#2A73FF"/>
<path d="M127.623 24L66 88.4211L67.2641 90L139 36.9474L127.623 24Z" fill="#FF5D5D"/>
<defs>
<linearGradient id="paint0_linear_118_4755" x1="267.45" y1="117.174" x2="269.742" y2="145.329" gradientUnits="userSpaceOnUse">
<stop stop-color="#FFA5A5"/>
<stop offset="1" stop-color="#FF5D5D"/>
</linearGradient>
<linearGradient id="paint1_linear_118_4755" x1="305.797" y1="149.15" x2="305.797" y2="294.443" gradientUnits="userSpaceOnUse">
<stop stop-color="#C8C0C4"/>
<stop offset="0.567708" stop-color="#2A72FF"/>
</linearGradient>
<linearGradient id="paint2_linear_118_4755" x1="321.462" y1="119.178" x2="330.444" y2="157.152" gradientUnits="userSpaceOnUse">
<stop stop-color="#FFA5A5"/>
<stop offset="1" stop-color="#FF5D5D"/>
</linearGradient>
<clipPath id="clip0_118_4755">
<rect width="272.372" height="194.337" fill="white" transform="translate(32.5078 39.7559)"/>
</clipPath>
<clipPath id="clip1_118_4755">
<rect width="43.5585" height="40.9683" fill="white" transform="translate(218.93 68.1187)"/>
</clipPath>
</defs>
</svg>
